<svg width="43" height="43" viewBox="0 0 43 43" fill="none" xmlns="http://www.w3.org/2000/svg">
<g clip-path="url(#clip0_10_67)">
<path fill-rule="evenodd" clip-rule="evenodd" d="M21.5 0C33.3741 0 43 9.62518 43 21.5C43 33.3746 33.3741 43 21.5 43C9.62594 43 0 33.3746 0 21.5C0 9.62518 9.62594 0 21.5 0ZM20.4698 20.2711L18.4913 9.05158L18.4951 9.05102C18.3432 7.96261 17.4092 7.12526 16.28 7.12526C15.1503 7.12526 14.2156 7.96375 14.0649 9.05102L14.0687 9.05158L11.8733 21.5H10.2468L12.4907 8.77285C12.7736 6.93545 14.3635 5.5283 16.2808 5.5283C18.1974 5.5283 19.7868 6.93545 20.069 8.77285L20.0697 8.77853L21.8529 18.8891L33.1348 7.60727C29.9862 4.96912 25.9295 3.37936 21.5004 3.37936C11.4918 3.37936 3.37899 11.4922 3.37899 21.5007C3.37899 25.9298 4.96817 29.9871 7.6069 33.1351L20.4698 20.2711ZM24.5087 33.9487L24.5049 33.9495C24.6569 35.0372 25.591 35.8745 26.7202 35.8745C27.8493 35.8745 28.7845 35.0366 28.9353 33.9495L28.9315 33.9487L31.1269 21.5H32.7534L30.5087 34.2269C30.2258 36.0643 28.6366 37.4717 26.7194 37.4717C24.8022 37.4717 23.2134 36.0643 22.931 34.2269L22.9305 34.2212L21.1465 24.1099L9.86524 35.3917C13.0127 38.031 17.07 39.6204 21.4998 39.6204C31.5082 39.6204 39.6212 31.5074 39.6212 21.499C39.6212 17.0698 38.0313 13.0125 35.392 9.86447L22.5298 22.7272L24.5087 33.9487Z" fill="#808080"/>
<path fill-rule="evenodd" clip-rule="evenodd" d="M-327.875 -29.5621H-140.767V-24.1872H-327.203C-327.572 -24.1872 -327.875 -23.8851 -327.875 -23.5154V66.5158C-327.875 66.8856 -327.572 67.1876 -327.203 67.1876H144.453C144.823 67.1876 145.125 66.8856 145.125 66.5158V-23.5154C145.125 -23.8851 144.823 -24.1872 144.453 -24.1872H-41.9836V-29.5621H145.125C148.081 -29.5621 150.5 -27.1433 150.5 -24.1872V67.1876C150.5 70.1438 148.081 72.5625 145.125 72.5625H-327.875C-330.831 72.5625 -333.25 70.1438 -333.25 67.1876V-24.1872C-333.25 -27.1433 -330.831 -29.5621 -327.875 -29.5621Z" fill="#202020"/>
<path d="M-537.984 -128.776H543.95V380.235H-537.984V-128.776Z" stroke="#202020" stroke-width="0.755865"/>
</g>
<defs>
<clipPath id="clip0_10_67">
<rect width="43" height="43" fill="white"/>
</clipPath>
</defs>
</svg>
