<svg width="38" height="38" viewBox="0 0 38 38" fill="none" xmlns="http://www.w3.org/2000/svg">
<g clip-path="url(#clip0_10_22)">
<path fill-rule="evenodd" clip-rule="evenodd" d="M0 31.9071H3.18138V38H0V31.9071ZM4.33807 27.9187H7.54757V38H4.33807V27.9187ZM8.70477 23.9305H11.8862V38H8.70477V23.9305ZM13.0569 19.9418H16.2383V38H13.0569V19.9418ZM17.4097 15.9535H20.5904V38H17.4097V15.9535ZM21.7619 11.9653H24.9431V38H21.7619V11.9653ZM26.1145 7.97656H29.2957V38H26.1145V7.97656ZM30.4671 3.9882H33.6478V38H30.4671V3.9882ZM34.8193 0H38V38H34.8193V0Z" fill="#808080"/>
<path fill-rule="evenodd" clip-rule="evenodd" d="M-160.808 -27.5214H-95.3164V-22.6243H-160.2C-160.535 -22.6243 -160.808 -22.3491 -160.808 -22.0122V118.775C-160.808 119.112 -160.535 119.387 -160.2 119.387H62.1293C62.4638 119.387 62.7369 119.112 62.7369 118.775V-22.0122C62.7369 -22.3491 62.4638 -22.6243 62.1293 -22.6243H-2.75438V-27.5214H62.7369C65.4096 -27.5214 67.5965 -25.3177 67.5965 -22.6243V119.387C67.5965 122.081 65.4096 124.284 62.7369 124.284H-160.808C-163.481 124.284 -165.667 122.081 -165.667 119.387V-22.6243C-165.667 -25.3177 -163.481 -27.5214 -160.808 -27.5214Z" fill="#202020"/>
<path d="M-350.773 -240.336H627.43V223.406H-350.773V-240.336Z" stroke="#202020" stroke-width="0.755865"/>
</g>
<defs>
<clipPath id="clip0_10_22">
<rect width="38" height="38" fill="white"/>
</clipPath>
</defs>
</svg>
