<?xml version="1.0" encoding="UTF-8" standalone="no"?>
<!-- Created with Inkscape (http://www.inkscape.org/) -->

<svg
   width="49.459999mm"
   height="50.166534mm"
   viewBox="0 0 49.459999 50.166534"
   version="1.1"
   id="svg1"
   xml:space="preserve"
   xmlns="http://www.w3.org/2000/svg"
   xmlns:svg="http://www.w3.org/2000/svg"><defs
     id="defs1" /><g
     id="layer1"
     transform="translate(-129.51472,-7.4035619)"><g
       style="fill:none"
       id="g1"
       transform="matrix(0.70657143,0,0,0.70657143,129.51472,7.403562)"><path
         d="m 43.5081,70.6205 c 0,-0.2145 0.2977,-0.5274 0.6615,-0.6951 1.1309,-0.5214 1.3041,-1.1399 0.8826,-3.1514 -0.3508,-1.674 -0.4512,-1.832 -1.0856,-1.7091 -0.4877,0.0944 -0.755,0.4182 -0.8839,1.071 -0.2816,1.4259 -0.2267,1.7853 0.2729,1.7853 0.2517,0 0.4576,0.2085 0.4576,0.4634 0,0.6564 -1.7066,0.6185 -1.9574,-0.0435 -0.1057,-0.2788 -0.1331,-0.7307 -0.061,-1.0041 0.4835,-1.8334 0.4919,-2.1964 0.0506,-2.1964 -0.2781,0 -0.3858,-0.1794 -0.2782,-0.4634 0.0965,-0.2549 0.3668,-0.4634 0.6006,-0.4634 0.2337,0 0.425,-0.1937 0.425,-0.4304 0,-0.2367 0.2059,-0.5104 0.4576,-0.6082 0.3113,-0.121 0.4577,0.0167 0.4577,0.4304 0,0.4833 0.2088,0.6082 1.0167,0.6082 0.9703,0 1.0295,0.0671 1.2967,1.4675 l 0.28,1.4675 0.8519,-1.4675 c 0.4685,-0.8071 1.052,-1.4675 1.2966,-1.4675 0.2447,0 0.4448,0.0829 0.4448,0.1841 0,0.3982 -2.8874,5.5203 -3.4104,6.0499 -0.6358,0.6438 -1.7763,0.7547 -1.7763,0.1727 z M 0.249541,68.5869 C 0.0341022,68.4485 -0.0601416,68.1188 0.0401147,67.8542 0.187223,67.466 0.410004,67.4309 1.19458,67.6722 c 1.28466,0.3951 2.65025,-0.1151 2.65025,-0.9901 0,-0.4582 -0.37687,-0.8001 -1.34519,-1.2204 -1.528103,-0.6633 -1.937378,-1.4808 -1.39962,-2.7954 0.4762,-1.1641 1.82267,-1.6509 3.38696,-1.2244 0.82929,0.2262 1.11362,0.4472 0.99108,0.7706 -0.12894,0.3402 -0.4681,0.4055 -1.35854,0.2613 -1.24827,-0.2021 -2.10531,0.2116 -2.10531,1.0164 0,0.2401 0.59801,0.6962 1.32891,1.0134 1.9155,0.8315 2.2988,2.2438 0.97323,3.5861 C 3.7275,68.686 3.2548,68.847 2.10436,68.8433 1.29965,68.8408 0.464983,68.7253 0.249541,68.5869 Z M 6.27547,68.3722 c -0.60803,-0.7419 -0.02714,-3.9634 0.74117,-4.1104 0.40727,-0.0779 0.52739,0.024 0.40592,0.3446 -0.09489,0.2504 -0.26958,1.1106 -0.3882,1.9116 -0.207,1.3978 -0.18722,1.4522 0.49135,1.3526 0.70044,-0.1029 0.74243,-0.1917 1.32744,-2.8072 0.10452,-0.4673 0.39337,-0.8496 0.64188,-0.8496 0.54017,0 0.53337,-0.1149 0.11236,1.9157 C 9.42068,67.03 9.05616,68.01 8.79735,68.3074 8.21592,68.9754 6.79969,69.0118 6.27547,68.3722 Z m 3.6714,-0.0885 c 0,-0.4463 0.18413,-0.5371 0.87913,-0.4338 1.1495,0.1709 1.5108,-0.4426 0.5278,-0.8961 -0.8767,-0.4045 -1.1937,-1.0332 -0.9359,-1.856 0.3279,-1.0459 2.6347,-1.1999 2.8271,-0.1886 0.0842,0.443 -0.0578,0.5015 -0.8356,0.344 -1.1366,-0.2302 -1.3236,0.496 -0.2505,0.9727 0.8783,0.3902 1.0826,1.6777 0.352,2.2186 -0.2997,0.222 -0.9992,0.4036 -1.5545,0.4036 -0.7742,0 -1.00953,-0.1316 -1.00953,-0.5644 z m 4.12103,0.2589 c -0.1145,-0.1875 -0.1146,-1.0297 -2e-4,-1.8714 0.1399,-1.0302 0.0988,-1.5306 -0.1259,-1.5306 -0.1835,0 -0.3337,-0.2085 -0.3337,-0.4634 0,-0.2549 0.1912,-0.4634 0.425,-0.4634 0.2338,0 0.504,-0.2086 0.6006,-0.4634 0.0966,-0.2549 0.4006,-0.4635 0.6755,-0.4635 0.319,0 0.4363,0.1677 0.3243,0.4635 -0.1189,0.3136 0.0154,0.4634 0.4154,0.4634 0.4,0 0.5343,0.1498 0.4154,0.4634 -0.0965,0.2549 -0.3587,0.4634 -0.5826,0.4634 -0.5148,0 -0.6202,0.1957 -0.8744,1.622 -0.1856,1.0414 -0.1408,1.1586 0.443,1.1586 0.9167,0 0.5812,0.7504 -0.3877,0.8673 -0.4327,0.0522 -0.8803,-0.0584 -0.9947,-0.2459 z m 2.5682,-0.3559 c -0.4228,-0.8 -0.0719,-2.4053 0.7155,-3.2736 0.4607,-0.508 0.9366,-0.6786 1.7976,-0.6445 1.3001,0.0516 1.392,0.309 0.8909,2.494 -0.155,0.676 -0.152,1.1586 0.0073,1.1586 0.1501,0 0.2729,0.1903 0.2729,0.4228 0,0.3047 -0.4693,0.427 -1.6807,0.4381 -1.3711,0.0124 -1.7402,-0.0972 -2.0035,-0.5954 z m 2.148,-0.8631 c 0.4722,-0.8934 0.3947,-2.183 -0.1311,-2.183 -0.5621,0 -1.0786,0.9519 -1.0786,1.9879 0,0.949 0.7475,1.0696 1.2097,0.1951 z m 1.9434,1.0122 c 0.0886,-0.313 0.3175,-1.3685 0.5088,-2.3456 0.2289,-1.1696 0.4966,-1.7764 0.7837,-1.7764 0.5204,0 0.5229,0.2197 0.0292,2.6242 -0.2778,1.3535 -0.5285,1.8808 -0.9314,1.9593 -0.4109,0.0802 -0.5103,-0.0374 -0.3903,-0.4615 z m 1.8306,0 c 0.0886,-0.313 0.3155,-1.3584 0.5042,-2.3232 l 0.3431,-1.7541 1.3997,0.0549 c 1.8341,0.0719 2.0935,0.5128 1.6304,2.7713 -0.2508,1.2236 -0.5053,1.7634 -0.8315,1.7634 -0.3757,0 -0.4293,-0.2324 -0.2672,-1.1586 0.1116,-0.6372 0.2736,-1.4026 0.3601,-1.7008 0.2046,-0.7051 -0.713,-1.0734 -1.2559,-0.5041 -0.2247,0.2356 -0.5271,1.0529 -0.672,1.8162 -0.1831,0.9648 -0.4324,1.4208 -0.8176,1.496 -0.414,0.0807 -0.5135,-0.036 -0.3933,-0.461 z m 4.7639,-0.1353 c -0.4188,-0.7925 -0.0711,-2.54 0.6644,-3.3395 0.427,-0.4641 0.9262,-0.6287 1.8016,-0.594 1.3442,0.0534 1.435,0.2966 0.9307,2.4956 -0.1551,0.676 -0.152,1.1586 0.0072,1.1586 0.1502,0 0.273,0.1903 0.273,0.4228 0,0.3047 -0.4693,0.427 -1.6807,0.4381 -1.3582,0.0123 -1.7413,-0.0993 -1.9962,-0.5816 z m 2.1407,-0.8769 c 0.4446,-0.8412 0.3949,-2.183 -0.0808,-2.183 -0.6802,0 -1.1289,0.7 -1.1289,1.7611 0,1.1602 0.6919,1.4015 1.2097,0.4219 z m 2.448,1.0567 c -0.6526,-0.7962 0.341,-6.3292 1.1366,-6.3292 0.3693,0 0.4345,0.2357 0.299,1.0814 -0.1548,0.9658 -0.1004,1.0813 0.5092,1.0813 0.9791,0 1.4148,0.5772 1.4148,1.8738 0,2.1437 -2.2329,3.6675 -3.3596,2.2927 z m 2.2532,-1.631 c 0.2009,-0.7122 0.1804,-1.1252 -0.0682,-1.377 -0.4955,-0.5017 -1.1946,0.2554 -1.4554,1.5762 -0.1874,0.9489 -0.148,1.0193 0.5169,0.9227 0.5134,-0.0745 0.8021,-0.3963 1.0067,-1.1219 z m 1.5341,1.0947 c 0.1093,-0.5523 0.2832,-1.5374 0.3864,-2.1892 0.1677,-1.0593 0.7907,-1.7727 1.1926,-1.3657 0.1303,0.1319 -0.0562,1.255 -0.6418,3.8638 -0.0859,0.3823 -0.3766,0.6952 -0.646,0.6952 -0.3902,0 -0.4495,-0.2046 -0.2912,-1.0041 z m 1.9426,0.6353 c -0.2494,-0.7578 1.0619,-6.4282 1.4866,-6.4282 0.5293,0 0.5212,0.3388 -0.0787,3.2762 -0.3339,1.6349 -0.3887,2.4507 -0.1697,2.5246 0.178,0.0601 0.248,0.3088 0.1555,0.5527 -0.2031,0.5361 -1.2238,0.5907 -1.3937,0.0747 z m 1.9305,-0.3264 c 0.0739,-1.7546 0.7503,-3.7795 1.2981,-3.8863 0.422,-0.0823 0.522,0.0323 0.4011,0.4595 -0.0885,0.3129 -0.3175,1.3684 -0.5087,2.3455 -0.229,1.1697 -0.4967,1.7765 -0.7838,1.7765 -0.2575,0 -0.424,-0.2847 -0.4067,-0.6952 z m 10.2424,0.4892 c -0.1118,-0.1133 -0.2034,-0.3887 -0.2034,-0.612 0,-0.3005 0.3401,-0.3588 1.3086,-0.2244 2.1862,0.3034 2.7741,-1.3315 0.6709,-1.866 -1.6195,-0.4116 -1.5845,-2.6592 0.0512,-3.289 1.0858,-0.418 2.5458,-0.0834 2.5463,0.5835 3e-4,0.4009 -0.2877,0.5162 -1.29,0.5162 -1.4872,0 -2.0315,0.8615 -0.7872,1.2459 2.7543,0.8508 2.1537,3.8518 -0.7708,3.8518 -0.7272,0 -1.4137,-0.0927 -1.5256,-0.206 z m 5.1577,-0.2795 c -0.6031,-0.6107 -0.613,-1.7554 -0.0251,-2.9065 0.5116,-1.0018 1.3705,-1.3883 2.4662,-1.1098 0.5652,0.1436 0.7407,0.3947 0.7407,1.0596 0,0.9094 -0.9151,1.5884 -2.1405,1.5884 -0.4109,0 -0.5305,0.1472 -0.3998,0.4921 0.1341,0.3538 0.4771,0.4578 1.2204,0.3699 0.787,-0.0931 0.9952,-0.0201 0.8718,0.3055 -0.0892,0.2353 -0.1621,0.486 -0.1621,0.557 0,0.3617 -2.1579,0.0627 -2.5716,-0.3562 z M 56.7551,65.88 c 0.2654,-0.1032 0.4826,-0.3117 0.4826,-0.4635 0,-0.442 -0.8059,-0.3182 -1.2204,0.1876 -0.4027,0.4913 -0.104,0.603 0.7378,0.2759 z m 1.703,2.6175 c 0,-0.1928 0.1581,-1.2194 0.3513,-2.2814 l 0.3514,-1.9308 1.1741,-0.0164 c 0.8251,-0.0115 1.1742,0.1157 1.1742,0.4277 0,0.2442 -0.1961,0.4441 -0.4358,0.4441 -0.7522,0 -1.3133,0.8446 -1.5291,2.3018 -0.1361,0.9191 -0.3601,1.4056 -0.6471,1.4056 -0.2415,0 -0.439,-0.1578 -0.439,-0.3506 z m 2.7459,-0.2158 c 0,-1.4266 0.7207,-4.0679 1.11,-4.0679 0.5063,0 0.5205,0.6033 0.0683,2.8835 -0.218,1.0993 -0.5018,1.7508 -0.7627,1.7508 -0.2286,0 -0.4156,-0.2549 -0.4156,-0.5664 z m 2.3101,0.0809 c -1.5021,-1.521 0.7799,-5.0492 2.5425,-3.931 1.2485,0.792 0.2554,2.5627 -1.4372,2.5627 -0.4423,0 -0.67,0.1491 -0.5901,0.3862 0.0716,0.2124 0.6105,0.3862 1.1976,0.3862 0.8666,0 1.0412,0.1018 0.9275,0.5407 -0.1806,0.6977 -1.9689,0.735 -2.6403,0.0552 z M 65.298,65.88 c 0.2654,-0.1032 0.4826,-0.3117 0.4826,-0.4635 0,-0.442 -0.8059,-0.3182 -1.2204,0.1876 -0.4027,0.4913 -0.104,0.603 0.7378,0.2759 z m 1.6013,2.7621 c -0.456,-0.4617 -0.1452,-0.7209 0.8644,-0.7209 1.2716,0 1.4411,-0.6555 0.3051,-1.1796 -0.8636,-0.3985 -1.0402,-1.601 -0.3235,-2.2034 0.5999,-0.5041 2.1271,-0.2867 2.2404,0.3191 0.0714,0.3819 -0.1119,0.4588 -0.8365,0.3511 -1.1388,-0.1692 -1.2446,0.4172 -0.1651,0.9153 0.8354,0.3854 1.0547,1.6872 0.3967,2.3536 -0.3893,0.3942 -2.1402,0.5104 -2.4815,0.1648 z M 21.8458,63.1325 c 0,-0.2549 0.206,-0.4635 0.4577,-0.4635 0.2517,0 0.4577,0.2086 0.4577,0.4635 0,0.2548 -0.206,0.4634 -0.4577,0.4634 -0.2517,0 -0.4577,-0.2086 -0.4577,-0.4634 z m 14.7211,0.0772 c 0.1922,-0.5846 1.1443,-0.6677 1.1443,-0.0999 0,0.2866 -0.2609,0.4861 -0.6357,0.4861 -0.3728,0 -0.5831,-0.1597 -0.5086,-0.3862 z m 3.8902,-0.0546 c 0,-0.2866 0.2608,-0.4861 0.6356,-0.4861 0.7436,0 0.6385,0.722 -0.127,0.8723 -0.301,0.0591 -0.5086,-0.0985 -0.5086,-0.3862 z m 21.6622,-0.0226 c 0,-0.255 0.2702,-0.4635 0.6007,-0.4635 0.4085,0 0.5444,0.1482 0.425,0.4635 -0.0966,0.2548 -0.3669,0.4634 -0.6007,0.4634 -0.2337,0 -0.425,-0.2086 -0.425,-0.4634 z M 12.5117,58.6285 C 10.6183,58.072 6.194,52.2994 4.13267,47.6959 -1.49738,35.1224 1.21275,19.7305 10.7834,9.92362 16.7062,3.85468 24.43,0.48636 33.4397,0.0433374 45.209,-0.535376 56.3259,4.71406 62.699,13.8596 c 2.7758,3.9834 4.5985,8.334 5.6931,13.589 0.7237,3.474 0.7261,9.7363 0.0052,13.1304 -0.9822,4.6244 -3.2875,9.6635 -6.3087,13.7903 -2.8294,3.8648 -4.5737,4.9456 -7.1821,4.4501 l -1.1109,-0.211 1.1871,-0.9621 C 59.5163,53.9723 63.5984,47.535 65.2178,41.5059 66.1782,37.9305 66.1937,29.9206 65.2469,26.4676 63.665,20.6982 61.1654,16.2576 57.1544,12.0909 50.819,5.50972 42.7356,2.34944 33.465,2.82936 28.7884,3.07146 25.4696,3.9321 21.3882,5.96117 15.0495,9.11242 10.4576,13.761 7.3347,20.1883 4.79372,25.4179 4.34051,27.4755 4.34051,33.7821 c 0,5.837 0.39179,7.9305 2.3367,12.4858 1.42886,3.3466 3.00101,5.6018 6.39169,9.1686 1.6332,1.7181 2.8803,3.2141 2.7713,3.3245 -0.2746,0.278 -2.1912,0.2018 -3.3285,-0.1325 z M 27.1903,57.1852 C 26.7325,52.9329 26.7908,53.0003 22.6086,51.8809 18.9356,50.8977 14.3667,48.5099 12.2873,46.4867 9.96108,44.2234 8.68317,41.4965 8.48525,38.3736 L 8.34111,36.0993 h 2.20809 c 6.8276,0 13.4273,4.3122 16.606,10.8504 1.5408,3.1691 2.4614,6.4029 2.793,9.8107 l 0.2143,2.2012 H 28.772 27.3816 Z m -2.3022,-8.5968 c -0.9571,-2.5491 -4.9856,-6.646 -8.0246,-8.161 -1.2927,-0.6444 -2.6254,-1.0425 -3.8742,-1.1572 l -1.9037,-0.1748 1.1536,2.2232 c 0.6628,1.2772 1.7188,2.7268 2.4818,3.4069 2.2453,2.0013 7.7054,4.5911 9.7869,4.642 0.605,0.0148 0.6464,-0.0701 0.3802,-0.7791 z m 11.0774,3.9625 c 0.148,-5.695 0.8673,-12.2043 1.6217,-14.6752 0.1475,-0.4832 -0.0895,-0.5406 -2.2297,-0.5406 h -2.3948 l 0.7092,4.0936 c 0.5191,2.9962 0.7581,5.8535 0.8916,10.6588 l 0.1822,6.5652 H 33.33 31.9142 L 31.9118,55.0225 C 31.9102,53.0259 31.7749,49.8566 31.6108,47.9796 31.3277,44.7421 29.9659,37.1127 29.606,36.7483 29.5135,36.6546 28.6108,36.4072 27.6,36.1984 21.3384,34.905 15.6309,29.345 14.5299,23.466 c -0.5861,-3.1295 -0.5894,-3.1232 1.6396,-3.1232 3.9731,0 8.1074,2.0203 11.1125,5.4303 1.0254,1.1636 2.1839,3.0274 3.1814,5.1181 l 1.5687,3.288 1.6955,0.1602 c 0.9325,0.0881 2.4241,0.0683 3.3146,-0.0441 l 1.6192,-0.2042 0.6827,-1.7052 c 2.9903,-7.4687 8.6983,-12.0431 15.0274,-12.0431 1.9438,0 1.9511,0.0033 1.9511,0.8847 0,3.3195 -1.4803,6.7417 -4.1605,9.6188 -2.2448,2.4096 -4.6814,3.8346 -8.7301,5.1056 -1.4683,0.461 -2.6696,0.9313 -2.6696,1.0452 0,0.1139 -0.4119,2.4904 -0.9154,5.2812 -0.5034,2.7908 -0.9153,5.996 -0.9153,7.1228 0,1.1268 -0.0897,3.7389 -0.1994,5.8046 l -0.1994,3.7559 H 37.166 35.7991 Z M 28.253,32.9995 c 0,-0.8782 -1.7539,-3.6218 -3.5428,-5.5421 -2.0064,-2.1536 -4.1279,-3.5018 -6.1442,-3.9044 -1.2766,-0.2549 -1.296,0.2131 -0.1079,2.5964 1.4301,2.8688 4.3929,5.2805 8.2606,6.7239 1.3554,0.5059 1.5343,0.5206 1.5343,0.1262 z m 17.5495,-0.8986 c 3.2797,-1.5104 7.1638,-5.9216 7.1638,-8.1359 0,-0.4927 -0.1519,-0.5503 -0.9916,-0.3758 -3.5446,0.7363 -8.4738,5.4155 -9.53,9.0464 -0.188,0.6464 -0.1313,0.6902 0.6577,0.5092 0.4748,-0.1089 1.6899,-0.5787 2.7001,-1.0439 z M 40.5804,56.643 c 1.0618,-11.8649 9.2365,-20.5437 19.3504,-20.5437 2.5502,0 2.6757,0.1745 2.2139,3.0785 -0.9661,6.0748 -5.519,10.0536 -14.5827,12.7438 -3.0539,0.9065 -3.4369,1.0984 -3.5682,1.7879 -0.081,0.4248 -0.3044,1.7803 -0.4966,3.0122 l -0.3493,2.2399 h -1.3875 -1.3875 z m 8.6509,-8.1552 c 4.2622,-1.5023 7.7408,-4.1867 9.2136,-7.1101 1.1635,-2.3094 0.7023,-2.6296 -2.4485,-1.7 -4.3381,1.2799 -8.7012,4.945 -10.1943,8.5635 -0.463,1.1222 -0.459,1.1429 0.219,1.1388 0.3798,-0.0025 1.8244,-0.4038 3.2102,-0.8922 z M 33.7629,26.3514 C 31.217,23.5546 29.9867,19.174 30.6072,15.115 31.0127,12.4622 32.3593,9.44046 33.911,7.70118 l 1.1498,-1.28866 1.0371,1.01782 c 1.3149,1.29047 2.9855,4.65246 3.4591,6.96126 0.4592,2.2385 0.2118,5.217 -0.6431,7.7429 -0.7249,2.1416 -2.2195,4.5662 -3.2168,5.2183 -0.5891,0.3851 -0.746,0.3039 -1.9342,-1.0014 z m 2.7566,-5.8062 c 0.5532,-2.0782 0.2146,-6.5902 -0.6164,-8.213 l -0.7006,-1.3681 -0.5575,0.7484 c -1.575,2.1144 -1.7997,6.8016 -0.4667,9.7366 l 0.8306,1.8287 0.5844,-0.7244 c 0.3214,-0.3984 0.7382,-1.3021 0.9262,-2.0082 z"
         fill="#05d505"
         id="path1" /></g></g></svg>
