<?xml version="1.0" encoding="UTF-8" standalone="no"?>
<!-- Created with Inkscape (http://www.inkscape.org/) -->

<svg
   width="84.281731mm"
   height="47.555569mm"
   viewBox="0 0 84.281731 47.555569"
   version="1.1"
   id="svg1"
   xml:space="preserve"
   xmlns="http://www.w3.org/2000/svg"
   xmlns:svg="http://www.w3.org/2000/svg"><defs
     id="defs1"><filter
       id="filter0_dd_3_27"
       x="0.1"
       y="0.1"
       width="1136.8"
       height="603.79999"
       filterUnits="userSpaceOnUse"
       color-interpolation-filters="sRGB"><feFlood
         flood-opacity="0"
         result="BackgroundImageFix"
         id="feFlood5" /><feColorMatrix
         in="SourceAlpha"
         type="matrix"
         values="0 0 0 0 0 0 0 0 0 0 0 0 0 0 0 0 0 0 127 0"
         result="hardAlpha"
         id="feColorMatrix5" /><feOffset
         dy="4"
         id="feOffset5" /><feGaussianBlur
         stdDeviation="2"
         id="feGaussianBlur5" /><feComposite
         in2="hardAlpha"
         operator="out"
         id="feComposite5" /><feColorMatrix
         type="matrix"
         values="0 0 0 0 0 0 0 0 0 0 0 0 0 0 0 0 0 0 0.25 0"
         id="feColorMatrix6" /><feBlend
         mode="normal"
         in2="BackgroundImageFix"
         result="effect1_dropShadow_3_27"
         id="feBlend6" /><feColorMatrix
         in="SourceAlpha"
         type="matrix"
         values="0 0 0 0 0 0 0 0 0 0 0 0 0 0 0 0 0 0 127 0"
         result="hardAlpha"
         id="feColorMatrix7" /><feMorphology
         radius="5"
         operator="dilate"
         in="SourceAlpha"
         result="effect2_dropShadow_3_27"
         id="feMorphology7" /><feOffset
         id="feOffset7" /><feGaussianBlur
         stdDeviation="7.95"
         id="feGaussianBlur7" /><feComposite
         in2="hardAlpha"
         operator="out"
         id="feComposite7" /><feColorMatrix
         type="matrix"
         values="0 0 0 0 0 0 0 0 0 0 0 0 0 0 0 0 0 0 0.25 0"
         id="feColorMatrix8" /><feBlend
         mode="normal"
         in2="effect1_dropShadow_3_27"
         result="effect2_dropShadow_3_27"
         id="feBlend8" /><feBlend
         mode="normal"
         in="SourceGraphic"
         in2="effect2_dropShadow_3_27"
         result="shape"
         id="feBlend9" /></filter><clipPath
       id="clip0_3_27"><rect
         x="21"
         y="21"
         width="1095"
         height="562"
         rx="60"
         fill="#ffffff"
         id="rect9" /></clipPath></defs><g
     id="layer1"
     transform="translate(-2.841658,-1.9010167)"><g
       id="g3"
       transform="matrix(0.84428779,0,0,0.95994436,0.16325321,-0.55880993)"><g
         clip-path="url(#clip0_3_27)"
         id="g4"
         style="fill:none;filter:url(#filter0_dd_3_27)"
         transform="matrix(0.09116514,0,0,0.08814933,1.2579155,0.71133195)"><rect
           x="21"
           y="21"
           width="1095"
           height="562"
           rx="206.25021"
           fill="#007aff"
           id="rect1"
           ry="187.60683"
           style="stroke:#007aff;stroke-width:55.7758;stroke-dasharray:none;stroke-opacity:1" /><path
           fill-rule="evenodd"
           clip-rule="evenodd"
           d="M 91.8751,519.169 V 418.918 h 42.1219 c 8.579,0 15.452,1.024 20.626,3.039 5.198,2.028 9.257,5.153 12.184,9.38 2.921,4.2 4.414,8.614 4.414,13.239 0,4.269 -1.311,8.304 -3.914,12.088 -2.594,3.776 -6.548,6.838 -11.792,9.173 6.787,1.768 11.992,4.808 15.658,9.081 3.657,4.29 5.486,9.357 5.486,15.191 0,4.694 -1.132,9.059 -3.341,13.091 -2.229,4.043 -4.968,7.147 -8.241,9.34 -3.263,2.191 -7.371,3.827 -12.28,4.942 -4.91,1.127 -10.959,1.687 -18.108,1.687 z M 106.74,461.048 h 24.281 c 6.558,0 11.295,-0.392 14.167,-1.168 3.761,-1.001 6.614,-2.658 8.517,-4.993 1.915,-2.33 2.871,-5.255 2.871,-8.75 0,-3.32 -0.889,-6.258 -2.659,-8.78 -1.81,-2.543 -4.365,-4.273 -7.658,-5.201 -3.323,-0.93 -9.017,-1.407 -17.086,-1.407 H 106.74 Z m 0,46.289 h 27.949 c 4.802,0 8.174,-0.166 10.105,-0.464 3.426,-0.57 6.279,-1.479 8.578,-2.762 2.298,-1.261 4.181,-3.122 5.666,-5.554 1.473,-2.449 2.221,-5.251 2.221,-8.448 0,-3.733 -1.065,-6.982 -3.208,-9.754 -2.153,-2.759 -5.131,-4.694 -8.939,-5.812 -3.801,-1.093 -9.284,-1.663 -16.416,-1.663 H 106.74 Z m 90.592,11.832 V 418.918 h 49.771 c 10.003,0 17.613,0.91 22.811,2.708 5.194,1.802 9.349,4.975 12.49,9.528 3.099,4.57 4.66,9.616 4.66,15.118 0,7.123 -2.577,13.101 -7.743,17.973 -5.151,4.881 -13.121,7.985 -23.88,9.316 3.933,1.675 6.919,3.341 8.957,4.996 4.328,3.546 8.442,8.005 12.329,13.33 l 19.526,27.282 H 277.57 l -14.847,-20.871 c -4.336,-5.996 -7.924,-10.621 -10.737,-13.794 -2.807,-3.197 -5.305,-5.441 -7.522,-6.692 -2.234,-1.291 -4.474,-2.171 -6.778,-2.687 -1.705,-0.301 -4.451,-0.468 -8.281,-0.468 h -17.228 v 44.512 z m 14.845,-56 h 31.932 c 6.777,0 12.106,-0.62 15.926,-1.882 3.848,-1.26 6.739,-3.267 8.729,-6.03 1.979,-2.75 2.976,-5.739 2.976,-8.985 0,-4.736 -1.913,-8.634 -5.781,-11.687 -3.836,-3.06 -9.917,-4.579 -18.263,-4.579 h -35.519 z m 93.619,7.165 c 0,-16.637 4.997,-29.656 14.997,-39.07 10.003,-9.4 22.915,-14.115 38.756,-14.115 10.356,0 19.708,2.214 28.024,6.628 8.3,4.427 14.654,10.592 19.029,18.504 4.363,7.891 6.526,16.876 6.526,26.897 0,10.175 -2.268,19.276 -6.881,27.279 -4.594,8.027 -11.102,14.098 -19.526,18.234 -8.433,4.126 -17.503,6.183 -27.248,6.183 -10.586,0 -20.016,-2.265 -28.332,-6.845 -8.338,-4.549 -14.636,-10.778 -18.914,-18.666 -4.287,-7.869 -6.431,-16.228 -6.431,-25.029 z m 15.306,0.221 c 0,12.087 3.636,21.581 10.9,28.542 7.296,6.96 16.416,10.433 27.394,10.433 11.188,0 20.385,-3.507 27.593,-10.526 7.218,-7.025 10.855,-16.991 10.855,-29.899 0,-8.15 -1.58,-15.263 -4.652,-21.356 -3.081,-6.089 -7.609,-10.805 -13.543,-14.168 -5.963,-3.337 -12.616,-5.024 -20.016,-5.024 -10.536,0 -19.581,3.226 -27.154,9.69 -7.591,6.441 -11.377,17.228 -11.377,32.308 z m 98.88,48.614 43.119,-100.251 h 15.995 l 45.95,100.251 h -16.94 l -13.084,-30.362 h -46.946 l -12.311,30.362 z M 452.363,478 h 38.084 l -11.745,-27.756 c -3.551,-8.431 -6.222,-15.358 -7.943,-20.799 -1.437,6.445 -3.446,12.814 -6.068,19.163 z m 84.553,41.169 V 418.918 h 38.649 c 8.729,0 15.392,0.497 20.006,1.449 6.422,1.313 11.906,3.712 16.462,7.165 5.904,4.478 10.336,10.178 13.267,17.138 2.958,6.947 4.429,14.89 4.429,23.826 0,7.612 -1.003,14.354 -3.014,20.239 -1.98,5.882 -4.518,10.754 -7.658,14.61 -3.11,3.848 -6.509,6.887 -10.223,9.081 -3.683,2.211 -8.153,3.899 -13.371,5.035 -5.262,1.148 -11.265,1.708 -18.041,1.708 z m 14.845,-11.832 h 23.966 c 7.391,0 13.227,-0.609 17.432,-1.85 4.201,-1.232 7.55,-2.959 10.058,-5.204 3.533,-3.121 6.281,-7.372 8.233,-12.667 1.961,-5.327 2.955,-11.747 2.955,-19.328 0,-10.484 -1.931,-18.533 -5.78,-24.157 -3.866,-5.647 -8.548,-9.41 -14.06,-11.323 -3.963,-1.377 -10.394,-2.059 -19.21,-2.059 h -23.594 z m 178.439,-23.32 14.883,3.362 c -3.118,10.88 -8.738,19.183 -16.816,24.923 -8.097,5.72 -17.973,8.572 -29.688,8.572 -12.101,0 -21.918,-2.193 -29.509,-6.586 -7.573,-4.405 -13.345,-10.777 -17.296,-19.112 -3.954,-8.355 -5.926,-17.321 -5.926,-26.888 0,-10.434 2.221,-19.535 6.691,-27.312 4.469,-7.777 10.815,-13.682 19.064,-17.714 8.243,-4.034 17.308,-6.049 27.213,-6.049 11.236,0 20.675,2.542 28.331,7.662 7.668,5.109 12.989,12.274 16.003,21.543 l -14.615,3.078 c -2.621,-7.309 -6.385,-12.606 -11.35,-15.945 -4.93,-3.329 -11.152,-4.994 -18.675,-4.994 -8.634,0 -15.82,1.849 -21.621,5.531 -5.799,3.716 -9.877,8.668 -12.203,14.893 -2.357,6.216 -3.533,12.627 -3.533,19.235 0,8.542 1.388,15.967 4.152,22.338 2.807,6.349 7.114,11.106 12.999,14.261 5.879,3.154 12.224,4.715 19.077,4.715 8.307,0 15.343,-2.15 21.114,-6.423 5.78,-4.291 9.667,-10.66 11.705,-19.09 z m 20.808,35.152 43.12,-100.251 h 15.995 l 45.95,100.251 h -16.94 l -13.085,-30.362 h -46.945 l -12.31,30.362 z M 783.391,478 h 38.084 l -11.747,-27.756 c -3.55,-8.431 -6.221,-15.358 -7.942,-20.799 -1.437,6.445 -3.445,12.814 -6.07,19.163 z m 79.5,8.954 14.009,-1.097 c 0.664,5.026 2.202,9.133 4.633,12.347 2.434,3.227 6.193,5.813 11.296,7.799 5.093,1.984 10.836,2.967 17.218,2.967 5.675,0 10.662,-0.753 15.009,-2.242 4.324,-1.521 7.569,-3.567 9.685,-6.185 2.125,-2.637 3.19,-5.481 3.19,-8.594 0,-3.142 -1.015,-5.874 -3.085,-8.231 -2.039,-2.359 -5.408,-4.323 -10.087,-5.906 -3.035,-1.054 -9.667,-2.687 -19.996,-4.901 -10.287,-2.224 -17.533,-4.303 -21.66,-6.255 -5.371,-2.505 -9.362,-5.629 -12.002,-9.341 -2.612,-3.712 -3.914,-7.87 -3.914,-12.492 0,-5.035 1.588,-9.771 4.806,-14.166 3.205,-4.405 7.924,-7.748 14.077,-10.031 6.204,-2.266 13.058,-3.413 20.609,-3.413 8.337,0 15.65,1.198 22.031,3.597 6.348,2.38 11.229,5.905 14.665,10.549 3.39,4.643 5.246,9.918 5.503,15.802 l -14.242,0.961 c -0.783,-6.33 -3.368,-11.138 -7.791,-14.353 -4.411,-3.248 -10.92,-4.86 -19.544,-4.86 -8.988,0 -15.524,1.467 -19.651,4.414 -4.115,2.938 -6.173,6.483 -6.173,10.62 0,3.622 1.475,6.578 4.366,8.895 2.871,2.326 10.326,4.715 22.396,7.135 12.079,2.452 20.358,4.583 24.855,6.403 6.54,2.699 11.364,6.11 14.482,10.217 3.113,4.137 4.651,8.894 4.651,14.26 0,5.348 -1.703,10.362 -5.129,15.077 -3.418,4.718 -8.338,8.388 -14.738,11.024 -6.393,2.607 -13.603,3.92 -21.603,3.92 -10.176,0 -18.693,-1.313 -25.537,-3.97 -6.883,-2.638 -12.261,-6.608 -16.175,-11.923 -3.906,-5.306 -5.964,-11.326 -6.154,-18.027 z m 138.219,32.215 v -88.42 h -36.983 v -11.831 h 88.963 v 11.831 h -37.13 v 88.42 z"
           fill="#ffffff"
           id="path1-8" /><path
           fill-rule="evenodd"
           clip-rule="evenodd"
           d="M 184.936,98.7327 261.653,323.14 342.452,98.7327 h 95.667 V 386.362 H 375.573 V 170.369 l -80.49,215.993 H 227.607 L 151.582,170.369 V 386.362 H 89.0378 V 98.7327 Z M 614.124,215.469 H 765.558 V 386.362 H 627.912 c -23.954,0 -42.903,-1.653 -56.768,-4.962 -13.942,-3.309 -26.65,-9.063 -38.051,-17.406 -32.353,-23.305 -48.527,-63.367 -48.527,-120.262 0,-37.4 7.702,-68.397 23.031,-92.926 11.401,-18.123 26.959,-31.356 46.601,-39.63 19.642,-8.271 45.213,-12.4433 76.873,-12.4433 H 765.558 V 149.944 H 638.464 c -27.345,0 -47.291,5.61 -59.771,16.831 -14.559,13.233 -21.877,36.897 -21.877,71.061 0,17.551 1.925,33.376 5.779,47.471 3.771,14.097 9.012,24.597 15.634,31.504 6.009,6.329 14.173,10.933 24.418,13.881 10.166,2.948 22.877,4.458 38.13,4.458 h 59.309 V 266.68 H 614.124 Z M 1051.86,98.7327 v 51.2113 h -85.496 c -22.412,0 -38.742,1.437 -48.912,4.315 -10.089,2.878 -18.562,8.488 -25.342,16.759 -4.543,5.61 -7.625,11.292 -9.241,17.047 -1.697,5.755 -3.081,15.607 -4.316,29.488 h 173.307 v 51.212 H 878.553 c 2.237,24.884 10.016,42.149 23.264,51.856 13.248,9.712 35.739,14.529 67.473,14.529 h 82.57 v 51.212 h -85.496 c -23.184,0 -43.594,-1.365 -61.157,-4.028 -27.731,-4.17 -49.76,-15.463 -66.166,-33.875 C 815.7,321.99 804.072,286.171 804.072,241 c 0,-50.202 16.483,-89.184 49.448,-116.95 11.248,-9.42 23.263,-16.038 36.048,-19.707 12.866,-3.74 29.963,-5.6103 51.53,-5.6103 z"
           fill="#ffffff"
           id="path2" /><path
           fill-rule="evenodd"
           clip-rule="evenodd"
           d="M 1060.33,21 H 76.6688 C 46.0985,21 20.9999,45.4713 20.9999,75.3841 V 528.612 c 0,29.913 25.0986,54.388 55.6689,54.388 H 1060.33 c 30.57,0 55.67,-24.475 55.67,-54.388 V 75.3841 C 1116,45.4713 1090.9,21 1060.33,21 Z m -5.75,27.1926 H 82.415 c -18.4972,0 -33.5784,14.7609 -33.5784,32.8087 V 522.996 c 0,18.048 15.0812,32.809 33.5784,32.809 h 972.165 c 18.5,0 33.58,-14.761 33.58,-32.809 V 81.0013 c 0,-18.0478 -15.08,-32.8087 -33.58,-32.8087 z"
           fill="#ffffff"
           id="path3" /><path
           d="M -5139.03,-728.11 H 1747.02 V 2502.81 H -5139.03 Z"
           stroke="#000000"
           stroke-width="0.755865"
           id="path4" /></g></g></g></svg>
