<svg width="12" height="14" viewBox="0 0 12 14" fill="none" xmlns="http://www.w3.org/2000/svg">
<g clip-path="url(#clip0_10_30)">
<path fill-rule="evenodd" clip-rule="evenodd" d="M0 7.93703H3.21172V14H0V7.93703ZM4.37951 3.96852H7.61997V14H4.37951V3.96852ZM8.78828 0H12V14H8.78828V0Z" fill="#808080"/>
<path fill-rule="evenodd" clip-rule="evenodd" d="M-38.1564 -51.2213H27.9632V-46.3484H-37.5431C-37.8806 -46.3484 -38.1564 -46.0746 -38.1564 -45.7394V94.3534C-38.1564 94.6888 -37.8806 94.9626 -37.5431 94.9626H186.919C187.257 94.9626 187.533 94.6888 187.533 94.3534V-45.7394C187.533 -46.0746 187.257 -46.3484 186.919 -46.3484H121.413V-51.2213H187.533C190.231 -51.2213 192.439 -49.0285 192.439 -46.3484V94.9626C192.439 97.6425 190.231 99.8353 187.533 99.8353H-38.1564C-40.8549 99.8353 -43.0627 97.6425 -43.0627 94.9626V-46.3484C-43.0627 -49.0285 -40.8549 -51.2213 -38.1564 -51.2213Z" fill="#202020"/>
<path d="M-229.943 -262.986H757.644V198.468H-229.943V-262.986Z" stroke="#202020" stroke-width="0.755865"/>
</g>
<defs>
<clipPath id="clip0_10_30">
<rect width="12" height="14" fill="white"/>
</clipPath>
</defs>
</svg>
