<svg width="21" height="38" viewBox="0 0 21 38" fill="none" xmlns="http://www.w3.org/2000/svg">
<g clip-path="url(#clip0_10_40)">
<path fill-rule="evenodd" clip-rule="evenodd" d="M10.4995 2.43727C13.0764 2.43727 15.1666 4.61881 15.1666 7.30987V14.4019H5.83301V7.30987C5.83301 4.61881 7.92321 2.43727 10.4995 2.43727ZM17.4999 7.30987V21.4944C17.4999 25.5313 14.3659 28.8041 10.4995 28.8041C6.63357 28.8041 3.49961 25.5313 3.49961 21.4944V7.30987C3.49961 3.27275 6.63357 0 10.4995 0C14.3659 0 17.4999 3.27275 17.4999 7.30987ZM21 21.4944C21 27.096 16.9772 31.7165 11.7824 32.377V35.3194H17.4999V38H3.49961V35.3194H9.21605V32.377C4.02291 31.7158 0 27.096 0 21.4944H2.33324C2.33324 26.2041 5.99 30.0221 10.4995 30.0221C15.0101 30.0221 18.6662 26.2041 18.6662 21.4944H21Z" fill="#808080"/>
<path fill-rule="evenodd" clip-rule="evenodd" d="M-98.8526 -28.1674H-74.7461V-23.2023H-98.2581C-98.5854 -23.2023 -98.8526 -22.9233 -98.8526 -22.5817V120.162C-98.8526 120.503 -98.5854 120.782 -98.2581 120.782H52.6954C53.0224 120.782 53.2896 120.503 53.2896 120.162V-22.5817C53.2896 -22.9233 53.0224 -23.2023 52.6954 -23.2023H29.1827V-28.1674H53.2896C55.9045 -28.1674 58.044 -25.9331 58.044 -23.2023V120.782C58.044 123.513 55.9045 125.747 53.2896 125.747H-98.8526C-101.467 125.747 -103.607 123.513 -103.607 120.782V-23.2023C-103.607 -25.9331 -101.467 -28.1674 -98.8526 -28.1674Z" fill="#202020"/>
<path d="M-550.953 -243.938H406.07V226.246H-550.953V-243.938Z" stroke="#202020" stroke-width="0.755865"/>
</g>
<defs>
<clipPath id="clip0_10_40">
<rect width="21" height="38" fill="white"/>
</clipPath>
</defs>
</svg>
