<svg width="25" height="26" viewBox="0 0 25 26" fill="none" xmlns="http://www.w3.org/2000/svg">
<g clip-path="url(#clip0_10_26)">
<path fill-rule="evenodd" clip-rule="evenodd" d="M0 19.9151H3.18849V26H0V19.9151ZM4.34783 15.9322H7.56483V26H4.34783V15.9322ZM8.72469 11.9493H11.9132V26H8.72469V11.9493ZM13.0868 7.96575H16.2753V26H13.0868V7.96575ZM17.4494 3.98288H20.6374V26H17.4494V3.98288ZM21.8115 0H25V26H21.8115V0Z" fill="#808080"/>
<path fill-rule="evenodd" clip-rule="evenodd" d="M-99.5279 -39.4166H-33.8868V-34.5261H-98.9191C-99.2542 -34.5261 -99.5279 -34.2512 -99.5279 -33.9148V106.685C-99.5279 107.022 -99.2542 107.296 -98.9191 107.296H123.919C124.254 107.296 124.528 107.022 124.528 106.685V-33.9148C124.528 -34.2512 124.254 -34.5261 123.919 -34.5261H58.887V-39.4166H124.528C127.207 -39.4166 129.399 -37.2159 129.399 -34.5261V107.296C129.399 109.986 127.207 112.187 124.528 112.187H-99.5279C-102.207 112.187 -104.399 109.986 -104.399 107.296V-34.5261C-104.399 -37.2159 -102.207 -39.4166 -99.5279 -39.4166Z" fill="#202020"/>
<path d="M-289.927 -251.947H690.514V211.176H-289.927V-251.947Z" stroke="#202020" stroke-width="0.755865"/>
</g>
<defs>
<clipPath id="clip0_10_26">
<rect width="25" height="26" fill="white"/>
</clipPath>
</defs>
</svg>
