<svg width="43" height="43" viewBox="0 0 43 43" fill="none" xmlns="http://www.w3.org/2000/svg">
<g clip-path="url(#clip0_10_71)">
<path fill-rule="evenodd" clip-rule="evenodd" d="M21.5 0C33.3747 0 42.9999 9.62576 42.9999 21.5011C42.9999 33.3752 33.3747 43 21.5 43C9.62593 43 0 33.3752 0 21.5011C0 9.62576 9.62593 0 21.5 0ZM21.5 8.14408C23.6701 8.14408 25.4305 9.90392 25.4305 12.0747V14.5733L22.2112 17.7928H17.5694V12.0747C17.5694 9.90392 19.33 8.14408 21.5 8.14408ZM13.2658 26.7388L13.2563 26.7135L13.2488 26.6925L13.2298 26.6451L13.2127 26.5975L13.1957 26.5507L13.1862 26.5268L13.1786 26.5033L13.1615 26.4553L13.1464 26.4077L13.1293 26.3603L13.1217 26.3375L13.1122 26.3123L13.0652 26.1669L13.0595 26.1466L13.05 26.1189L13.0068 25.9729L13.0011 25.9532L12.9916 25.9236L12.9509 25.7764L12.9471 25.7575L12.9133 25.6272L12.9019 25.5774L12.8982 25.5603L12.8906 25.5267L12.8682 25.427L12.8568 25.3771L12.853 25.3619L12.8454 25.3271L12.8252 25.2262L12.8157 25.1757L12.8138 25.1625L12.7796 24.9727L12.7777 24.9613L12.7556 24.8194L12.748 24.769L12.7468 24.7576L12.7412 24.7163L12.7355 24.6651L12.7279 24.613L12.7222 24.5619L12.7214 24.5525L12.7157 24.5092L12.7101 24.4571L12.6987 24.3532L12.6981 24.3456L12.6943 24.2999L12.6905 24.2476L12.6867 24.1954L12.6829 24.1431L12.6822 24.1374L12.6803 24.0906L12.6746 23.9853L12.6708 23.9326V23.9288L12.6632 23.721V23.7191L12.6613 23.5082H14.6256L14.6275 23.6698L14.628 23.6869V23.6963L14.6337 23.8304L14.6349 23.8573L14.6354 23.863L14.6373 23.911L14.639 23.9381L14.6447 24.0168L14.6466 24.0384V24.0441L14.6485 24.0705L14.6542 24.1499L14.658 24.1751L14.6599 24.2015L14.6612 24.2129L14.6629 24.228L14.6648 24.2538L14.6686 24.2796L14.6724 24.3067L14.6762 24.3319L14.68 24.3583L14.6819 24.3841L14.6857 24.4099L14.6895 24.4364L14.6933 24.4622L14.6971 24.488L14.7008 24.5138L14.7046 24.5398L14.7065 24.5568L14.7084 24.5663L14.7122 24.5921L14.716 24.6173L14.7198 24.6425L14.7236 24.6691L14.7274 24.6949L14.7331 24.7207L14.7336 24.7282L14.7374 24.7472L14.7412 24.7724L14.745 24.7982L14.7507 24.8242L14.7564 24.85L14.7621 24.8746L14.7716 24.9256L14.7773 24.9509L14.783 24.9761L14.7886 25.0013L14.7943 25.0271L14.8 25.0523L14.8019 25.0637L14.8057 25.0769L14.8114 25.1022L14.8171 25.1268L14.8228 25.152L14.8285 25.1767L15.6662 24.3393L15.6645 24.3261L15.6626 24.3147L15.6609 24.3014L15.6597 24.2881L15.6578 24.2749L15.6559 24.2616L15.6537 24.2364L15.6523 24.2231L15.6504 24.2117L15.6491 24.1985L15.648 24.1852L15.6468 24.1719L15.6449 24.1586L15.6432 24.1454L15.6419 24.1321L15.6408 24.1188L15.6402 24.1093V24.1055L15.6383 24.0923L15.6366 24.079L15.6355 24.0657L15.6347 24.0524L15.6336 24.0392L15.6324 24.0259L15.6311 24.0126L15.63 23.9994L15.6288 23.9861L15.6283 23.9728L15.6264 23.9595L15.6258 23.9557L15.6252 23.9463L15.6247 23.933L15.6239 23.9197L15.6233 23.9064L15.6222 23.8932L15.6216 23.8799L15.6203 23.8666L15.6192 23.8533L15.6186 23.8401L15.618 23.8268L15.6173 23.8135L15.6161 23.7877V23.7745L15.6156 23.7612L15.6144 23.7479L15.6137 23.7346L15.6131 23.7214L15.6125 23.7081L15.612 23.6948V23.6816L15.6114 23.6683L15.6108 23.655V23.6493V23.6398L15.6101 23.6266V23.6133V23.6L15.6095 23.5867V23.5735V23.5602L15.6089 23.5333V23.52V23.5067V23.4935V12.0567C15.6089 8.80054 18.2476 6.16068 21.503 6.16068C24.7585 6.16068 27.3978 8.80054 27.3978 12.0567V12.5906L32.7314 7.25743C29.6435 4.81705 25.7442 3.3606 21.503 3.3606C11.4952 3.3606 3.38164 11.474 3.38164 21.482C3.38164 25.723 4.83828 29.623 7.27922 32.7104L13.2658 26.7388ZM16.5399 30.8309C16.4047 30.7403 16.2732 30.6447 16.1435 30.5455L16.0661 30.4862L15.9891 30.4255L15.9134 30.3643L15.8378 30.3024L15.7638 30.2399L15.7381 30.2182L15.6893 30.1761L15.6161 30.1113L15.5903 30.0891L15.5435 30.0465L15.4726 29.9797L15.4011 29.9131L15.3315 29.8453L15.2623 29.7774L15.1927 29.7078L15.1662 29.6807L15.1248 29.6374L15.0575 29.5677L14.9921 29.4956L14.9259 29.4236L9.37904 34.9706C12.59 37.8627 16.8384 39.6214 21.5 39.6214C31.5085 39.6214 39.6213 31.509 39.6213 21.5C39.6213 16.839 37.862 12.5901 34.9706 9.37887L27.3948 16.9543V23.5115C27.3948 26.767 24.7555 29.4055 21.5 29.4055H21.416L21.3475 29.4044L21.3323 29.4038L21.2487 29.4L21.1966 29.3981L21.1653 29.397L21.0824 29.3913L21.0464 29.3896L21.0001 29.3858C20.9173 29.3782 20.8355 29.3707 20.7544 29.3598L20.7487 29.3593L20.6723 29.3498L20.6021 29.3384L20.5907 29.3373L20.4555 29.3145L20.4303 29.3107L20.3505 29.2956L20.3109 29.288L20.2712 29.2804L20.192 29.2614L20.1673 29.2557L20.1139 29.2425L20.0357 29.2231L20.0263 29.2212L20.0187 29.2193L19.8865 29.1839L19.8827 29.1827L19.8052 29.1598L19.7481 29.1427L19.7291 29.137L19.6521 29.1124L19.6102 29.0972L19.577 29.0858L19.5014 29.0593L19.4739 29.0498L19.4276 29.0328L19.3525 29.0045L19.3393 28.9988L19.2786 28.9749L19.2065 28.9448L19.1339 28.9135L19.0744 28.8871L19.0611 28.8814L18.9898 28.8479L18.9447 28.8274L18.9189 28.8141L18.848 28.7787L18.8173 28.7635L18.7776 28.7432L18.7075 28.7064L18.6904 28.6969L18.6383 28.6681L18.5704 28.6291L18.5647 28.6272L18.5012 28.5894L18.4428 28.5551L18.4352 28.5494L18.3679 28.5085L18.3229 28.4791L18.3024 28.4658L18.2363 28.4226L18.2046 28.4015L18.1722 28.3793L18.1079 28.335L18.088 28.3198L18.0436 28.2879L17.981 28.2422L17.9735 28.2366L17.9188 28.1945L17.8612 28.1499L17.8574 28.1461L17.796 28.0976L17.7516 28.061L17.7364 28.0477L17.6769 27.9978L17.6433 27.969L17.6174 27.9468L17.5591 27.895L17.5375 27.8753L17.5015 27.8423L17.4444 27.7889L17.4349 27.7794L17.3894 27.7356L17.3335 27.6815L17.2789 27.625L17.2357 27.5799L17.2243 27.5685L17.1708 27.5115L17.1384 27.4754L17.1179 27.4532L17.0663 27.3956L17.0447 27.3704L17.0151 27.3361L16.3185 28.0329L16.3778 28.1008L16.4097 28.1362L16.4385 28.1668L16.4997 28.2322L16.6848 28.4209L16.6886 28.4247L16.7529 28.4867L16.7567 28.4904L16.8191 28.5487C16.8852 28.6105 16.9512 28.6694 17.0204 28.7282L17.0889 28.7864L17.1573 28.8435L17.2275 28.9L17.2552 28.9222L17.299 28.9552L17.3705 29.01L17.4425 29.064L17.5148 29.1162L17.7387 29.2688L17.7946 29.3054L17.8144 29.3187L17.8908 29.3667L17.9676 29.4129L18.0463 29.4592L18.1225 29.5036L18.2031 29.5481C18.2782 29.5895 18.3555 29.6304 18.4331 29.6687L18.4445 29.6744L18.5201 29.7116L18.5258 29.7135L18.6081 29.7525L18.6711 29.7814L18.691 29.7908L18.7738 29.8282L18.8243 29.8492L18.8578 29.8644L18.942 29.8985L18.9799 29.9137L19.0273 29.9327L19.1127 29.9651L19.1366 29.9727L19.1991 29.9954L19.2856 30.0256L19.2951 30.0294L19.373 30.0546L19.3806 30.0565L19.5139 30.0986L19.548 30.1081L19.6184 30.1286L19.6373 30.1342L19.7263 30.1583L19.8163 30.1811L19.9064 30.2035L19.9479 30.2129L19.9965 30.2243L20.0879 30.2442L20.1148 30.2499L20.1791 30.2632L20.2716 30.2803L20.283 30.2821L20.363 30.2954L20.4536 30.3106L20.483 30.3144L20.6243 30.3341L20.6433 30.3379L20.7868 30.3531L20.7982 30.3544L20.8312 30.3563L20.9256 30.3658L20.973 30.3696L20.9768 30.3701L21.1469 30.3815L21.2112 30.3853L21.3077 30.3891H21.3229L21.5005 30.391C25.2984 30.391 28.3779 27.3122 28.3779 23.5143H30.3426C30.3426 28.0323 26.9551 31.7576 22.5812 32.291V34.6635H27.3954V36.8251H15.6065V34.6635H20.4195V32.291L20.3173 32.2777L20.217 32.2625L20.1156 32.2473L20.0153 32.2303H20.0115L19.9142 32.2132L19.8144 32.1941L19.8107 32.1935L19.7974 32.1916L19.6154 32.1539L19.6116 32.1525L19.5173 32.1322L19.4195 32.1093L19.4138 32.1076L19.3218 32.0847L19.2251 32.0594L19.2175 32.0577L19.1286 32.0331L19.0325 32.006L19.0249 32.0041L18.9378 31.9783L18.8417 31.9487L18.8322 31.9449L18.748 31.918L18.6527 31.8861L18.6413 31.8823L18.559 31.8535L18.4651 31.8205L18.4538 31.8148L18.3728 31.7849L18.2797 31.7494L18.2664 31.7456L18.1877 31.7138L18.0963 31.6753L18.0812 31.6696L18.0055 31.6372L17.9143 31.5975L17.8248 31.5568L17.7353 31.5152L17.7182 31.5077L17.6456 31.4722L17.5572 31.4284L17.5402 31.4208L17.4693 31.3848L17.3822 31.3396L17.1245 31.1972L17.0392 31.1487L17.0195 31.1373L16.9552 31.0983L16.8718 31.0471L16.8507 31.0357L16.7887 30.9966L16.7059 30.9437L16.6842 30.9305L16.6241 30.8901L16.5399 30.8309Z" fill="#808080"/>
<path fill-rule="evenodd" clip-rule="evenodd" d="M-403.123 -29.5624H-216.016V-24.1875H-402.452C-402.821 -24.1875 -403.123 -23.8854 -403.123 -23.5157V66.5156C-403.123 66.8854 -402.821 67.1874 -402.452 67.1874H69.203C69.5728 67.1874 69.8748 66.8854 69.8748 66.5156V-23.5157C69.8748 -23.8854 69.5728 -24.1875 69.203 -24.1875H-117.233V-29.5624H69.8748C72.831 -29.5624 75.2497 -27.1436 75.2497 -24.1875V67.1874C75.2497 70.1436 72.831 72.5623 69.8748 72.5623H-403.123C-406.08 72.5623 -408.499 70.1436 -408.499 67.1874V-24.1875C-408.499 -27.1436 -406.08 -29.5624 -403.123 -29.5624Z" fill="#202020"/>
<path d="M-613.232 -128.777H468.699V380.235H-613.232V-128.777Z" stroke="#202020" stroke-width="0.755865"/>
</g>
<defs>
<clipPath id="clip0_10_71">
<rect width="43" height="43" fill="white"/>
</clipPath>
</defs>
</svg>
