<svg width="42" height="41" viewBox="0 0 42 41" fill="none" xmlns="http://www.w3.org/2000/svg">
<g clip-path="url(#clip0_10_52)">
<path fill-rule="evenodd" clip-rule="evenodd" d="M21.8951 22.6616L16.8527 13.8635C16.0563 12.4637 15.4268 11.7664 14.9644 11.7664C14.4929 11.7664 13.8629 12.4637 13.0622 13.8635L8.03224 22.6616C7.44535 23.6986 7.15 24.4719 7.15 24.9774C7.15 25.7199 7.81387 26.0905 9.138 26.0905H20.7905C22.1139 26.0905 22.7777 25.7199 22.7777 24.9774C22.7777 24.4719 22.4818 23.6986 21.8951 22.6616ZM24.3972 23.0328C24.7571 23.6761 24.9371 24.3381 24.9371 25.0083C24.9371 25.8319 24.6844 26.5292 24.1833 27.1056C23.6821 27.682 23.0601 27.969 22.324 27.969H7.6043C6.86764 27.969 6.24636 27.682 5.74449 27.1056C5.24338 26.5292 4.99063 25.8319 4.99063 25.0083C4.99063 24.3381 5.17059 23.6761 5.53128 23.0328L12.338 10.9885C12.9925 9.82614 13.8673 9.24456 14.9644 9.24456C16.0519 9.24456 16.9253 9.82614 17.59 10.9885L24.3972 23.0328ZM14.1336 14.4239H15.7443L15.2075 21.2899H14.6704L14.1336 14.4239ZM14.9398 21.7313C15.525 21.7313 16.0014 22.2286 16.0014 22.8398C16.0014 23.4547 15.525 23.9463 14.9398 23.9463C14.3523 23.9463 13.8759 23.4547 13.8759 22.8398C13.8759 22.2286 14.3523 21.7313 14.9398 21.7313ZM16.1012 22.7207C16.0973 22.7207 16.0954 22.734 16.0954 22.7523C16.0954 22.7729 16.0973 22.787 16.1012 22.787C16.105 22.787 16.1069 22.7736 16.1069 22.7523C16.1069 22.7351 16.1057 22.7207 16.1012 22.7207ZM3.3553 0L37.4963 19.028H42V21.972H37.4963L3.3553 41V21.972H0V19.028H3.3553V0Z" fill="#808080"/>
<path fill-rule="evenodd" clip-rule="evenodd" d="M-255.186 -30.8154H-66.6711V-25.4138H-254.509C-254.881 -25.4138 -255.186 -25.1102 -255.186 -24.7387V65.7392C-255.186 66.1108 -254.881 66.4144 -254.509 66.4144H220.693C221.066 66.4144 221.37 66.1108 221.37 65.7392V-24.7387C221.37 -25.1102 221.066 -25.4138 220.693 -25.4138H32.8549V-30.8154H221.37C224.349 -30.8154 226.786 -28.3846 226.786 -25.4138V66.4144C226.786 69.3852 224.349 71.816 221.37 71.816H-255.186C-258.164 71.816 -260.601 69.3852 -260.601 66.4144V-25.4138C-260.601 -28.3846 -258.164 -30.8154 -255.186 -30.8154Z" fill="#202020"/>
<path d="M-466.875 -130.522H623.194V381.015H-466.875V-130.522Z" stroke="#202020" stroke-width="0.755865"/>
</g>
<defs>
<clipPath id="clip0_10_52">
<rect width="42" height="41" fill="white"/>
</clipPath>
</defs>
</svg>
