<svg width="41" height="38" viewBox="0 0 41 38" fill="none" xmlns="http://www.w3.org/2000/svg">
<path fill-rule="evenodd" clip-rule="evenodd" d="M27.0257 16.5386V5.68604H30.1951V14.0158H35.4258V16.5386H27.0257ZM17.1798 16.5386V5.68604H20.3493V14.0158H25.5794V16.5386H17.1798ZM8.71171 11.2236H10.8976C11.412 11.2236 11.7537 11.1392 11.9195 10.9679C12.0879 10.7985 12.1718 10.4551 12.1718 9.93975V9.31329C12.1718 8.88296 12.0639 8.57434 11.8522 8.39244C11.6408 8.21111 11.2811 8.11863 10.7717 8.11863H8.71171V11.2236ZM5.57367 16.5386V5.68604H11.0641C12.6065 5.68604 13.7119 5.96677 14.3754 6.52728C15.0414 7.08856 15.3746 8.01249 15.3746 9.30156V10.0149C15.3746 11.3057 15.0414 12.2339 14.3735 12.7963C13.7056 13.3615 12.601 13.642 11.0641 13.642H8.71171V16.5386H5.57367ZM32.9034 22.2252H6.88493L9.42779 24.7845L9.30516 24.9068H7.67244V35.6243C7.67244 36.0577 8.02409 36.4123 8.45519 36.4123H32.12C32.5517 36.4123 32.9034 36.0577 32.9034 35.6243V22.2252ZM2.52274 0H38.4763C39.8646 0 41.0001 1.14313 41.0001 2.54008V19.6851C41.0001 21.0821 39.8646 22.2252 38.4763 22.2252H34.4803V35.5293C34.4803 36.8886 33.3771 38 32.0268 38H8.54954C7.19951 38 6.09607 36.8886 6.09607 35.5293V24.9068H4.46412L4.34264 24.7845L6.88493 22.2252H2.52274C1.13565 22.2252 0.00012207 21.0821 0.00012207 19.6851V2.54008C0.00012207 1.14313 1.13565 0 2.52274 0Z" fill="#808080"/>
</svg>
