<svg width="31" height="36" viewBox="0 0 31 36" fill="none" xmlns="http://www.w3.org/2000/svg">
<g clip-path="url(#clip0_10_34)">
<path fill-rule="evenodd" clip-rule="evenodd" d="M17.9306 0.679576V19.9913C17.1754 20.4298 16.3563 20.6711 15.4998 20.6711C14.6432 20.6711 13.8241 20.4298 13.0688 19.9913V0.679576C13.8241 0.241035 14.6432 0 15.4998 0C16.3563 0 17.1754 0.241035 17.9306 0.679576Z" fill="#808080"/>
<path fill-rule="evenodd" clip-rule="evenodd" d="M20.384 5.34158C26.5511 7.41811 31 13.3165 31 20.2714C31 28.9581 24.0604 36 15.5001 36C6.93965 36 0 28.9581 0 20.2714C0 13.3165 4.44891 7.41811 10.6162 5.34158C10.9372 5.89613 11.1212 6.54243 11.1212 7.23207C11.1212 8.18643 10.7685 9.05677 10.1887 9.71741C6.40953 11.6795 3.82314 15.668 3.82314 20.2714C3.82314 26.8158 9.05083 32.1205 15.5001 32.1205C21.9492 32.1205 27.177 26.8158 27.177 20.2714C27.177 15.668 24.5906 11.6795 20.8112 9.71741C20.2315 9.05677 19.8789 8.18643 19.8789 7.23207C19.8789 6.54243 20.0628 5.89613 20.384 5.34158Z" fill="#808080"/>
<path fill-rule="evenodd" clip-rule="evenodd" d="M-28.9573 -26.9485H-3.91157V-21.9359H-28.3398C-28.6797 -21.9359 -28.9573 -21.6542 -28.9573 -21.3094V122.801C-28.9573 123.146 -28.6797 123.428 -28.3398 123.428H128.496C128.836 123.428 129.113 123.146 129.113 122.801V-21.3094C129.113 -21.6542 128.836 -21.9359 128.496 -21.9359H104.067V-26.9485H129.113C131.83 -26.9485 134.053 -24.6929 134.053 -21.9359V123.428C134.053 126.184 131.83 128.44 129.113 128.44H-28.9573C-31.6741 128.44 -33.897 126.184 -33.897 123.428V-21.9359C-33.897 -24.6929 -31.6741 -26.9485 -28.9573 -26.9485Z" fill="#202020"/>
<path d="M-498.674 -244.786H495.64V229.901H-498.674V-244.786Z" stroke="#202020" stroke-width="0.755865"/>
</g>
<defs>
<clipPath id="clip0_10_34">
<rect width="31" height="36" fill="white"/>
</clipPath>
</defs>
</svg>
