<svg width="41" height="40" viewBox="0 0 41 40" fill="none" xmlns="http://www.w3.org/2000/svg">
<g clip-path="url(#clip0_10_44)">
<path fill-rule="evenodd" clip-rule="evenodd" d="M22.0007 10.5269L22.8348 16.105L20.551 18.1657L18.2656 16.105L19.0998 10.5284V3.0467C19.5367 2.77056 20.0292 2.61504 20.5499 2.61504C21.0707 2.61504 21.5636 2.77114 22.0007 3.04785V10.5269ZM20.0794 18.5908L17.5527 20.8711L18.1538 16.852L20.0794 18.5908ZM22.9471 16.8523L23.5488 20.8699L21.0219 18.5908L22.9471 16.8523ZM23.6958 21.8521L23.9934 23.8374L20.551 26.9422L17.1081 23.8368L17.4051 21.8521L20.551 19.0152L23.6958 21.8521ZM20.0794 27.3674L16.0326 31.0173L16.9958 24.5847L20.0794 27.3674ZM24.1061 24.5847L25.0683 31.0173L21.0219 27.3674L24.1061 24.5847ZM24.9601 31.7692L20.551 35.7465L16.1409 31.7692L20.551 27.7913L24.9601 31.7692ZM20.0794 36.1711L15.8356 40H14.6879L15.8346 32.3399L20.0794 36.1711ZM25.2663 32.3405L26.413 40H25.2663L21.0219 36.1711L25.2663 32.3405ZM24.3261 40H16.776L20.551 36.5957L24.3261 40ZM30.5507 0L30.5835 0.0222443L30.6153 0.0456391L30.6491 0.0678834L30.6815 0.0901277L30.7143 0.112947L30.7466 0.134808L30.7788 0.158778L30.7923 0.168366L30.8116 0.181789L30.8444 0.205759L30.8761 0.227428L30.9089 0.250248L30.9411 0.274218L30.9735 0.296462L31.0052 0.318707L31.0326 0.338266L31.0364 0.342102L31.0677 0.364921L31.0988 0.388316L31.1318 0.411711L31.1628 0.43453L31.1947 0.45735L31.2263 0.481895L31.257 0.504715L31.2667 0.50855L31.2896 0.525809L31.3207 0.549587L31.3514 0.572023L31.383 0.597527L31.4137 0.619196L31.4454 0.643166L31.4772 0.667136L31.4975 0.682477L31.509 0.690148L31.5388 0.712967L31.5692 0.737896L31.6011 0.761291L31.6316 0.784686L31.6634 0.80904L31.6941 0.832434L31.7246 0.85698L31.7285 0.858897L31.7553 0.879608L31.7865 0.905112L31.817 0.928507L31.8471 0.950751L31.8778 0.975296L31.9085 1.0008L31.9556 1.03781L31.9691 1.0474L31.999 1.07233L32.0291 1.09572L32.0592 1.11969L32.0899 1.14405L32.12 1.16917L32.1507 1.19237L32.2097 1.24146L32.2404 1.26639L32.27 1.29189L32.2989 1.31586L32.3284 1.33983L32.3585 1.36591L32.4755 1.46314L32.5062 1.48711L32.5351 1.51261L32.8252 1.2685C33.1133 1.03206 33.4099 0.800986 33.7129 0.575475L33.9416 0.406533L34.1729 0.238934L35.4711 1.16092L35.254 1.31644L35.0412 1.47349L34.8295 1.6338L34.6205 1.79469L34.4142 1.95673V1.95865L34.2113 2.12164L34.0116 2.28924L33.8142 2.45665L33.6922 2.56365L33.7096 2.58091L33.727 2.59817L33.7636 2.63307L33.781 2.65033L33.7984 2.66759L33.8157 2.68485L33.8331 2.7021L33.8505 2.71936L33.8543 2.7232L33.8678 2.73662L33.8852 2.75388L33.9026 2.77114L33.9199 2.7884L33.9373 2.80565L33.9547 2.82291L33.972 2.84017L33.9875 2.85973L34.0068 2.87507L34.0241 2.89233L34.0415 2.91151L34.0512 2.92109L34.0589 2.93068L34.0763 2.94794L34.0936 2.96328L34.1091 2.98246L34.1264 3.00163L34.1438 3.01698L34.1612 3.03423L34.1785 3.05341L34.194 3.07067L34.2113 3.08984L34.2287 3.1071L34.2422 3.12053L34.2461 3.12436L34.2615 3.14162L34.2789 3.1608L34.2962 3.17805L34.3136 3.19531L34.331 3.21257L34.3464 3.23175L34.3638 3.24709L34.3812 3.26626L34.3985 3.28352L34.414 3.3027L34.4313 3.31996L34.4474 3.33894L34.4628 3.3562L34.4802 3.37154L34.4956 3.3911L34.513 3.41028L34.5284 3.42754L34.5438 3.44479L34.5612 3.46205L34.5786 3.47931L34.594 3.49849L34.6262 3.53435L34.6436 3.5516L34.659 3.57174L34.6764 3.589L34.6919 3.60817L34.7092 3.62352L34.7247 3.64077L34.7401 3.65995L34.7575 3.67721L34.7729 3.69638L34.8731 3.60338L35.052 3.44537L35.2324 3.28602L35.4157 3.13107L35.6021 2.97517L35.7903 2.82291L35.9817 2.67123L36.1749 2.5207L36.3708 2.37285L36.5699 2.22558L36.7712 2.08252L38.0671 3.00604L37.8822 3.13874L37.6979 3.27355L37.5173 3.41104L37.339 3.54854L37.1618 3.68833L36.9883 3.83004L36.816 3.9731L36.6469 4.11596L36.3166 4.41012L36.1531 4.55797L35.9939 4.70754L35.8362 4.85961L35.7697 4.92653L35.787 4.94609L35.8005 4.96623L35.8306 5.00803L35.848 5.02931L35.8634 5.04945L35.8789 5.07112L35.8943 5.09279L35.9098 5.11235L35.9252 5.13363L35.9426 5.15434L35.9561 5.17544L35.9715 5.195L35.9734 5.19883L36.0018 5.23853L36.0153 5.25809L36.0308 5.27937L36.0443 5.30162L36.0597 5.32271L36.0751 5.34399L36.0886 5.36413L36.1041 5.38522L36.1195 5.40536L36.1253 5.41495L36.133 5.42837L36.1485 5.45004L36.162 5.47075L36.1774 5.49127L36.1909 5.51428L36.2064 5.53537L36.2199 5.55551L36.2334 5.5766L36.2488 5.59731L36.2926 5.66098L36.3042 5.68379L36.3196 5.7045L36.3332 5.72464L36.3486 5.74573L36.3621 5.76644L36.3756 5.78869L36.3891 5.80997L36.4026 5.83164L36.4181 5.85274L36.4308 5.8746L36.4443 5.89531L36.4578 5.91525L36.4713 5.93769L36.4848 5.96051L36.4983 5.98218L36.5119 6.00289L36.5254 6.0236L36.5408 6.04526L36.5543 6.06655L36.5601 6.07614L36.5678 6.08956L36.5813 6.11065L36.5929 6.13252L36.6083 6.15418L36.6219 6.17489L36.6354 6.19656L36.6489 6.21842L36.6624 6.24124L36.6759 6.26234L36.6894 6.28362L36.7676 6.19714L36.9023 6.05409L37.0389 5.9118L37.1796 5.77047L37.3201 5.6301L37.464 5.48935L37.6107 5.35454L37.7599 5.21705L37.9098 5.08224L38.0625 4.94954L38.2178 4.81761L38.3753 4.68664L38.5356 4.55758L38.6964 4.42757L38.8612 4.30158L39.0268 4.1754L39.1943 4.05153L39.3649 3.92918L40.6609 4.85213C40.4021 5.03641 40.1505 5.22664 39.9066 5.4207C39.7122 5.57718 39.522 5.7371 39.3392 5.9001L39.0658 6.14594L38.8025 6.39753C38.6292 6.56609 38.4611 6.73944 38.3004 6.91452L38.0607 7.17915L37.8316 7.4478C37.7271 7.57226 37.6254 7.70208 37.5258 7.83209L37.5696 7.9228L37.6116 8.01523L37.6549 8.10919L37.6665 8.13258L37.696 8.20066L37.7371 8.29347L37.7693 8.36806L37.777 8.38762L37.8164 8.47948L37.8913 8.65992L37.8932 8.6676L37.9299 8.76098L37.9627 8.84152L37.9665 8.85686L38.0032 8.95102L38.0387 9.04556L38.0522 9.08199L38.0736 9.13952L38.108 9.23521L38.1387 9.32112L38.1406 9.3307L38.1746 9.42582L38.2074 9.52112L38.2209 9.56389L38.2383 9.61624L38.2699 9.71135L38.3 9.80531L38.3012 9.80723L38.3295 9.90349L38.3585 9.99976L38.372 10.0481L38.3874 10.0976L38.4152 10.1932L38.442 10.2901L38.4426 10.292L38.4671 10.3854L38.494 10.4828L38.5075 10.5376L38.519 10.5812L38.543 10.6773L38.5659 10.7747L38.5679 10.7862L38.5891 10.8748L38.6111 10.9708L38.6246 11.0324L38.6323 11.0692L38.6532 11.1682L38.674 11.2671L38.6779 11.2805L38.6933 11.3641L38.7126 11.4631L38.7242 11.5312L38.73 11.562L38.7493 11.6604L38.7666 11.7588L38.7686 11.7822L38.7965 11.9594L38.8081 12.0334L38.8101 12.0568L38.8375 12.2574L38.8413 12.2879L38.849 12.3569L38.8683 12.5214L38.8703 12.5387L38.8718 12.5559L38.8724 12.5598L38.8927 12.7594L38.8946 12.7935L38.9139 13.0202L38.9156 13.0474L38.9162 13.0628L38.9239 13.1627L38.9316 13.2637L38.9336 13.304L38.9355 13.3659L38.9432 13.5611L38.9444 13.5688L38.9463 13.6704C38.9502 13.8047 38.954 13.9427 38.954 14.0802C38.954 14.2168 38.9521 14.351 38.9463 14.4891L38.9444 14.5848V14.5905L38.9386 14.6922L38.9347 14.7944L38.9328 14.8367L38.9309 14.8954L38.9231 14.9976L38.9174 15.0868L38.9158 15.0983L38.91 15.1969L38.9004 15.2985L38.8984 15.337L38.8927 15.4001L38.8753 15.5696L38.8734 15.5869L38.8716 15.6003L38.86 15.7002L38.8485 15.8003L38.8446 15.8335L38.8349 15.9008L38.8214 16.0003L38.8099 16.0807L38.806 16.1014L38.7765 16.2999L38.7726 16.3275L38.761 16.3998L38.7437 16.4982L38.7302 16.5716L38.7244 16.5971L38.707 16.6966L38.6877 16.7939L38.6838 16.8157L38.6472 16.9912L38.6337 17.0598L38.6259 17.0907L38.6047 17.1885L38.5833 17.2859L38.5794 17.3013L38.5598 17.3822L38.5368 17.4805L38.5214 17.5425L38.5136 17.578L38.4878 17.6758L38.4621 17.7715L38.4602 17.7849L38.4361 17.8691L38.4092 17.9674L38.3938 18.024L38.3822 18.0631L38.3527 18.1582L38.3249 18.2551L38.323 18.2627L38.2962 18.3519L38.2649 18.4466L38.2475 18.4988L38.234 18.5433L38.2024 18.6378L38.1696 18.7347L38.1362 18.8286L38.1028 18.9237L38.0854 18.97L38.068 19.0179L38.0325 19.1124L37.9992 19.2031L37.9986 19.2089L37.9615 19.3034L37.9231 19.3959L37.9077 19.4388L37.8857 19.4915L37.8484 19.5845L37.8129 19.6705L37.8091 19.6781L37.7691 19.7717L37.7292 19.8636L37.7137 19.9004L37.6886 19.956L37.6475 20.0505L37.6109 20.1288L37.6051 20.1403L37.5613 20.2327L37.5198 20.3251L37.6433 20.4872L37.7581 20.6295L37.8737 20.7704L37.9934 20.9088L38.1138 21.0475L38.3637 21.3194L38.4913 21.4536L38.7543 21.72L38.889 21.8504L39.0262 21.9798L39.1651 22.107L39.3074 22.2347L39.4496 22.3609L39.5968 22.4847L39.8938 22.7315L40.1995 22.9707L40.356 23.0892L40.5141 23.2038L40.6739 23.3202L40.8358 23.4332L41 23.5463L39.7039 24.4693C38.5601 23.693 37.5437 22.8213 36.6817 21.8744L36.6682 21.8955L36.6566 21.915L36.6413 21.9378L36.6298 21.9585L36.6163 21.9814L36.6027 22.0027L36.5892 22.0243L36.5757 22.0456L36.5622 22.0679L36.5487 22.0889L36.5371 22.1108L36.5093 22.1543L36.4958 22.1749L36.4823 22.1967L36.4669 22.2178L36.4534 22.2391L36.4399 22.2619L36.4244 22.2824L36.4109 22.3031L36.3974 22.3244L36.3839 22.3467L36.3829 22.3505L36.3694 22.3678L36.3559 22.3894L36.3424 22.4117L36.3289 22.4324L36.3135 22.4537L36.3 22.4736L36.2865 22.4955L36.2729 22.5166L36.2575 22.539L36.244 22.5601L36.2421 22.5659L36.2324 22.5812L36.217 22.6023L36.2035 22.6224L36.188 22.6437L36.1726 22.6654L36.1591 22.6861L36.1456 22.7083L36.1321 22.729L36.1166 22.7501L36.1031 22.7708L36.0973 22.7766L36.0877 22.7919L36.0576 22.8343L36.0421 22.8545L36.0115 22.8972L35.9979 22.9179L35.9825 22.9386L35.969 22.9597L35.9536 22.9804L35.9478 22.99L35.9401 23.0015L35.9227 23.0215L35.9072 23.0428L35.8918 23.0629L35.8764 23.0851L35.8609 23.1053L35.8455 23.1254L35.8301 23.1461L35.8146 23.1666L35.7992 23.1891L35.7915 23.1987L35.7857 23.2083L35.7683 23.2284L35.903 23.3584L36.0655 23.5137L36.2311 23.6671L36.3992 23.8198L36.5698 23.9699L36.7432 24.1193L36.9183 24.2683L37.0954 24.4139L37.2764 24.5575L37.4598 24.7L37.6458 24.8401L37.8334 24.9803L38.0233 25.1184L38.2159 25.2549L38.411 25.388L38.1283 25.5907L37.1151 26.3138C36.974 26.217 36.8339 26.1192 36.6967 26.0191C36.4893 25.871 36.2874 25.7207 36.0873 25.5679V25.566L35.8903 25.4127C35.7602 25.3111 35.6311 25.2039 35.5031 25.0979L35.3144 24.9387C35.1886 24.8311 35.0655 24.7234 34.9435 24.6142L34.7712 24.4593L34.7557 24.4766L34.7403 24.4938L34.7249 24.513L34.7075 24.5303L34.6921 24.5475L34.6766 24.5667L34.6592 24.584L34.6438 24.6031L34.6264 24.6204L34.6207 24.6261L34.6091 24.6376L34.5936 24.6549L34.5782 24.6745L34.5608 24.6917L34.5454 24.709L34.528 24.7282L34.5126 24.7454L34.4952 24.7627L34.4798 24.7834L34.4643 24.8006L34.447 24.8179L34.4431 24.8237L34.4315 24.8352L34.4161 24.8524L34.3987 24.8716L34.3833 24.8888L34.3659 24.9061L34.3505 24.9234L34.3331 24.9406L34.3157 24.9602L34.2984 24.9774L34.2829 24.9947L34.2675 25.012L34.2598 25.0196L34.2501 25.0292L34.2328 25.0465L34.2154 25.0637L34.198 25.0829L34.1807 25.1002L34.1461 25.1345L34.1307 25.1518L34.1133 25.169L34.0959 25.1882L34.0786 25.2054L34.0708 25.2131L34.0612 25.2227L34.0438 25.24L34.0265 25.2591L34.0091 25.2745L33.9753 25.3098L33.958 25.3289L33.9387 25.3443L33.9213 25.3615L33.9058 25.3788L33.8885 25.3961L33.8788 25.4056L33.8692 25.4133L33.8518 25.4306L33.8344 25.4459L33.8171 25.4651L33.7997 25.4823L33.7823 25.4996L33.765 25.5169L33.7476 25.536L33.7283 25.5533L33.7109 25.5706L33.6936 25.5878L33.8835 25.7522L34.088 25.9244L34.2937 26.0956L34.5025 26.2624L34.7142 26.4295L34.9292 26.5936L35.1471 26.7549L35.3675 26.916L35.5911 27.0751L35.8165 27.2306L34.5207 28.1553H34.5186L34.2795 27.9873L34.0409 27.8167L33.8051 27.6454C33.3665 27.3219 32.9442 26.985 32.5367 26.6402L32.5125 26.6603L32.4878 26.6826L32.4639 26.7023L32.462 26.7039L32.4406 26.7234L32.4149 26.7441L32.3908 26.7637L32.3651 26.7848L32.3421 26.8043L32.3169 26.8251L32.2923 26.8442L32.2671 26.8676L32.2474 26.8849L32.2435 26.8864L32.2182 26.9071L32.1937 26.9278L32.1686 26.9486L32.1439 26.9685L32.1189 26.9882L32.0936 27.0093L32.0691 27.0289L31.993 27.0903L31.9678 27.1098L31.9427 27.1305L31.917 27.1497L31.8917 27.171L31.8666 27.1917L31.8413 27.209L31.8157 27.2303L31.8118 27.2341L31.7898 27.2494L31.7659 27.2705L31.7406 27.2897L31.7144 27.3098L31.6881 27.3303L31.6634 27.3476L31.6362 27.3699L31.6115 27.3894L31.588 27.4086L31.586 27.4095L31.5604 27.4291L31.5347 27.4492L31.5073 27.4684L31.4822 27.4876L31.4564 27.5081L31.4301 27.5277L31.4044 27.5478L31.3782 27.567L31.3628 27.5804L31.3531 27.5862L31.3263 27.6057L31.3 27.6259L31.2738 27.6431L31.247 27.6632L31.2213 27.6828L31.1951 27.7035L31.1682 27.7208L31.142 27.7415L31.1343 27.7472L31.114 27.7607L31.0609 27.8002L31.0353 27.8193L31.0084 27.8389L30.9816 27.8581L30.9548 27.8773L30.9274 27.8964L30.9006 27.9156L29.6053 26.9927L29.6348 26.9719L29.6628 26.9507L29.6927 26.9296L29.7222 26.9083L29.7502 26.8876L29.7809 26.8671L29.8093 26.8448L29.8208 26.8371L29.8382 26.8237L29.8677 26.802L29.8969 26.7804L29.9247 26.7597L29.9828 26.7167L30.0117 26.6945L30.0347 26.6772L30.0385 26.6753L30.0686 26.654L30.097 26.6329L30.1244 26.6107L30.1539 26.5888L30.1817 26.5677L30.2103 26.5459L30.2392 26.5248L30.2469 26.519L30.2678 26.5037L30.2962 26.4826L30.3236 26.4613L30.3805 26.4162L30.4077 26.3944L30.4368 26.3727L30.4542 26.3574L30.4639 26.3516L30.4913 26.3294L30.519 26.3071L30.5459 26.286L30.575 26.2626L30.6016 26.2408L30.6302 26.2179L30.6576 26.1968L30.6595 26.1949L30.6846 26.1754L30.7115 26.1531L30.7389 26.1318L30.7657 26.1081L30.7935 26.0858L30.8214 26.0645L30.8483 26.0417L30.8637 26.0302L30.8753 26.0206L30.9021 25.999L30.9295 25.9756L30.9563 25.9522L30.9832 25.9293L31.0106 25.9077L31.0378 25.8858L31.0625 25.862L31.0644 25.8615L31.0912 25.8396L31.1169 25.8179L31.1437 25.7934L31.17 25.7717L31.1974 25.7495L31.2242 25.7261L31.2499 25.7021L31.2595 25.6944L31.2769 25.6791L31.3037 25.6572L31.3305 25.634L31.3574 25.6112L31.3819 25.5882L31.2205 25.4269C30.9585 25.1665 30.7041 24.9007 30.459 24.6294L30.3043 24.4539L30.2753 24.4804L30.2469 24.5067L30.2178 24.5337L30.1873 24.5604L30.1588 24.587L30.1298 24.6125L29.8919 24.8229L29.8623 24.849L29.8021 24.9007L29.7709 24.9274L29.741 24.9517L29.7108 24.9778L29.6807 25.0029L29.62 25.0545L29.5893 25.08L29.5582 25.1067L29.5275 25.1312L29.4963 25.1573L29.4034 25.2333L29.3722 25.2584L29.3409 25.2839L29.3104 25.3094L29.2469 25.3583L29.2151 25.3844L29.184 25.4101L29.1518 25.4361L29.1205 25.459L29.0565 25.51L29.0248 25.5345L28.9926 25.5589L28.9607 25.584L28.865 25.6572L28.8316 25.6824L28.8006 25.7063L28.7672 25.7307L28.7344 25.7552L28.707 25.7775L28.7012 25.7794L28.6688 25.8034L28.6359 25.8277L28.6037 25.8523L28.5709 25.8768L28.5375 25.9L28.5074 25.9234L28.5055 25.9245L28.4727 25.9485L28.4387 25.9734L28.4059 25.9968L28.3731 26.0214L28.3397 26.0442L28.3069 26.0686L27.0099 25.145L27.0481 25.1178L27.0886 25.089L27.1265 25.0603L27.1658 25.0331L27.1954 25.0114L27.205 25.0056L27.2428 24.9763L27.2822 24.9487L27.3198 24.9199L27.3588 24.891L27.3795 24.8756L27.3968 24.8641L27.4352 24.8336L27.4734 24.8054L27.5122 24.7771L27.5605 24.7412L27.5861 24.7205L27.624 24.6923L27.6616 24.6612L27.6988 24.6325L27.7367 24.6031L27.7386 24.6016L27.7735 24.5738L27.8102 24.545L27.8474 24.5157L27.8847 24.4873L27.9148 24.4612L27.9206 24.4574L27.9572 24.4263L27.9939 24.3985L28.0304 24.3692L28.0667 24.3393L28.0885 24.322L28.102 24.3086L28.1386 24.2781L28.1757 24.2493L28.2114 24.2183L28.2475 24.1889L28.261 24.1774L28.2834 24.1582L28.3185 24.1274L28.3552 24.0975L28.3895 24.0675L28.4262 24.0355L28.43 24.0336L28.4607 24.0071L28.4968 23.9761L28.5317 23.9446L28.5663 23.9162L28.5979 23.8875L28.5999 23.8856L28.635 23.8545L28.6688 23.824L28.7027 23.7931L28.7382 23.7621L28.7614 23.7419L28.773 23.7304L28.8069 23.6999L28.8419 23.6679L28.8747 23.6374L28.9092 23.6054L28.9227 23.5939L28.9424 23.5766L28.9752 23.5446L29.0086 23.5124L29.0424 23.4809L29.0758 23.4499L29.0815 23.4422L29.1078 23.4171L29.1417 23.3851L29.174 23.3546L29.2074 23.322L29.2386 23.2911L29.2726 23.2589L29.3054 23.2269L29.2622 23.1688L29.1062 22.9546V22.9526L28.953 22.7367L28.8027 22.5189L28.6576 22.2982L28.5149 22.0774L28.3868 21.8709L28.3513 21.911L28.3146 21.9492L28.3088 21.953L28.277 21.9879L28.2409 22.027L28.2043 22.0677L28.1282 22.1467L28.0906 22.1852L28.0533 22.2243L28.036 22.2397L28.0157 22.2613L27.9769 22.3016L27.9381 22.3402L27.8991 22.3783L27.8976 22.3798L27.8609 22.418L27.8227 22.4554L27.7828 22.4951L27.7569 22.5212L27.7434 22.5327L27.7046 22.5695L27.6647 22.6082L27.6242 22.6451L27.6106 22.6585L27.5838 22.684L27.5435 22.7221L27.5041 22.7595L27.4642 22.796L27.4225 22.8336L27.3816 22.8721L27.3405 22.9097L27.3158 22.9325L27.2984 22.9459L27.2588 22.9845L27.2168 23.0209L27.1741 23.0568L27.1645 23.0683L27.1332 23.0947L27.0917 23.1329L27.0485 23.1693L27.0112 23.2014L27.0074 23.2052L26.9651 23.2428L26.9219 23.2792L26.8789 23.3156L26.8563 23.3348L26.837 23.3521L26.7932 23.3885L26.75 23.4248L26.7067 23.4597L26.6971 23.4654L26.6621 23.4947L26.6189 23.53L26.5745 23.5653L26.5379 23.5943L26.5301 23.6019L26.4858 23.6378L26.4408 23.6725L26.3972 23.7084L26.3769 23.7237L26.3522 23.741L26.3069 23.7774L26.2631 23.8112L26.2171 23.8464L26.2133 23.8484L26.1718 23.8798L26.1253 23.9147L26.0815 23.9494L26.0471 23.9722L26.0355 23.9837L25.9885 24.0169L25.9425 24.0516L25.896 24.0842L25.8806 24.0957L25.8499 24.1182L25.8034 24.1529L25.7575 24.1855L25.7106 24.2181L24.4139 23.2972L24.5689 23.1864L24.5863 23.173L24.6436 23.1317L24.6999 23.0897L24.7217 23.0725L24.7569 23.047L24.8132 23.0044L24.869 22.9626L24.8728 22.9607L24.9242 22.9216L24.979 22.8786L25.0222 22.8443L25.0338 22.8347L25.089 22.7921L25.1426 22.7488L25.1667 22.7287L25.1978 22.7058L25.2515 22.6617L25.3057 22.6161L25.3134 22.6103L25.3593 22.5745L25.4118 22.5298L25.4551 22.4936L25.4647 22.484L25.5166 22.441L25.5697 22.3954L25.5965 22.3726L25.6228 22.3497L25.6725 22.3053L25.7256 22.259L25.7353 22.2514L25.8271 22.1687L25.8719 22.1285L25.8777 22.1246L25.9284 22.0778L25.9782 22.031L26.0074 22.0044L26.028 21.9852L26.0778 21.939L26.1266 21.8922L26.1401 21.8788L26.1762 21.8456L26.2245 21.7984L26.271 21.7537L26.2725 21.7522L26.3202 21.7049L26.3677 21.6571L26.4001 21.626L26.4174 21.6088L26.464 21.561L26.5114 21.5127L26.5269 21.4974L26.5581 21.4648L26.6031 21.418L26.65 21.3702L26.6517 21.3664L26.6955 21.3208L26.7415 21.2724L26.7743 21.2364L26.7878 21.223L26.832 21.1746L26.8764 21.1267L26.8957 21.105L26.9215 21.0761L26.9657 21.0272L27.0089 20.9773L27.0147 20.9716L27.052 20.9276L27.0964 20.8776L27.1307 20.8385L27.1384 20.8289L27.1817 20.7779L27.2231 20.7294L27.2446 20.7027L27.2664 20.6772L27.3069 20.6272L27.3486 20.5761L27.3563 20.5685L27.3897 20.5265L27.4296 20.4755L27.4653 20.4308L27.4711 20.4231L27.5111 20.3736L27.5504 20.3213L27.5188 20.2534L27.4109 20.0197L27.3092 19.7849L27.2091 19.5479L27.1145 19.3109L27.0236 19.0718L26.9377 18.8321L26.8557 18.5907L26.7772 18.3488L26.7027 18.1053L26.6332 17.8606L26.5676 17.615L26.5074 17.3688L26.4501 17.1208L26.398 16.8713L26.3499 16.6213L26.3073 16.3712L26.2679 16.1196L26.2328 15.8673L26.2027 15.6136L26.177 15.3591L26.1562 15.1031L26.1388 14.8477L26.1272 14.5905L26.1195 14.3316L26.1179 14.0735L26.1195 13.8202L26.1272 13.568L26.1388 13.3163L26.1542 13.0653L26.1745 12.8146L26.1996 12.5667L26.2281 12.3199L26.2615 12.071L26.2986 11.8247L26.3397 11.5803L26.3856 11.3361L26.4354 11.092L26.4906 10.8485L26.5493 10.6076L26.6116 10.3674L26.6772 10.1288L26.7478 9.88969L26.8233 9.65152L26.902 9.41681L26.9852 9.18037L27.0717 8.94757L27.1624 8.71343L27.2571 8.48178L27.3561 8.25128L27.4572 8.02251L27.5508 7.82462L27.5354 7.80391L27.5059 7.76747L27.4626 7.7109L27.4238 7.66258L27.4181 7.65683L27.3737 7.60083L27.3289 7.54599L27.3096 7.52202L27.2839 7.48942L27.2368 7.43457L27.1926 7.38184L27.1909 7.37992L27.1444 7.32604L27.0979 7.27119L27.074 7.24339L27.0504 7.21673L27.0033 7.16247L26.9553 7.10801L26.9535 7.10609L26.9082 7.05565L26.8584 7.00234L26.8295 6.96744L26.8098 6.94827L26.7604 6.894L26.7123 6.84127L26.7046 6.83359L26.6614 6.78796L26.6106 6.73637L26.5761 6.69994L26.5606 6.6846L26.5091 6.63301L26.4572 6.5797L26.4456 6.56628L26.4066 6.52659L26.3553 6.47539L26.3136 6.43358L26.302 6.42399L26.249 6.37241L26.1959 6.31968L26.1785 6.30242L26.143 6.26982L26.0894 6.21919L26.0363 6.16761L25.9811 6.11698L25.9265 6.06598L25.9018 6.04412L25.8711 6.01708L25.8159 5.96703L25.7602 5.91698L25.7044 5.86808L25.6475 5.81918L25.6174 5.79195L25.5899 5.76913L25.4763 5.67191L25.4705 5.66615L25.4174 5.62262L25.3595 5.57373L25.3223 5.54228L25.2999 5.52694L25.1833 5.43067L25.1718 5.42492L25.1237 5.38369L25.0635 5.33479L25.0203 5.30258L25.0029 5.28915L24.8821 5.1973L24.8667 5.18579L24.8211 5.14993L24.7102 5.06786L24.6986 5.05827L24.6368 5.01206L24.6171 4.99672V4.21606L25.3611 3.68546L25.4157 3.72189L25.4688 3.75947L25.5218 3.79591L25.5411 3.80933L25.5755 3.83215L25.628 3.86916L25.6795 3.90828L25.7183 3.93494L25.7318 3.94452L25.7843 3.98096L25.8356 4.0195L25.8877 4.05651L25.8935 4.06035L25.94 4.09563L25.9913 4.13322L26.0429 4.17061L26.067 4.18787L26.0932 4.208L26.1434 4.24866L26.1949 4.28624L26.2376 4.31769L26.2453 4.32728L26.2951 4.36429L26.3953 4.44157L26.4049 4.44924L26.4449 4.48203L26.4935 4.52L26.5433 4.56027L26.5713 4.58251L26.5931 4.59785L26.6419 4.63697L26.6899 4.67782L26.7353 4.71636L26.7391 4.71751L26.788 4.75721L26.836 4.79786L26.8831 4.83928L26.8985 4.85079L26.9314 4.87859L26.9784 4.9204L27.0261 4.95952L27.0583 4.98828L27.0738 4.99978L27.1203 5.0412L27.1672 5.08148L27.2137 5.12385L27.2154 5.12577L27.2602 5.16547L27.3057 5.20516L27.3517 5.24869L27.371 5.26403L27.3978 5.28896L27.4437 5.33096L27.4881 5.37334L27.5236 5.40478L27.5333 5.41437L27.5771 5.4579L27.6224 5.49971L27.6668 5.54228L27.6745 5.54803L27.7112 5.58331L27.7562 5.62569L27.7994 5.66865L27.8223 5.69147L27.842 5.71218L27.8868 5.75551L27.9285 5.79847L27.9661 5.83663L27.9719 5.84238L28.0134 5.88534L28.0566 5.92772L28.0977 5.97182L28.1093 5.98333L28.14 6.01593L28.1821 6.06003L28.2232 6.10241L28.2488 6.13233L28.2643 6.14767L28.3054 6.1912L28.3457 6.23415L28.3857 6.28036L28.4115 6.23837L28.5481 6.01995L28.6877 5.80307L28.8305 5.58945L28.9775 5.37583L29.1275 5.16489L29.2807 4.9551L29.3025 4.92461L29.2664 4.8876L29.2292 4.85117L29.1925 4.81474L29.1695 4.79364L29.1541 4.7783L29.1157 4.74187L29.0781 4.70505L29.0414 4.66957L29.0059 4.63697L29.002 4.63314L28.9638 4.59728L28.9256 4.56257L28.8872 4.52613L28.849 4.49181L28.8393 4.48414L28.8092 4.45576L28.7716 4.42163L28.7317 4.38519L28.6923 4.35048L28.6715 4.33131L28.6541 4.31597L28.6147 4.28011L28.5748 4.24693L28.5348 4.21107L28.5009 4.18116L28.4951 4.17732L28.4547 4.14319L28.4142 4.1079L28.3754 4.073L28.3343 4.0383L28.3285 4.03254L28.2951 4.00493L28.2137 3.93589L28.1726 3.90042L28.1523 3.88508L28.1317 3.8659L28.0894 3.83158L28.0489 3.79783L28.008 3.7658L27.9746 3.73761L27.965 3.72994L27.9239 3.69619L27.8827 3.66417L27.8391 3.62889L27.7969 3.59725L27.793 3.59341L27.7563 3.5635L27.7137 3.53032L27.6716 3.49715L27.6294 3.46512L27.6097 3.44978L27.5857 3.4306L27.5435 3.39685L27.5003 3.36541L27.457 3.33262L27.4248 3.30884L27.4152 3.29925L27.3719 3.26665L27.3277 3.23443L27.2845 3.20356L27.2401 3.17154L27.2382 3.1677L27.1965 3.13721L27.1529 3.10519L27.1085 3.0747L27.0637 3.0421L27.0483 3.03059L27.0199 3.01046L26.9755 2.97958L26.9314 2.94698L26.8854 2.91592L26.8547 2.89482L26.8412 2.88524L26.7968 2.8559L26.7515 2.82368L26.7061 2.79108L26.6608 2.75963L27.9572 1.83765L28.0753 1.91934L28.1141 1.94695L28.1535 1.97188L28.167 1.98338L28.1923 2.00064L28.2305 2.0273L28.2699 2.05549L28.3087 2.08157L28.3476 2.10976L28.3754 2.13104L28.3851 2.13871L28.4244 2.16632L28.4634 2.19298L28.5005 2.22136L28.5395 2.24897L28.5771 2.27889L28.5809 2.27946L28.6161 2.30554L28.6531 2.33335L28.6915 2.36154L28.7286 2.3903L28.767 2.41811L28.7824 2.42961L28.8038 2.44495L28.8415 2.47218L28.8787 2.50267L28.916 2.53201L28.953 2.55867L28.9827 2.58034L28.9905 2.58801L29.0277 2.61677L29.0649 2.64496L29.1016 2.6743L29.1383 2.70268L29.1749 2.73144L29.1807 2.7372L29.2112 2.76289L29.2485 2.78993L29.284 2.81985L29.3206 2.84861L29.3567 2.87757L29.376 2.89291L29.3934 2.90633L29.4295 2.93509L29.465 2.96597L29.5011 2.99531L29.5372 3.02369L29.5684 3.04919L29.5723 3.05495L29.6074 3.08428L29.6423 3.1142L29.6773 3.14411L29.7134 3.17345L29.7485 3.20452L29.7562 3.20835L29.7824 3.23213L29.8187 3.26377L29.8531 3.29369L29.8876 3.3236L29.9231 3.35505L29.9424 3.37039L29.9579 3.38382L29.9922 3.41431L30.0268 3.4448L30.0605 3.47413L30.0945 3.50462L30.1273 3.53435L30.1292 3.53607L30.163 3.56599L30.197 3.59686L30.2298 3.62908L30.2637 3.65899L30.2987 3.68987L30.448 3.52092L30.6292 3.3236L30.813 3.12571L30.9996 2.93164L31.1893 2.74027L31.3759 2.55598L31.3464 2.53105L31.3139 2.5021L31.2834 2.47564L31.2516 2.44725L31.2205 2.42233L31.1887 2.39395L31.1848 2.39203L31.1586 2.3671L31.1273 2.34198L31.0644 2.28924L31.0316 2.26105L31 2.23498L30.9826 2.21963L30.9691 2.21005L30.9368 2.18339L30.9056 2.15559L30.8728 2.13066L30.8417 2.104L30.8083 2.07792L30.7776 2.05069L30.7448 2.02461L30.712 1.99911L30.6786 1.9713L30.6464 1.94695L30.613 1.91972L30.5818 1.89422L30.5663 1.88271L30.549 1.86929L30.5158 1.84052L30.4833 1.81502L30.45 1.79162L30.4177 1.76344L30.3843 1.73831L30.3548 1.71607L30.351 1.71454L30.3176 1.68673L30.2844 1.6618L30.2504 1.63553L30.2176 1.60945L30.1836 1.58395L30.1508 1.55959L30.1412 1.55192L30.1177 1.53275L30.0837 1.50878L30.0493 1.48385L30.0148 1.45777L29.982 1.43111L29.9474 1.40714L29.9239 1.38988L29.9123 1.38221L29.8778 1.35709L29.8438 1.33216L29.81 1.30704L29.7767 1.28269L29.7421 1.25661L29.7072 1.23207L29.7014 1.22823L29.6719 1.20752L29.6369 1.18413L29.603 1.15862L29.5686 1.1335L29.5347 1.1103L29.498 1.08518L29.4787 1.06984L29.4633 1.06025L29.4283 1.0357L29.3934 1.01135L29.3583 0.986803L29.3228 0.962449L29.2876 0.937904L29.2521 0.913359L30.5507 0ZM30.6076 9.58325L30.6211 9.61355L30.691 9.43637L30.7726 9.23751L30.8568 9.03635L30.9459 8.83788L31.0384 8.64056L31.1337 8.44439L31.2315 8.24917L31.3338 8.05569L31.4394 7.86067L31.538 7.68616L31.5225 7.66219L31.5148 7.64685L31.509 7.63726L31.4917 7.61387L31.4762 7.59047L31.4608 7.56497L31.4454 7.54215L31.4299 7.51703L31.4145 7.49479L31.3971 7.47197L31.3813 7.44761L31.3639 7.42307L31.3485 7.39967L31.333 7.37474L31.3176 7.35192L31.3002 7.3291L31.2848 7.30398L31.2751 7.2944L31.2674 7.28097L31.2501 7.25815L31.2346 7.23437L31.2172 7.20983L31.1999 7.18701L31.1844 7.16419L31.169 7.14195L31.1536 7.11913L31.1526 7.11721L31.1352 7.09477L31.1179 7.07138L31.1005 7.04702L31.0831 7.02363L31.0677 7.00023L31.0503 6.97626L31.0349 6.95344L31.0291 6.94386L31.0175 6.92852L31.0001 6.90512L30.9828 6.88383L30.9654 6.85948L30.948 6.83494L30.9326 6.81327L30.9152 6.78987L30.9017 6.7707L30.8979 6.76686L30.8635 6.72007L30.8462 6.69668L30.8288 6.67443L30.8114 6.65104L30.7583 6.582L30.741 6.56091L30.7236 6.53694L30.7082 6.51239L30.6889 6.49073L30.6696 6.46733L30.6522 6.44451L30.6406 6.42917L30.6348 6.42342L30.6175 6.40156L30.5982 6.37989L30.5808 6.35592L30.5615 6.33214L30.5422 6.31028L30.5248 6.28746L30.5055 6.26521L30.5017 6.26138L30.4862 6.2422L30.4689 6.21881L30.4515 6.1981L30.34 6.36397L30.2103 6.56609C30.1244 6.70051 30.0412 6.83628 29.9598 6.97377C29.8799 7.1103 29.7994 7.24665 29.7234 7.38587L29.6101 7.59412L29.5341 7.73756L29.5538 7.76574L29.5734 7.79355L29.5933 7.82174L29.6088 7.84628L29.6126 7.85012L29.6319 7.87773L29.6493 7.90611L29.669 7.9343L29.6883 7.96307L29.7076 7.99356L29.7172 8.00698L29.7269 8.02232L29.7462 8.05013L29.7655 8.07831L29.7828 8.10765L29.8021 8.13603L29.8195 8.16595L29.8234 8.16978L29.8388 8.19203L29.8562 8.22194L29.8735 8.25243L29.8928 8.28081L29.9102 8.30843L29.9256 8.33508L29.9262 8.33892L29.9455 8.36711L29.9629 8.39645L29.9802 8.42598L29.9976 8.45474L30.015 8.48408L30.0246 8.50134L30.0324 8.51285L30.0497 8.54276L30.069 8.5721L30.0864 8.60144L30.1038 8.63135L30.1192 8.66012L30.1231 8.66779L30.1346 8.68946L30.152 8.71784L30.1694 8.74871L30.1848 8.77767L30.2022 8.80739L30.2176 8.83577L30.2356 8.86664L30.251 8.8956L30.2684 8.92551L30.2838 8.95485L30.3309 9.04498L30.3463 9.07432L30.3637 9.10366L30.3772 9.13415L30.3946 9.16407L30.3984 9.17365L30.4081 9.19379L30.4235 9.22466L30.437 9.25362L30.4525 9.28392L30.466 9.31441L30.4814 9.34432L30.4965 9.37481L30.5119 9.40357L30.5254 9.43349L30.5409 9.46455L30.5424 9.46839L30.5692 9.52534L30.5827 9.55526L30.6076 9.58325ZM32.537 24.5032L32.5544 24.4837L32.5621 24.4779L32.5737 24.4683L32.5911 24.4491L32.6084 24.43L32.6258 24.4108L32.6432 24.3935L32.6605 24.3734L32.676 24.3561L32.6953 24.337L32.7127 24.3197L32.73 24.2998L32.7358 24.294L32.7474 24.2806L32.7648 24.2614L32.7821 24.2422L32.7995 24.2231L32.8169 24.2058L32.8342 24.1866L32.8516 24.1674L32.869 24.1483L32.8883 24.131L32.9037 24.1118L32.9076 24.108L32.9211 24.0927L32.9384 24.0735L32.9558 24.0543L32.9732 24.037L32.9905 24.0175L33.0079 23.9979L33.0253 23.9807L33.0426 23.9615L33.0581 23.9419L33.0755 23.9247L33.0766 23.9228L33.0921 23.9074L33.1094 23.8867L33.1249 23.8694L33.1422 23.8503L33.1596 23.8307L33.177 23.8115L33.1924 23.7924L33.2098 23.7728L33.2252 23.7532L33.2426 23.736L33.2599 23.7153L33.2754 23.698L33.2928 23.6788L33.3261 23.6407L33.3435 23.6211L33.3609 23.6039L33.3763 23.5837L33.3918 23.5645L33.4072 23.5492L33.4257 23.5273L33.4412 23.5082L33.4566 23.488L33.474 23.4708L33.4913 23.4516L33.5068 23.4315L33.5241 23.4123L33.5396 23.3931L33.5569 23.3739L33.5685 23.3586L33.5724 23.3548L33.5878 23.3352L33.6052 23.316L33.6206 23.2965L33.578 23.2497L33.4188 23.0731L33.2652 22.8941L33.1131 22.7143L32.9637 22.5327L32.8171 22.3496L32.6754 22.1664L32.5424 21.9902L32.527 22.0121L32.5116 22.032L32.4961 22.0539L32.4807 22.0749L32.4633 22.0957L32.4479 22.1169L32.4324 22.1375L32.4151 22.157L32.3991 22.1795L32.3836 22.2L32.3663 22.2201L32.3508 22.2408L32.3354 22.2615L32.3032 22.3033L32.2858 22.324L32.2742 22.3394L32.2703 22.3451L32.2549 22.3664L32.2375 22.3871L32.2221 22.4088L32.2047 22.428L32.1893 22.4493L32.1719 22.4694L32.1546 22.4895L32.1372 22.5087L32.1314 22.5183L32.1217 22.5317L32.1044 22.5509L32.0889 22.5716L32.0735 22.5927L32.0561 22.6128L32.0388 22.6347L32.0233 22.6539L32.006 22.6744L31.9905 22.6951L31.9886 22.6957L31.9732 22.7149L31.9392 22.7578L31.9218 22.7751L31.8408 22.8708L31.8369 22.8784L31.8195 22.8976L31.8022 22.9177L31.7867 22.9373L31.7512 22.9776L31.7339 22.9994L31.7184 23.0186L31.701 23.0397L31.6953 23.0455L31.6837 23.0589L31.6663 23.0781L31.6489 23.0986L31.6316 23.1187L31.6123 23.1383L31.5949 23.1578L31.5775 23.1785L31.5602 23.1977L31.5428 23.2178L31.5254 23.2376L31.5081 23.2577L31.4907 23.2773L31.4714 23.2986L31.5281 23.3659L31.6912 23.559L31.8576 23.7513L32.0272 23.9415L32.2005 24.1308L32.3767 24.3172L32.537 24.5032ZM34.6108 21.9697L34.6262 21.9469L34.6417 21.9217L34.6571 21.8989L34.6726 21.8755L34.688 21.8517L34.7034 21.8278L34.7189 21.8038L34.7208 21.8019L34.7343 21.7806L34.7498 21.7578L34.7633 21.7334L34.7787 21.7106L34.7941 21.6884L34.8096 21.6627L34.825 21.6393L34.8405 21.6155L34.852 21.6001L34.8559 21.5925L34.8713 21.5679L34.8868 21.544L34.9003 21.5202L34.9157 21.4945L34.9312 21.4717L34.9466 21.4488L34.9601 21.4245L34.9755 21.4L34.9775 21.3984L34.989 21.3756L35.0045 21.3537L35.0199 21.3294L35.0334 21.3037L35.0469 21.2809L35.0624 21.2571L35.0759 21.2331L35.0913 21.2091L35.101 21.1938L35.1068 21.1861L35.1203 21.1616L35.1357 21.1388L35.1492 21.1127L35.1627 21.0887L35.1782 21.0644L35.1917 21.0404L35.2071 21.0176L35.2206 20.9926L35.2226 20.9888L35.2341 20.9681L35.2476 20.9426L35.2612 20.9192L35.2747 20.8941L35.2882 20.8707L35.3017 20.8463L35.3152 20.8218L35.3287 20.7974L35.3364 20.7821L35.3403 20.7744L35.3538 20.7483L35.3673 20.7244L35.3808 20.7004L35.3943 20.6755L35.4078 20.6521L35.4213 20.6272L35.4329 20.6015L35.4464 20.5771L35.4503 20.5733L35.4599 20.5537L35.4734 20.5282L35.4869 20.5037L35.4985 20.4791L35.5101 20.453L35.5236 20.4302C35.1045 19.8275 34.743 19.198 34.4452 18.5506L34.4337 18.5811L34.4221 18.6116L34.4105 18.6419L34.3989 18.6729L34.3854 18.7049L34.3777 18.7272L34.3738 18.7368L34.3603 18.7671L34.3487 18.797L34.3235 18.8601L34.3099 18.8894L34.2984 18.9193L34.2945 18.9289L34.2849 18.9514L34.2714 18.9817L34.2445 19.0432L34.231 19.0735L34.2194 19.104L34.2079 19.128L34.204 19.1356L34.1924 19.165L34.1789 19.1955L34.1654 19.2252L34.1519 19.2568L34.1384 19.2873L34.1249 19.3176L34.1191 19.3272L34.1114 19.3479L34.0959 19.3767L34.068 19.4365L34.0544 19.468L34.0409 19.4984L34.0294 19.5234L34.0274 19.5291L34.0139 19.5585L33.9985 19.5895L33.9553 19.6791L33.9379 19.709L33.9321 19.7205L33.9244 19.7378L33.9089 19.7683L33.8935 19.7987L33.8781 19.8292L33.8646 19.859L33.8491 19.8879L33.8356 19.9161L33.8337 19.9167L33.8182 19.9472L33.8028 19.978L33.7874 20.0074L33.7719 20.0373L33.7565 20.0661L33.741 20.0956L33.7333 20.1109L33.7237 20.1263L33.7082 20.1552L33.6909 20.1873L33.6754 20.2149L33.6581 20.2459L33.6407 20.2747L33.6253 20.3025L33.6098 20.3328L33.5944 20.3633L33.577 20.3926L33.5596 20.422L33.5423 20.4503L33.5249 20.4806L33.5494 20.5188L33.6639 20.696L33.7814 20.8738L33.9028 21.0477L34.0259 21.2233L34.1529 21.3961L34.2814 21.5668L34.4149 21.7374L34.5506 21.9072L34.6108 21.9697ZM36.364 18.4978L36.4088 18.3674L36.4314 18.3005L36.4543 18.2326L36.497 18.0994L36.5173 18.0324L36.5385 17.9663L36.5582 17.8972L36.5784 17.8315L36.6163 17.6967L36.6365 17.6297L36.6539 17.5613L36.6713 17.4928L36.6886 17.4265L36.706 17.3574L36.7156 17.3154L36.7214 17.289L36.7369 17.2236L36.7523 17.1546L36.7677 17.0911L36.7683 17.0853L36.7838 17.0186L36.7992 16.949L36.8146 16.8805L36.8185 16.8633L36.8282 16.8126L36.8436 16.7427L36.8571 16.6752L36.8667 16.6366L36.8725 16.6073L36.886 16.5382L36.8976 16.4686L36.9223 16.3311L36.9339 16.2615L36.9455 16.1913L36.9474 16.1779L36.9551 16.1219L36.9667 16.0535L36.9764 15.9839L36.9802 15.948L36.9841 15.9139L36.9937 15.8448L37.0034 15.7746L37.013 15.7175L37.014 15.706L37.0217 15.637L37.0294 15.5668L37.0371 15.4962L37.0389 15.4866L37.0447 15.4256L37.0505 15.3562L37.0563 15.2866L37.0601 15.2555L37.062 15.217L37.0698 15.1447L37.0736 15.0751L37.0775 15.0203L37.0786 15.0049L37.0825 14.9343L37.0864 14.8626L37.0902 14.7919V14.788L37.0921 14.7219L37.0979 14.5838L37.0999 14.5531L37.1014 14.5096L37.1031 14.4384L37.1047 14.3673L37.1064 14.3194V14.2965L37.107 14.2237L37.1074 14.1543V14.0835L37.1064 13.8687L37.1053 13.8417L37.1047 13.7993L37.0989 13.5997L37.0972 13.5843L37.0914 13.4436L37.0894 13.3723L37.0883 13.3588V13.3569L37.0767 13.159L37.0748 13.1188L37.0709 13.09L37.0671 13.0177L37.0593 12.9487L37.0536 12.8802L37.0478 12.8068L37.0343 12.6681L37.0304 12.642L37.0265 12.5964L37.0169 12.5279L37.0092 12.4589L37.0034 12.4056L36.9995 12.3883L36.9899 12.3181L36.9802 12.2485L36.9706 12.1784L36.9694 12.1688L36.9617 12.1099L36.9501 12.0414L36.9405 11.9714L36.9347 11.9339L36.9289 11.9024L36.9173 11.8338L36.9057 11.7643L36.8941 11.7001L36.8924 11.6963L36.8808 11.6272L36.8673 11.5586L36.8538 11.4892L36.85 11.4667L36.8403 11.4211L36.8268 11.3521L36.8133 11.2824L36.8017 11.2335L36.7979 11.2163L36.7824 11.1478L36.767 11.0788L36.7515 11.0113L36.7504 11.0036L36.7349 10.9434L36.7195 10.8744L36.7021 10.808L36.6925 10.7733L36.6848 10.7405L36.6655 10.6721L36.6481 10.6042L36.6307 10.5432L36.6296 10.5355L36.6089 10.4709L36.5916 10.4019L36.5713 10.3355L36.5655 10.3148L36.5501 10.2671L36.5304 10.2001L36.5092 10.1344L36.4956 10.0882L36.4879 10.0675L36.4671 10.0007L36.4453 9.93264L36.4223 9.86687L36.4212 9.86112L36.4003 9.7986L36.3779 9.73168L36.355 9.66705L36.3139 9.74855L36.2405 9.89909L36.1016 10.2042L36.036 10.3574L35.9119 10.6667L35.8555 10.8232L35.7998 10.9808L35.7467 11.1369L35.6975 11.2957L35.6498 11.4548L35.6054 11.6142L35.5639 11.7739L35.5251 11.9354L35.4885 12.0969L35.4563 12.2599L35.4244 12.4225L35.3966 12.5866L35.3731 12.7496L35.3501 12.9155L35.3308 13.0808L35.3144 13.2465L35.3009 13.4123L35.2913 13.5803L35.2816 13.7472L35.2777 13.9151L35.2758 14.0852L35.2777 14.258L35.2835 14.4331L35.2913 14.606L35.3028 14.7794L35.3183 14.9501L35.3356 15.1234L35.3571 15.2935L35.38 15.4644L35.4063 15.6327L35.4358 15.8019L35.4686 15.9704L35.5047 16.1388L35.5435 16.3052L35.584 16.4721L35.6295 16.6368L35.6764 16.8021L35.7274 16.9666L35.7805 17.1287L35.8362 17.2913L35.8953 17.4537C35.9347 17.5609 35.9769 17.6673 36.0217 17.7734L36.089 17.9321L36.1589 18.0919L36.2313 18.2486L36.3077 18.4056L36.364 18.4978ZM35.5271 7.73449L35.5136 7.70956L35.5001 7.68501L35.4885 7.66066L35.4866 7.65682L35.475 7.634L35.4634 7.61118L35.4499 7.58721L35.4364 7.56171L35.4229 7.53717L35.4094 7.51319L35.3978 7.48942L35.3843 7.46334L35.3727 7.44263L35.3715 7.44071L35.358 7.41731L35.3445 7.39181L35.3329 7.36784L35.3175 7.34387L35.304 7.31837L35.2905 7.29497L35.277 7.27043L35.2635 7.2455L35.2538 7.23207L35.248 7.22249L35.2345 7.19871L35.221 7.17589L35.2075 7.15077L35.1921 7.12699L35.1786 7.10244L35.165 7.0779L35.1515 7.05354L35.1361 7.029L35.1322 7.02133L35.1226 7.00599L35.1091 6.98163L35.0936 6.95766L35.0782 6.93542L35.0647 6.90991L35.0493 6.88748L35.0357 6.86197L35.0222 6.83762L35.0068 6.81423L34.9929 6.78968L34.9794 6.76629L34.964 6.74289L34.9485 6.71739L34.935 6.69514L34.9196 6.67021L34.9041 6.64624L34.8906 6.62227L34.8447 6.55171L34.8293 6.52831L34.8138 6.50549L34.7984 6.47941L34.7829 6.45755L34.7675 6.4332L34.7521 6.4098L34.7424 6.39638L34.7366 6.38679L34.7212 6.36225L34.7058 6.33828L34.6884 6.31392L34.6729 6.29053L34.6575 6.26828L34.6421 6.24431L34.6266 6.21938L34.6112 6.19752L34.5363 6.28899L34.4045 6.45467L34.2758 6.6194L34.15 6.78738L34.0274 6.95594L33.9072 7.12603L33.7901 7.29612L33.6758 7.46583L33.533 7.68866L33.5465 7.7109L33.5504 7.71665L33.5658 7.74561L33.5832 7.77591L33.6006 7.80697L33.616 7.83631L33.6334 7.86412L33.6488 7.89288L33.6585 7.90822L33.6662 7.92356L33.6816 7.95405L33.697 7.98282L33.7144 8.01216L33.7299 8.04207L33.7472 8.07084L33.7627 8.10075L33.7665 8.1065L33.7781 8.13086L33.7935 8.16135L33.809 8.19011L33.8244 8.2206L33.8399 8.24936L33.8553 8.2787L33.8688 8.30536L33.8707 8.30919L33.8842 8.33911L33.8997 8.3696L33.9132 8.3999L33.9286 8.42981L33.9421 8.4603L33.9576 8.48964L33.9672 8.5069L33.973 8.52032L33.9865 8.54909L34.002 8.57958L34.0174 8.60949L34.0309 8.63941L34.0463 8.67028L34.0598 8.69962L34.0656 8.70921L34.0753 8.73049L34.0907 8.76156L34.1042 8.7909L34.1197 8.82177L34.1332 8.85111L34.1467 8.8816L34.1747 8.94143L34.1882 8.97288L34.2017 9.00394L34.2152 9.03328L34.2287 9.06416L34.2422 9.09522L34.2538 9.11689L34.2557 9.12456L34.2692 9.15659L34.2827 9.18765L34.2943 9.21699L34.3078 9.24748L34.3213 9.27893L34.3348 9.31057L34.3406 9.32399L34.358 9.37117L34.3696 9.40108L34.3831 9.43253L34.3947 9.46475L34.4082 9.49466L34.4198 9.52496L34.4236 9.52879L34.4333 9.55487L34.4448 9.58594L34.4584 9.61796L34.5213 9.48047L34.6023 9.3146L34.6861 9.14892L34.7725 8.98419L34.8611 8.82158L34.9524 8.65916L35.046 8.49769L35.1438 8.33681L35.2434 8.1763L35.3463 8.01925L35.4508 7.86105L35.5271 7.73449ZM33.6129 4.85999L33.5975 4.84081L33.5801 4.82068L33.5647 4.8015L33.5569 4.79191L33.5492 4.78233L33.5338 4.76315L33.5183 4.74397L33.501 4.72441L33.4855 4.70716L33.4682 4.68702L33.4527 4.66785L33.4209 4.63026L33.4035 4.61108L33.3919 4.59766L33.3881 4.58999L33.3707 4.57273L33.3553 4.55317L33.3379 4.534L33.3225 4.51482L33.3051 4.49564L33.2897 4.47608L33.2723 4.45883L33.2549 4.43927L33.2395 4.42009L33.226 4.40475L33.224 4.40091L33.2067 4.38174L33.1912 4.36256L33.1758 4.34339L33.1584 4.32421L33.143 4.30503L33.1256 4.28778L33.1102 4.26822L33.0928 4.25096L33.0755 4.23178L33.06 4.2126L33.0594 4.21069L33.0421 4.19343L33.0247 4.17425L33.0093 4.15508L32.9919 4.13437L32.9765 4.11711L32.9591 4.09985L32.9417 4.07914L32.9244 4.06188L32.907 4.04462L32.8896 4.02736L32.8881 4.02353L32.8726 4.00627L32.8553 3.98901L32.8379 3.97175L32.8205 3.95008L32.8032 3.93283L32.768 3.89754L32.7507 3.87837L32.7333 3.85919L32.7159 3.84001L32.7121 3.83426L32.6986 3.82084L32.6812 3.80128L32.6638 3.78402L32.6465 3.76676L32.6291 3.7495L32.6117 3.73033L32.5924 3.71115L32.5751 3.69197L32.5577 3.67472L32.5403 3.65554L32.3412 3.86053L32.1694 4.04635L32.0021 4.22967L31.8363 4.41664L31.6738 4.60361L31.5146 4.7923L31.4627 4.85481L31.482 4.87437L31.4994 4.89355L31.5052 4.90122L31.5168 4.91464L31.5341 4.9342L31.5515 4.95587L31.5689 4.97543L31.5862 4.99461L31.6036 5.01474L31.6229 5.03392L31.6403 5.05444L31.6576 5.07515L31.6615 5.07898L31.675 5.09624L31.6924 5.1135L31.7097 5.13421L31.7271 5.15434L31.7595 5.19174L31.7615 5.19365L31.7788 5.2136L31.7962 5.23546L31.8136 5.25559L31.8155 5.25655L31.8309 5.27573L31.8483 5.29529L31.8657 5.31542L31.883 5.33498L31.9004 5.35608L31.9178 5.37564L31.9351 5.39692L31.9525 5.41763L31.9699 5.43681L31.9853 5.45905L32.0027 5.47976L32.02 5.50047L32.0355 5.51773L32.0529 5.53997L32.0683 5.55953L32.0837 5.58082L32.1011 5.60153L32.1165 5.61879L32.1204 5.62071L32.1358 5.64237L32.1532 5.66308L32.1686 5.68322L32.186 5.70374L32.2014 5.72349L32.2188 5.74343L32.2343 5.76472L32.2497 5.78696L32.2613 5.8023L32.2651 5.80806L32.2825 5.82877L32.3311 5.89071L32.3485 5.9118L32.3639 5.93193L32.3813 5.95264L32.3948 5.97335L32.4064 5.98678L32.4122 5.99445L32.4296 6.01497L32.445 6.03568L32.4604 6.05735L32.4778 6.0769L32.4932 6.09972L32.5106 6.12043L32.5241 6.14114L32.5415 6.1607L32.669 5.99157L32.8089 5.81285L32.9508 5.63451L33.0957 5.45886L33.2428 5.28167L33.3943 5.10717L33.5469 4.93439L33.6129 4.85999ZM30.4621 21.9679L30.4795 21.9469L30.4969 21.9217L30.5162 21.9006L30.5355 21.8788L30.5358 21.8749L30.5513 21.8544L30.5706 21.8305L30.5899 21.8082L30.6072 21.7863L30.6265 21.7635L30.6439 21.7401L30.6613 21.7179L30.6671 21.7102L30.6786 21.6949L30.696 21.6726L30.7134 21.6487L30.7307 21.6258L30.75 21.6024L30.7674 21.5796L30.7848 21.558L30.7964 21.5445L30.8022 21.5369L30.8195 21.5123L30.8369 21.4883L30.8543 21.4673L30.8716 21.4427L30.889 21.4193L30.9064 21.3971L30.9199 21.3779L30.9218 21.3721L30.9392 21.3499L30.9565 21.3261L30.9739 21.3031L30.9913 21.2803L31.0067 21.2571L31.0241 21.2331L31.0414 21.2103L31.0594 21.1863L31.0748 21.1629L31.0903 21.1413L31.1076 21.1158L31.125 21.0939L31.1424 21.069L31.1597 21.045L31.1636 21.0392L31.1752 21.022L31.1906 20.9986L31.2061 20.974L31.2234 20.9512L31.2408 20.9278L31.2562 20.9039L31.2736 20.8795L31.2813 20.868L31.291 20.8565L31.3064 20.8308L31.3238 20.8086L31.3392 20.7836L31.3547 20.7597L31.3701 20.7368L31.3875 20.7129L31.4197 20.6667L31.4351 20.6417L31.4506 20.6189L31.466 20.5944L31.4814 20.57L31.5125 20.5221L31.526 20.4983L31.5415 20.4749L31.5279 20.4509L31.4185 20.2553L31.3103 20.0557L31.2068 19.8563L31.1063 19.6557L31.01 19.4534L30.9164 19.2497L30.8272 19.0463L30.7402 18.8403L30.6576 18.6338L30.6242 18.5473L30.6107 18.5772L30.5972 18.6077L30.5818 18.6376L30.5683 18.667L30.5625 18.6842L30.5528 18.6996L30.5374 18.7295L30.5239 18.7588L30.5104 18.7893L30.4949 18.8198L30.4795 18.8501L30.466 18.88L30.4505 18.9099L30.437 18.941L30.4216 18.9703L30.4062 18.9997L30.3984 19.0169L30.3888 19.0304L30.3753 19.0612L30.3579 19.089L30.3444 19.1184L30.327 19.1493L30.3116 19.1797L30.2956 19.2097L30.2801 19.2378L30.2628 19.2689L30.2473 19.2967L30.23 19.3276L30.2222 19.3448L30.2145 19.3564L30.1991 19.3874L30.1817 19.4168L30.1644 19.4446L30.147 19.4749L30.1315 19.5048L30.1146 19.5341L30.0972 19.564L30.0798 19.5918L30.0625 19.6223L30.0451 19.6517L30.0354 19.667L30.0277 19.6804L30.0104 19.7092L29.993 19.738L29.9756 19.7673L29.9583 19.7963L29.9409 19.8262L29.9405 19.8281L29.9231 19.8542L29.9058 19.8824L29.8865 19.9123L29.8691 19.9416L29.8401 19.9867L29.8324 20.0001L29.8131 20.0277L29.7958 20.0565L29.7761 20.086L29.7568 20.1142L29.7375 20.143L29.7359 20.1449L29.7186 20.1715L29.7012 20.2005L29.6811 20.2292L29.6638 20.258L29.6445 20.2858L29.6329 20.3031L29.6252 20.3127L29.6055 20.341L29.5856 20.3692L29.5659 20.3986L29.5462 20.4273L29.5879 20.5052L29.7027 20.7194C29.7803 20.8601 29.8614 21.0009 29.9434 21.1411L30.0692 21.352L30.1983 21.5591L30.3319 21.7662L30.4621 21.9679ZM32.5359 18.5669L32.5417 18.5534L32.5637 18.5013L32.5909 18.4355L32.6171 18.3692L32.6889 18.1822L32.6908 18.1816L32.6966 18.1663L32.7219 18.0988L32.7595 17.995L32.7711 17.964L32.7958 17.8949L32.8194 17.8271L32.8271 17.8069L32.8655 17.6913L32.8879 17.624L32.8898 17.6182L32.9107 17.5569L32.9303 17.4878L32.9496 17.4295L32.9535 17.418L32.9749 17.3505L32.9946 17.2809L33.0081 17.2385L33.0139 17.2119L33.0336 17.1434L33.0529 17.0732L33.0606 17.0456L33.0722 17.0042L33.0895 16.9342L33.1069 16.8658L33.1108 16.8523L33.1243 16.7954L33.1555 16.6612L33.1575 16.6554L33.171 16.5858L33.1864 16.5152L33.198 16.4646L33.2019 16.445L33.2173 16.3749L33.2308 16.3037L33.2385 16.2705L33.2443 16.2347L33.2578 16.1635L33.2713 16.0939L33.2733 16.0747L33.2829 16.0226L33.2945 15.9518L33.3061 15.8816V15.8797L33.3157 15.8101L33.3273 15.7401L33.335 15.6814L33.3368 15.668L33.3464 15.5973L33.356 15.5244L33.3618 15.4847L33.3657 15.4538L33.3753 15.3836L33.385 15.3113L33.3869 15.2868L33.3908 15.2391L33.4043 15.096L33.4049 15.0864L33.4107 15.0243L33.4184 14.952L33.4222 14.8879V14.8803L33.4261 14.808L33.4319 14.7351L33.4338 14.6868L33.4344 14.6613L33.4383 14.5911L33.4402 14.5188L33.4417 14.4856L33.4435 14.4455L33.4454 14.3742L33.4471 14.3013V14.2841L33.4475 14.2269L33.4493 14.0818L33.4475 13.9345L33.4471 13.8731V13.8616L33.4433 13.7159L33.4394 13.6643V13.6442L33.4375 13.5713L33.4336 13.4984L33.433 13.4578L33.4311 13.4261L33.4253 13.3533L33.4215 13.2816L33.4203 13.2513L33.4165 13.2104L33.4107 13.1364L33.4049 13.0641L33.4037 13.0449L33.3979 12.9939L33.3921 12.9205L33.3844 12.8488L33.3833 12.8392L33.3755 12.7763L33.3582 12.6365L33.3485 12.5623L33.3389 12.4915L33.3312 12.4345L33.3292 12.4211L33.3176 12.3494L33.3061 12.2775L33.2984 12.2309L33.2945 12.2069L33.2829 12.1362L33.2694 12.0662L33.2559 11.9966L33.2424 11.9248L33.2269 11.8552L33.2212 11.8274L33.2134 11.7839L33.198 11.7133L33.1826 11.6443L33.1787 11.627L33.1652 11.5737L33.1498 11.5047L33.1343 11.4341L33.1337 11.4284L33.1164 11.3653L33.099 11.2945L33.0816 11.2293L33.0799 11.2255L33.0625 11.1565L33.0432 11.0874L33.0297 11.0324L33.0259 11.019L33.0056 10.9505L32.9863 10.8809L32.9747 10.837L32.967 10.8119L32.9462 10.7434L32.9244 10.6738L32.9147 10.6402L32.9051 10.6059L32.8821 10.5375L32.8597 10.47L32.852 10.4456L32.8365 10.4009L32.813 10.3336L32.79 10.2657L32.7862 10.2523L32.7653 10.1969L32.7414 10.1296L32.7167 10.0621L32.7161 10.0602L32.692 9.99612L32.6654 9.92804L32.6424 9.86668L32.6405 9.85901L32.6131 9.79227L32.5864 9.72535L32.5662 9.6753L32.5585 9.65996L32.5305 9.59418C32.4249 9.84424 32.3286 10.0991 32.2418 10.3557C32.0689 10.8581 31.9305 11.3689 31.8286 11.8907C31.6874 12.6062 31.6154 13.3377 31.6154 14.0814C31.6154 14.7761 31.6783 15.46 31.8008 16.1307C31.8626 16.4673 31.9386 16.7986 32.0305 17.1271L32.0868 17.3227L32.147 17.5195L32.2105 17.7141L32.2761 17.9088L32.3468 18.1001L32.4201 18.293L32.4961 18.4821L32.4965 18.486L32.5359 18.5669ZM28.7077 18.4978L28.7411 18.4347L28.7488 18.4194L28.7724 18.3705L28.804 18.3047L28.8214 18.2672L28.8349 18.2395L28.8656 18.1741L28.894 18.1145L28.8957 18.1107L28.9252 18.0428L28.9548 17.9774L28.9605 17.9621L28.9823 17.9111L29.0107 17.8447L29.0262 17.8098L29.0377 17.7789L29.0651 17.712L29.1176 17.5793L29.1427 17.5114L29.1504 17.498L29.1697 17.4447L29.1956 17.3785L29.2072 17.3427L29.2187 17.3116L29.2417 17.2431L29.2658 17.1762L29.2888 17.1089L29.3102 17.042L29.316 17.0286L29.3334 16.9743L29.3552 16.9053L29.3648 16.8715L29.3745 16.8357L29.3947 16.7682L29.4121 16.7133L29.4179 16.6999L29.4353 16.6309L29.4546 16.5612L29.4565 16.5536L29.4739 16.4932L29.4912 16.4253L29.499 16.3927L29.5086 16.3557L29.526 16.2866L29.5395 16.2312L29.5433 16.2159L29.5588 16.1469L29.5742 16.0763L29.5761 16.0686L29.5897 16.0061L29.6032 15.9359L29.6167 15.8669L29.6321 15.7978L29.6418 15.7436L29.6456 15.7263L29.6572 15.6567L29.6707 15.5861L29.6717 15.5804L29.6813 15.5158L29.691 15.4446L29.6948 15.4162L29.7006 15.3733L29.7103 15.3033L29.7161 15.2515L29.7178 15.2314L29.7255 15.1602L29.7352 15.0885L29.7361 15.0866L29.7419 15.0191L29.7496 14.9474L29.7508 14.9198L29.7566 14.8762L29.7604 14.8055L29.7662 14.7539L29.7672 14.7317L29.773 14.6609L29.7768 14.588L29.7807 14.5159L29.7846 14.4442L29.7851 14.4198L29.7871 14.3725L29.7886 14.3008L29.7898 14.2519V14.2279L29.7904 14.1545V14.0833L29.7898 13.9376L29.7892 13.9082L29.7886 13.8637L29.7809 13.649L29.777 13.5767L29.7755 13.5613L29.7736 13.5053L29.7678 13.4325L29.7658 13.3886L29.762 13.3613L29.7581 13.29L29.7523 13.2177L29.7446 13.1466L29.7369 13.0754L29.735 13.0443L29.7135 12.8731L29.713 12.8597L29.6917 12.7189L29.69 12.7036L29.6823 12.6482L29.6726 12.578L29.663 12.5333L29.6591 12.5072L29.6476 12.4372L29.634 12.3676L29.6335 12.3638L29.62 12.2974L29.6064 12.2269L29.6007 12.1952L29.5929 12.1561L29.5775 12.0877L29.564 12.0267L29.5623 12.0171L29.5468 11.9477L29.5314 11.8781L29.5275 11.8589L29.5159 11.809L29.4986 11.7394L29.487 11.6938L29.4812 11.6698L29.4619 11.6013L29.4426 11.5323L29.4416 11.5304L29.4243 11.465L29.4029 11.3956L29.3951 11.3639L29.3855 11.3269L29.3641 11.2596L29.3444 11.2004L29.3428 11.1908L29.3199 11.1227L29.2985 11.0548L29.2927 11.0376L29.2907 11.0337L29.2514 10.9217L29.234 10.8761L29.2282 10.8521L29.2043 10.7858L29.1784 10.7194L29.1769 10.7137L29.1522 10.6523L29.1271 10.5848L29.1136 10.5528L29.0516 10.399L29.0501 10.3933L29.0462 10.3856L29.0182 10.3198L28.9905 10.254L28.9827 10.2333L28.9621 10.1865L28.9326 10.1213L28.9133 10.0757L28.9036 10.0556L28.8735 9.99036L28.8428 9.92516L28.839 9.91749L28.8121 9.85997L28.7805 9.79477L28.7631 9.76159L28.7477 9.72899L28.7143 9.66533C28.6552 9.83542 28.6001 10.0067 28.5464 10.1785C28.1618 11.4353 27.9599 12.7381 27.9599 14.0835C27.9599 15.2135 28.1039 16.3192 28.3795 17.3933C28.4752 17.7663 28.5869 18.1364 28.7143 18.499L28.7077 18.4978ZM6.48201 0L6.51424 0.0222443L6.54705 0.0456391L6.57927 0.0678834L6.61266 0.0901277L6.64489 0.112947L6.67731 0.134808L6.70896 0.158778L6.72247 0.168366L6.73983 0.181789L6.77206 0.205759L6.80448 0.227428L6.83671 0.250248L6.86952 0.274218L6.90117 0.296462L6.93359 0.318707L6.96041 0.338266L6.96427 0.342102L6.99592 0.364921L7.02718 0.388316L7.05941 0.411711L7.09125 0.43453L7.1229 0.45735L7.15416 0.481895L7.18523 0.504715L7.19488 0.50855L7.21785 0.525809L7.24969 0.549587L7.28018 0.572023L7.31144 0.597527L7.3427 0.619196L7.37435 0.643166L7.40562 0.667136L7.42684 0.682477L7.43649 0.690148L7.46718 0.712967L7.49844 0.737896L7.52893 0.761291L7.55961 0.784686L7.59184 0.80904L7.62253 0.832434L7.65263 0.85698L7.65649 0.858897L7.68273 0.879608L7.71438 0.905112L7.74507 0.928507L7.77517 0.950751L7.8047 0.975296L7.83519 1.0008L7.88228 1.03781L7.89579 1.0474L7.92589 1.07233L7.956 1.09572L7.98668 1.11969L8.01678 1.14405L8.04631 1.16917L8.0768 1.19237L8.13605 1.24146L8.16712 1.26639L8.19722 1.29189L8.22617 1.31586L8.25569 1.33983L8.2858 1.36591L8.40236 1.46314L8.43304 1.48711L8.46199 1.51261L8.75185 1.2685C9.04016 1.03206 9.33677 0.800986 9.63975 0.575475L9.86843 0.406533L10.1004 0.238934L11.3974 1.16092L11.1807 1.31644L10.9675 1.47349L10.7558 1.6338L10.5477 1.79469L10.341 1.95673V1.95865L10.138 2.12164L9.93848 2.28924L9.74087 2.45665L9.61891 2.56365L9.63627 2.58091L9.65364 2.59817L9.68915 2.63307L9.70652 2.65033L9.72389 2.66759L9.74125 2.68485L9.75862 2.7021L9.77599 2.71936L9.77985 2.7232L9.79143 2.73662L9.8088 2.75388L9.82617 2.77114L9.84353 2.7884L9.85897 2.80565L9.87634 2.82291L9.89371 2.84017L9.90915 2.85973L9.92845 2.87507L9.94582 2.89233L9.96318 2.91151L9.97283 2.92109L9.98055 2.93068L9.99792 2.94794L10.0153 2.96328L10.0327 2.98246L10.0481 3.00163L10.0655 3.01698L10.0828 3.03423L10.1002 3.05341L10.1156 3.07067L10.133 3.08984L10.1504 3.1071L10.1639 3.12053L10.1677 3.12436L10.1851 3.14162L10.2005 3.1608L10.2179 3.17805L10.2353 3.19531L10.2527 3.21257L10.2681 3.23175L10.2855 3.24709L10.3009 3.26626L10.3183 3.28352L10.3337 3.3027L10.3511 3.31996L10.3671 3.33894L10.3845 3.3562L10.4018 3.37154L10.4173 3.3911L10.4346 3.41028L10.452 3.42754L10.4674 3.44479L10.4829 3.46205L10.5002 3.47931L10.5157 3.49849L10.5475 3.53435L10.5649 3.5516L10.5803 3.57174L10.5977 3.589L10.6131 3.60817L10.6305 3.62352L10.6459 3.64077L10.6614 3.65995L10.6768 3.67721L10.6923 3.69638L10.7928 3.60338L10.9717 3.44537L11.1523 3.28602L11.3355 3.13107L11.5221 2.97517L11.7102 2.82291L11.9011 2.67123L12.0948 2.5207L12.2911 2.37285L12.4891 2.22558L12.691 2.08252L13.987 3.00604L13.8016 3.13874L13.6176 3.27355L13.4372 3.41104L13.2589 3.54854L13.0821 3.68833L12.9077 3.83004L12.7359 3.9731L12.5663 4.11596L12.2359 4.41012L12.074 4.55797L11.9142 4.70754L11.7567 4.85961L11.69 4.92653L11.7054 4.94609L11.7208 4.96623L11.751 5.00803L11.7664 5.02931L11.7818 5.04945L11.7973 5.07112L11.8127 5.09279L11.8281 5.11235L11.8417 5.13363L11.8571 5.15434L11.8725 5.17544L11.886 5.195L11.888 5.19883L11.9158 5.23853L11.9293 5.25809L11.9447 5.27937L11.9601 5.30162L11.9737 5.32271L11.9891 5.34399L12.0045 5.36413L12.02 5.38522L12.0354 5.40536L12.0412 5.41495L12.0508 5.42837L12.0644 5.45004L12.0779 5.47075L12.0933 5.49127L12.1068 5.51428L12.1222 5.53537L12.1377 5.55551L12.1512 5.5766L12.1666 5.59731L12.2104 5.66098L12.2239 5.68379L12.2394 5.7045L12.2529 5.72464L12.2664 5.74573L12.2818 5.76644L12.2953 5.78869L12.3089 5.80997L12.3224 5.83164L12.3359 5.85274L12.3374 5.85389L12.3509 5.8746L12.3644 5.89531L12.3779 5.91525L12.3934 5.93769L12.4069 5.96051L12.4204 5.98218L12.4339 6.00289L12.4474 6.0236L12.4609 6.04526L12.4744 6.06655L12.4802 6.07614L12.4879 6.08956L12.5015 6.11065L12.515 6.13252L12.5304 6.15418L12.5439 6.17489L12.5574 6.19656L12.5709 6.21842L12.5844 6.24124L12.5979 6.26234L12.6115 6.28362L12.6896 6.19714L12.8241 6.05409L12.9615 5.9118L13.1014 5.77047L13.2421 5.6301L13.3859 5.48935L13.5331 5.35454L13.6813 5.21705L13.8324 5.08224L13.9849 4.94954L14.1402 4.81761L14.2985 4.68664L14.4581 4.55758L14.6184 4.42757L14.7825 4.30158L14.9482 4.1754L15.1161 4.05153L15.2875 3.92918L16.4767 4.77657V4.92941C16.2551 5.08972 16.0386 5.25329 15.829 5.4207C15.6349 5.57718 15.4438 5.7371 15.2607 5.9001L14.9882 6.14594L14.724 6.39753C14.5517 6.56609 14.3826 6.73944 14.2224 6.91452L13.9828 7.17915L13.7531 7.4478C13.6491 7.57226 13.5468 7.70208 13.4472 7.83209L13.4916 7.9228L13.5343 8.01523L13.5764 8.10919L13.5879 8.13258L13.6171 8.20066L13.6586 8.29347L13.6914 8.36806L13.6991 8.38762L13.7373 8.47948L13.8118 8.65992L13.8156 8.6676L13.8529 8.76098L13.8857 8.84152L13.8896 8.85686L13.9256 8.95102L13.9617 9.04556L13.9752 9.08199L13.9959 9.13952L14.0304 9.23521L14.0615 9.32112L14.0634 9.3307L14.0974 9.42582L14.1296 9.52112L14.1451 9.56389L14.1605 9.61624L14.1923 9.71135L14.2224 9.80531L14.2228 9.80723L14.252 9.90349L14.2809 9.99976L14.2944 10.0481L14.3099 10.0976L14.3379 10.1932L14.3651 10.2901L14.3656 10.292L14.3892 10.3854L14.4166 10.4828L14.4301 10.5376L14.4417 10.5812L14.4658 10.6773L14.4893 10.7747L14.4913 10.7862L14.5115 10.8748L14.5339 10.9708L14.5474 11.0324L14.5551 11.0692L14.5748 11.1682L14.5961 11.2671L14.598 11.2805L14.6154 11.3641L14.6327 11.4631L14.6443 11.5312L14.6501 11.562L14.6675 11.6604L14.6848 11.7588L14.6887 11.7822L14.7171 11.9594L14.7286 12.0334L14.7306 12.0568L14.7578 12.2574L14.7616 12.2879L14.7713 12.3569L14.7906 12.5214L14.7921 12.5387L14.7941 12.5559L14.7946 12.5598L14.8143 12.7594L14.8182 12.7935L14.8379 13.0202L14.8388 13.0474L14.8394 13.0628L14.8471 13.1627L14.8548 13.2637L14.8564 13.304L14.8602 13.3659L14.868 13.5611L14.8685 13.5688L14.8724 13.6704C14.8763 13.8047 14.8782 13.9427 14.8782 14.0802C14.8782 14.2168 14.8763 14.351 14.8724 14.4891L14.8685 14.5848V14.5905L14.8628 14.6922L14.8589 14.7944L14.857 14.8367L14.855 14.8954L14.8473 14.9976L14.8415 15.0868L14.8396 15.0983L14.8338 15.1969L14.8242 15.2985L14.8222 15.337L14.8164 15.4001L14.801 15.5696L14.7991 15.5869L14.7975 15.6003L14.7879 15.7002L14.7763 15.8003L14.7724 15.8335L14.7628 15.9008L14.7493 16.0003L14.7377 16.0807L14.7338 16.1014L14.7043 16.2999L14.7005 16.3275L14.6889 16.3998L14.6715 16.4982L14.658 16.5716L14.6522 16.5971L14.6348 16.6966L14.6175 16.7939L14.6136 16.8157L14.5766 16.9912L14.5631 17.0598L14.5573 17.0907L14.5353 17.1885L14.5135 17.2859L14.5096 17.3013L14.4899 17.3822L14.4664 17.4805L14.4509 17.5425L14.4413 17.578L14.4162 17.6758L14.3911 17.7715L14.3873 17.7849L14.3641 17.8691L14.3369 17.9674L14.3214 18.024L14.3099 18.0631L14.2803 18.1582L14.252 18.2551L14.25 18.2627L14.2226 18.3519L14.1922 18.4466L14.1767 18.4988L14.1632 18.5433L14.131 18.6378L14.0987 18.7347L14.0654 18.8286L14.0314 18.9237L14.016 18.97L13.9986 19.0179L13.9631 19.1124L13.9297 19.2031L13.9291 19.2089L13.8925 19.3034L13.8542 19.3959L13.8388 19.4388L13.8176 19.4915L13.7798 19.5845L13.7442 19.6705L13.7423 19.6781L13.7029 19.7717L13.6624 19.8636L13.647 19.9004L13.6211 19.956L13.5802 20.0505L13.5441 20.1288L13.5383 20.1403L13.4947 20.2327L13.453 20.3251L13.5773 20.4872L13.691 20.6295L13.807 20.7704L13.9268 20.9088L14.0476 21.0475L14.2966 21.3194L14.4251 21.4536L14.6883 21.72L14.8217 21.8504L14.9596 21.9798L15.0986 22.107L15.2402 22.2347L15.3836 22.3609L15.5301 22.4847L15.8277 22.7315L16.133 22.9707L16.2889 23.0892L16.4469 23.2038L16.6067 23.3202L16.7698 23.4332L16.9332 23.5463L15.638 24.4693C14.494 23.693 13.4777 22.8213 12.6149 21.8744L12.6014 21.8955L12.5898 21.915L12.5748 21.9378L12.5613 21.9585L12.5478 21.9814L12.5343 22.0027L12.5207 22.0243L12.5072 22.0456L12.4937 22.0679L12.4802 22.0889L12.4667 22.1108L12.4387 22.1543L12.4252 22.1749L12.4117 22.1967L12.3982 22.2178L12.3847 22.2391L12.3712 22.2619L12.3577 22.2824L12.3422 22.3031L12.3287 22.3244L12.3133 22.3467L12.3118 22.3505L12.3002 22.3678L12.2867 22.3894L12.2732 22.4117L12.2596 22.4324L12.2461 22.4537L12.2326 22.4736L12.2191 22.4955L12.2056 22.5166L12.1902 22.539L12.1767 22.5601L12.1747 22.5659L12.1632 22.5812L12.1496 22.6023L12.1342 22.6224L12.1207 22.6437L12.1053 22.6654L12.0918 22.6861L12.0782 22.7083L12.0647 22.729L12.0493 22.7501L12.0358 22.7708L12.03 22.7766L12.0223 22.7919L11.9922 22.8343L11.9767 22.8545L11.9462 22.8972L11.9327 22.9179L11.9173 22.9386L11.9019 22.9597L11.8884 22.9804L11.8826 22.99L11.8748 23.0015L11.8594 23.0215L11.844 23.0428L11.8285 23.0629L11.8131 23.0851L11.7977 23.1053L11.7822 23.1254L11.7668 23.1461L11.7513 23.1666L11.7359 23.1891L11.7282 23.1987L11.7205 23.2083L11.705 23.2284L11.8384 23.3584L12.0014 23.5137L12.1666 23.6671L12.3357 23.8198L12.5059 23.9699L12.6786 24.1193L12.8542 24.2683L13.0316 24.4139L13.2126 24.5575L13.3959 24.7L13.5818 24.8401L13.7695 24.9803L13.9598 25.1184L14.1518 25.2549L14.3471 25.388L14.0644 25.5907L13.0507 26.3138C12.91 26.217 12.7701 26.1192 12.6321 26.0191C12.4254 25.871 12.2236 25.7207 12.0238 25.5679V25.566L11.8264 25.4127C11.6958 25.3111 11.5667 25.2039 11.4391 25.0979L11.2504 24.9387C11.1245 24.8311 11.0014 24.7234 10.88 24.6142L10.7067 24.4593L10.6913 24.4766L10.6759 24.4938L10.6585 24.513L10.6431 24.5303L10.6276 24.5475L10.6102 24.5667L10.5929 24.584L10.5774 24.6031L10.562 24.6204L10.5562 24.6261L10.5446 24.6376L10.5292 24.6549L10.5118 24.6745L10.4964 24.6917L10.479 24.709L10.4636 24.7282L10.4462 24.7454L10.4308 24.7627L10.4134 24.7834L10.398 24.8006L10.3806 24.8179L10.3748 24.8237L10.3632 24.8352L10.3478 24.8524L10.3304 24.8716L10.3131 24.8888L10.2957 24.9061L10.2783 24.9234L10.261 24.9406L10.2455 24.9602L10.2281 24.9774L10.2108 24.9947L10.1934 25.012L10.1857 25.0196L10.176 25.0292L10.1587 25.0465L10.1432 25.0637L10.1259 25.0829L10.1085 25.1002L10.0741 25.1345L10.0568 25.1518L10.0394 25.169L10.022 25.1882L10.0066 25.2054L9.99888 25.2131L9.98923 25.2227L9.97187 25.24L9.9545 25.2591L9.93713 25.2745L9.90316 25.3098L9.8858 25.3289L9.8665 25.3443L9.84913 25.3615L9.83176 25.3788L9.81439 25.3961L9.80475 25.4056L9.7951 25.4133L9.77773 25.4306L9.76036 25.4459L9.74492 25.4651L9.72755 25.4823L9.71019 25.4996L9.69282 25.5169L9.67545 25.536L9.65808 25.5533L9.64071 25.5706L9.62334 25.5878L9.81324 25.7522L10.0168 25.9244L10.2224 26.0956L10.4319 26.2624L10.6442 26.4295L10.858 26.5936L11.0757 26.7549L11.2969 26.916L11.5205 27.0751L11.7459 27.2306L10.4505 28.1553H10.4483L10.2088 27.9873L9.97071 27.8167L9.73411 27.6454C9.29586 27.3219 8.87304 26.985 8.46604 26.6402L8.44211 26.6603L8.41799 26.6826L8.39329 26.7023L8.39136 26.7039L8.37013 26.7234L8.34389 26.7441L8.32034 26.7637L8.29506 26.7848L8.27152 26.8043L8.24643 26.8251L8.22173 26.8442L8.19664 26.8676L8.17696 26.8849L8.17117 26.8864L8.14608 26.9071L8.12196 26.9278L8.09629 26.9486L8.07178 26.9685L8.0465 26.9882L8.02142 27.0093L7.99614 27.0289L7.9201 27.0903L7.89501 27.1098L7.87089 27.1305L7.84523 27.1497L7.81898 27.171L7.79428 27.1917L7.76919 27.209L7.7441 27.2303L7.73831 27.2341L7.71709 27.2494L7.69238 27.2705L7.66672 27.2897L7.64105 27.3098L7.61481 27.3303L7.5901 27.3476L7.56328 27.3699L7.53819 27.3894L7.51465 27.4086L7.51272 27.4095L7.48686 27.4291L7.46119 27.4492L7.43495 27.4684L7.40812 27.4876L7.38304 27.5081L7.35679 27.5277L7.33113 27.5478L7.30527 27.567L7.2879 27.5804L7.27825 27.5862L7.252 27.6057L7.22537 27.6259L7.19951 27.6431L7.17269 27.6632L7.1476 27.6828L7.12078 27.7035L7.09395 27.7208L7.06771 27.7415L7.05999 27.7472L7.0403 27.7607L6.98839 27.8002L6.96157 27.8193L6.93474 27.8389L6.90753 27.8581L6.88129 27.8773L6.85389 27.8964L6.82764 27.9156L5.53158 26.9927L5.5613 26.9719L5.59025 26.9507L5.61978 26.9296L5.6493 26.9083L5.67709 26.8876L5.7072 26.8671L5.73518 26.8448L5.74869 26.8371L5.76606 26.8237L5.79558 26.802L5.82453 26.7804L5.85309 26.7597L5.91156 26.7167L5.94051 26.6945L5.96309 26.6772L5.96695 26.6753L5.99647 26.654L6.02446 26.6329L6.05225 26.6107L6.08177 26.5888L6.10975 26.5677L6.13812 26.5459L6.16726 26.5248L6.17498 26.519L6.19582 26.5037L6.22477 26.4826L6.25217 26.4613L6.30794 26.4162L6.33593 26.3944L6.36487 26.3727L6.38224 26.3574L6.39189 26.3516L6.4191 26.3294L6.44766 26.3071L6.47449 26.286L6.50227 26.2626L6.52968 26.2408L6.55805 26.2179L6.58545 26.1968L6.58738 26.1949L6.61208 26.1754L6.63987 26.1531L6.66669 26.1318L6.69352 26.1081L6.72208 26.0858L6.7489 26.0645L6.77611 26.0417L6.79155 26.0302L6.80313 26.0206L6.82996 25.999L6.85774 25.9756L6.8836 25.9522L6.91081 25.9293L6.93822 25.9077L6.96504 25.8858L6.99013 25.862L6.99206 25.8615L7.01888 25.8396L7.04513 25.8179L7.07079 25.7934L7.09762 25.7717L7.12444 25.7495L7.15185 25.7261L7.17751 25.7021L7.18716 25.6944L7.2026 25.6791L7.22827 25.6572L7.25567 25.634L7.28192 25.6112L7.30758 25.5882L7.14567 25.4269C6.8836 25.1665 6.63041 24.9007 6.38475 24.6294L6.2294 24.4539L6.20045 24.4804L6.17189 24.5067L6.14295 24.5337L6.11226 24.5604L6.08389 24.587L6.05495 24.6125L5.81681 24.8229L5.7869 24.849L5.72669 24.9007L5.696 24.9274L5.6659 24.9517L5.63579 24.9778L5.60569 25.0029L5.54451 25.0545L5.51383 25.08L5.48373 25.1067L5.45362 25.1312L5.42139 25.1573L5.32896 25.2333L5.29769 25.2584L5.26662 25.2839L5.23594 25.3094L5.17245 25.3583L5.14138 25.3844L5.10896 25.4101L5.07731 25.4361L5.04605 25.459L4.98217 25.51L4.94994 25.5345L4.9181 25.5589L4.88645 25.584L4.79015 25.6572L4.75735 25.6824L4.72551 25.7063L4.6927 25.7307L4.65989 25.7552L4.6321 25.7775L4.62631 25.7794L4.59467 25.8034L4.56128 25.8277L4.52963 25.8523L4.49567 25.8768L4.46286 25.9L4.43333 25.9234L4.42947 25.9245L4.39667 25.9485L4.36328 25.9734L4.32951 25.9968L4.29728 26.0214L4.2639 26.0442L4.23051 26.0686L2.93349 25.145L2.97286 25.1178L3.01281 25.089L3.05102 25.0603L3.08981 25.0331L3.11952 25.0114L3.12917 25.0056L3.16738 24.9763L3.20579 24.9487L3.244 24.9199L3.28221 24.891L3.30363 24.8756L3.321 24.8641L3.35863 24.8336L3.39703 24.8054L3.43524 24.7771L3.48445 24.7412L3.51012 24.7205L3.54736 24.6923L3.58577 24.6612L3.62243 24.6325L3.65948 24.6031L3.66141 24.6016L3.69654 24.5738L3.73378 24.545L3.77045 24.5157L3.8075 24.4873L3.83818 24.4612L3.84397 24.4574L3.88064 24.4263L3.91731 24.3985L3.95455 24.3692L3.99064 24.3393L4.01148 24.322L4.02692 24.3086L4.06301 24.2781L4.09967 24.2493L4.13518 24.2183L4.17146 24.1889L4.18497 24.1774L4.20639 24.1582L4.24132 24.1274L4.27856 24.0975L4.31253 24.0675L4.3492 24.0355L4.35305 24.0336L4.38355 24.0071L4.42021 23.9761L4.45475 23.9446L4.48911 23.9162L4.52153 23.8875L4.52346 23.8856L4.55896 23.8545L4.59351 23.824L4.62747 23.7931L4.66298 23.7621L4.68537 23.7419L4.69695 23.7304L4.72994 23.6999L4.76487 23.6679L4.79826 23.6374L4.83261 23.6054L4.84612 23.5939L4.86542 23.5766L4.8988 23.5446L4.93219 23.5124L4.96557 23.4809L4.99896 23.4499L5.00668 23.4422L5.03234 23.4171L5.06631 23.3851L5.09854 23.3546L5.1325 23.322L5.16357 23.2911L5.19754 23.2589L5.22976 23.2269L5.18654 23.1688L5.03022 22.9546V22.9526L4.87757 22.7367L4.72763 22.5189L4.58154 22.2982L4.4399 22.0774L4.31137 21.8709L4.27586 21.911L4.2392 21.9492L4.23341 21.953L4.20176 21.9879L4.16567 22.027L4.12843 22.0677L4.05297 22.1467L4.01515 22.1852L3.97809 22.2243L3.96266 22.2397L3.94085 22.2613L3.90264 22.3016L3.86366 22.3402L3.82487 22.3783L3.82294 22.3798L3.78685 22.418L3.74845 22.4554L3.70908 22.4951L3.68226 22.5212L3.67068 22.5327L3.63189 22.5695L3.59194 22.6082L3.55199 22.6451L3.53849 22.6585L3.51166 22.684L3.47056 22.7221L3.43177 22.7595L3.3924 22.796L3.35091 22.8336L3.30922 22.8721L3.26831 22.9097L3.24361 22.9325L3.22817 22.9459L3.18765 22.9845L3.14616 23.0209L3.10389 23.0568L3.09231 23.0683L3.06163 23.0947L3.02014 23.1329L2.97749 23.1693L2.94025 23.2014L2.93446 23.2052L2.89239 23.2428L2.8509 23.2792L2.80709 23.3156L2.78528 23.3348L2.76444 23.3521L2.72179 23.3885L2.67799 23.4248L2.63418 23.4597L2.62646 23.4654L2.59153 23.4947L2.54772 23.53L2.50353 23.5653L2.46744 23.5943L2.45973 23.6019L2.41534 23.6378L2.37057 23.6725L2.32676 23.7084L2.30708 23.7237L2.28141 23.741L2.23664 23.7774L2.19226 23.8112L2.1469 23.8464L2.14305 23.8484L2.10078 23.8798L2.05485 23.9147L2.01008 23.9494L1.97612 23.9722L1.96261 23.9837L1.91668 24.0169L1.87017 24.0516L1.82424 24.0842L1.80687 24.0957L1.77619 24.1182L1.73026 24.1529L1.68317 24.1855L1.63667 24.2181L0.340224 23.2972L0.494994 23.1864L0.512362 23.173L0.57045 23.1317L0.627379 23.0897L0.648606 23.0725L0.683729 23.047L0.739886 23.0044L0.795271 22.9626L0.799131 22.9607L0.850657 22.9216L0.905849 22.8786L0.947919 22.8443L0.961427 22.8347L1.01662 22.7921L1.07085 22.7488L1.09536 22.7287L1.12546 22.7058L1.17853 22.6617L1.23276 22.6161L1.24048 22.6103L1.28699 22.5745L1.33948 22.5298L1.38328 22.4936L1.39293 22.484L1.44484 22.441L1.49753 22.3954L1.52474 22.3726L1.5506 22.3497L1.60135 22.3053L1.65384 22.259L1.66349 22.2514L1.75438 22.1687L1.80031 22.1285L1.8061 22.1246L1.85647 22.0778L1.90626 22.031L1.93521 22.0044L1.95605 21.9852L2.00642 21.939L2.05505 21.8922L2.06855 21.8788L2.10522 21.8456L2.15327 21.7984L2.19978 21.7537L2.20152 21.7522L2.24899 21.7049L2.29666 21.6571L2.32889 21.626L2.34432 21.6088L2.39083 21.561L2.4385 21.5127L2.45587 21.4974L2.48655 21.4648L2.53248 21.418L2.57899 21.3702L2.58015 21.3664L2.62492 21.3208L2.66969 21.2724L2.70307 21.2364L2.71658 21.223L2.76097 21.1746L2.80477 21.1267L2.82407 21.105L2.8509 21.0761L2.89412 21.0272L2.93851 20.9773L2.9443 20.9716L2.98154 20.9276L3.02477 20.8776L3.05912 20.8385L3.06877 20.8289L3.11142 20.7779L3.15291 20.7294L3.17433 20.7027L3.19614 20.6772L3.23666 20.6272L3.27758 20.5761L3.2853 20.5685L3.31868 20.5265L3.35979 20.4755L3.39529 20.4308L3.40108 20.4231L3.44084 20.3736L3.47982 20.3213L3.44856 20.2534L3.34087 20.0197L3.23859 19.7849L3.13902 19.5479L3.04426 19.3109L2.95356 19.0718L2.86711 18.8321L2.78567 18.5907L2.70674 18.3488L2.63302 18.1053L2.56355 17.8606L2.49736 17.615L2.43715 17.3688L2.37906 17.1208L2.32773 16.8713L2.27948 16.6213L2.23645 16.3712L2.19689 16.1196L2.16254 15.8673L2.13185 15.6136L2.10677 15.3591L2.0865 15.1031L2.06913 14.8477L2.05755 14.5905L2.04984 14.3316L2.04598 14.0735L2.04984 13.8202L2.05755 13.568L2.0672 13.3163L2.08264 13.0653L2.10291 12.8146L2.12799 12.5667L2.15636 12.3199L2.18917 12.071L2.22699 11.8247L2.2681 11.5803L2.3146 11.3361L2.36439 11.092L2.41843 10.8485L2.4769 10.6076L2.53981 10.3674L2.60562 10.1288L2.67664 9.88969L2.75209 9.65152L2.82986 9.41681L2.91362 9.18037L2.99988 8.94757L3.09019 8.71343L3.18475 8.48178L3.28394 8.25128L3.38661 8.02251L3.47866 7.82462L3.46515 7.80391L3.43563 7.76747L3.3924 7.7109L3.35419 7.66258L3.3484 7.65683L3.30363 7.60083L3.25982 7.54599L3.24052 7.52202L3.21428 7.48942L3.16777 7.43457L3.12338 7.38184L3.12242 7.37992L3.07649 7.32604L3.02882 7.27119L3.00528 7.24339L2.98174 7.21673L2.93426 7.16247L2.8866 7.10801L2.88467 7.10609L2.83855 7.05565L2.78991 7.00234L2.76039 6.96744L2.7407 6.94827L2.69149 6.894L2.64286 6.84127L2.63514 6.83359L2.5925 6.78796L2.54097 6.73637L2.50662 6.69994L2.49118 6.6846L2.44043 6.63301L2.38832 6.5797L2.37674 6.56628L2.33738 6.52659L2.28604 6.47539L2.24494 6.43358L2.23336 6.42399L2.18087 6.37241L2.12722 6.31968L2.10985 6.30242L2.07434 6.26982L2.0207 6.21919L1.96705 6.16761L1.91243 6.11698L1.85763 6.06598L1.83408 6.04412L1.80244 6.01708L1.74724 5.96703L1.69089 5.91698L1.63551 5.86808L1.57858 5.81918L1.54867 5.79195L1.52184 5.76913L1.40683 5.67191L1.40297 5.66615L1.3499 5.62262L1.29297 5.57373L1.25476 5.54228L1.23392 5.52694L1.11639 5.43067L1.10674 5.42492L1.05792 5.38369L0.997322 5.33479L0.954673 5.30258L0.937305 5.28915L0.817464 5.1973L0.800096 5.18579L0.754746 5.14993L0.643203 5.06786L0.631624 5.05827L0.57045 5.01206L0.507924 4.96642L0.486117 4.95108L0.445591 4.92289L0.38268 4.87706L0.325365 4.83755L0.319575 4.83372L0.257629 4.78904L0.193752 4.74283L0.164226 4.72231L0.129104 4.69891L0.0652274 4.65481L0 4.61032L1.29586 3.68718L1.34951 3.72361L1.40258 3.7612L1.45681 3.79763L1.47611 3.81106L1.51007 3.83388L1.56256 3.87089L1.61505 3.91001L1.65345 3.93666L1.66696 3.94625L1.71945 3.98268L1.77156 4.02123L1.82289 4.05824L1.82868 4.06207L1.87519 4.09736L1.92768 4.13494L1.97843 4.17233L2.00256 4.18959L2.0288 4.20973L2.07975 4.25038L2.1305 4.28797L2.17334 4.31942L2.18106 4.329L2.23085 4.36601L2.33101 4.44329L2.34066 4.45096L2.3806 4.48375L2.42866 4.52172L2.4796 4.56199L2.50739 4.58424L2.52823 4.59958L2.57744 4.6387L2.62607 4.67954L2.67046 4.71809L2.67432 4.71924L2.72353 4.75893L2.77062 4.79958L2.81809 4.84101L2.83353 4.85251L2.86633 4.88032L2.914 4.92212L2.9609 4.96124L2.99332 4.99L3.00875 5.00151L3.05468 5.04293L3.10235 5.0832L3.1477 5.12558L3.14963 5.1275L3.19402 5.16719L3.24052 5.20689L3.28587 5.25042L3.30517 5.26576L3.332 5.29068L3.37696 5.33268L3.42231 5.37506L3.4584 5.40651L3.46805 5.4161L3.51185 5.45963L3.55778 5.50143L3.60101 5.544L3.60873 5.54975L3.64655 5.58504L3.69036 5.62742L3.73397 5.67037L3.75655 5.69319L3.7772 5.7139L3.82101 5.75724L3.86308 5.80019L3.90148 5.83835L3.90727 5.84411L3.94876 5.88706L3.99102 5.92944L4.03251 5.97355L4.04409 5.98505L4.07458 6.01765L4.11743 6.06176L4.15892 6.10414L4.184 6.13405L4.19944 6.14939L4.24035 6.19292L4.28204 6.23587L4.32083 6.28209L4.34707 6.24009L4.48389 6.02168L4.62284 5.8048L4.76603 5.59117L4.9127 5.37755L5.06206 5.16662L5.21568 4.95683L5.23864 4.92634L5.20159 4.88933L5.16434 4.85289L5.1271 4.81646L5.10471 4.79537L5.08927 4.78003L5.05106 4.74359L5.0144 4.70677L4.97657 4.6713L4.94107 4.6387L4.93721 4.63486L4.89957 4.599L4.86117 4.56429L4.82354 4.52786L4.78398 4.49353L4.77626 4.48586L4.74616 4.45748L4.70794 4.42335L4.66858 4.38692L4.62902 4.35221L4.60837 4.33303L4.58907 4.31769L4.5497 4.28183L4.51091 4.24866L4.47097 4.2128L4.43642 4.18288L4.43063 4.17905L4.39011 4.14491L4.35074 4.10963L4.31195 4.07473L4.27046 4.04002L4.26467 4.03427L4.23071 4.00665L4.14907 3.93762L4.10816 3.90214L4.08848 3.8868L4.06822 3.86763L4.02499 3.8333L3.98446 3.79955L3.94355 3.76753L3.91074 3.73934L3.9011 3.73167L3.8596 3.69792L3.8185 3.66589L3.77585 3.63061L3.7332 3.59897L3.72741 3.59513L3.69094 3.56522L3.64868 3.53205L3.60545 3.49887L3.56338 3.46685L3.54408 3.45151L3.52054 3.43233L3.47789 3.39858L3.43466 3.36713L3.39201 3.33434L3.35921 3.31056L3.34956 3.30097L3.30575 3.26837L3.26252 3.23616L3.21833 3.20528L3.1751 3.17326L3.17317 3.16943L3.1311 3.13894L3.0873 3.10691L3.04349 3.07642L2.99814 3.04382L2.9827 3.03232L2.95472 3.01218L2.90995 2.98131L2.86498 2.94871L2.82021 2.91764L2.78953 2.89655L2.77409 2.88696L2.73028 2.85762L2.68435 2.82541L2.639 2.79281L2.59346 2.76136L3.8899 1.83937L4.0082 1.92106L4.04641 1.94867L4.08636 1.9736L4.09986 1.98511L4.12553 2.00237L4.16393 2.02902L4.2033 2.05721L4.24151 2.08329L4.28146 2.11148L4.30886 2.13277L4.31851 2.14044L4.35788 2.16805L4.39667 2.1947L4.43391 2.22308L4.47328 2.2507L4.51111 2.28061L4.51497 2.28119L4.54932 2.30727L4.58714 2.33507L4.62477 2.36326L4.66317 2.39203L4.7008 2.41983L4.71624 2.43134L4.73689 2.44668L4.7753 2.47391L4.81196 2.5044L4.84959 2.53374L4.88742 2.56039L4.91694 2.58206L4.92466 2.58973L4.96075 2.6185L4.99838 2.64668L5.03563 2.67602L5.07113 2.7044L5.10838 2.73317L5.11417 2.73892L5.14543 2.76462L5.18152 2.79166L5.21703 2.82157L5.25311 2.85033L5.2892 2.87929L5.30889 2.89463L5.32625 2.90805L5.3635 2.93682L5.39901 2.96769L5.43567 2.99703L5.4708 3.02541L5.50187 3.05092L5.50766 3.05667L5.54258 3.08601L5.57771 3.11592L5.61264 3.14584L5.6493 3.17518L5.68423 3.20624L5.69195 3.21008L5.71935 3.23386L5.75544 3.2655L5.78941 3.29541L5.82376 3.32533L5.85984 3.35678L5.87914 3.37212L5.89458 3.38554L5.92854 3.41603L5.9629 3.44652L5.99744 3.47586L6.03198 3.50635L6.06421 3.53607L6.06614 3.5378L6.1001 3.56771L6.13349 3.59859L6.16688 3.6308L6.20065 3.66072L6.23519 3.69159L6.38514 3.52265L6.56557 3.32533L6.74948 3.12743L6.93532 2.93337L7.12637 2.74199L7.31221 2.55771L7.28211 2.53278L7.25046 2.50382L7.21978 2.47736L7.18755 2.44898L7.15686 2.42405L7.12579 2.39567L7.12 2.39375L7.09279 2.36882L7.06211 2.3437L6.99862 2.29097L6.96639 2.26278L6.93397 2.2367L6.9166 2.22136L6.9031 2.21177L6.87029 2.18512L6.83845 2.15731L6.80622 2.13238L6.77457 2.10573L6.74176 2.07965L6.7105 2.05242L6.67827 2.02634L6.64489 2.00083L6.61266 1.97303L6.57966 1.94867L6.54743 1.92144L6.5152 1.89594L6.49977 1.88443L6.4824 1.87101L6.44901 1.84225L6.41621 1.81674L6.3834 1.79335L6.35059 1.76516L6.31779 1.74004L6.28826 1.71779L6.2844 1.71626L6.24986 1.68846L6.21705 1.66353L6.18309 1.63725L6.1497 1.61118L6.11651 1.58567L6.08351 1.56132L6.07386 1.55365L6.05032 1.53447L6.01635 1.5105L5.98239 1.48557L5.94842 1.45949L5.91465 1.43284L5.88184 1.40887L5.85656 1.39161L5.84691 1.38394L5.81256 1.35882L5.7786 1.33389L5.74406 1.30877L5.71067 1.28441L5.67632 1.25834L5.6412 1.23379L5.63734 1.22995L5.60723 1.20924L5.5723 1.18585L5.53834 1.16035L5.5038 1.13522L5.46944 1.11202L5.43336 1.0869L5.41406 1.07156L5.39862 1.06197L5.36369 1.03743L5.32799 1.01307L5.29364 0.988528L5.25794 0.964174L5.22301 0.939629L5.1875 0.915083L6.48201 0ZM6.53836 9.58325L6.55187 9.61355L6.62192 9.43637L6.70394 9.23751L6.78769 9.03635L6.87685 8.83788L6.96929 8.64056L7.06443 8.44439L7.16246 8.24917L7.26474 8.05569L7.37088 7.86067L7.4693 7.68616L7.45386 7.66219L7.44614 7.64685L7.44035 7.63726L7.42491 7.61387L7.40947 7.59047L7.39404 7.56497L7.3786 7.54215L7.36316 7.51703L7.34965 7.49479L7.33228 7.47197L7.31627 7.44761L7.30083 7.42307L7.28539 7.39967L7.27188 7.37474L7.25451 7.35192L7.23907 7.3291L7.22364 7.30398L7.21592 7.2944L7.2082 7.28097L7.19083 7.25815L7.17539 7.23437L7.15802 7.20983L7.14065 7.18701L7.12522 7.16419L7.10978 7.14195L7.09434 7.11913L7.09279 7.11721L7.07736 7.09477L7.06192 7.07138L7.04455 7.04702L7.02718 7.02363L7.00981 7.00023L6.99244 6.97626L6.97701 6.95344L6.97122 6.94386L6.95964 6.92852L6.94227 6.90512L6.9249 6.88383L6.90753 6.85948L6.89017 6.83494L6.8728 6.81327L6.85543 6.78987L6.84192 6.7707L6.83806 6.76686L6.8041 6.72007L6.78673 6.69668L6.76936 6.67443L6.75199 6.65104L6.6995 6.582L6.68213 6.56091L6.66476 6.53694L6.64933 6.51239L6.63003 6.49073L6.61266 6.46733L6.59529 6.44451L6.58371 6.42917L6.57792 6.42342L6.56055 6.40156L6.54126 6.37989L6.52389 6.35592L6.50459 6.33214L6.48722 6.31028L6.46985 6.28746L6.45249 6.26521L6.44863 6.26138L6.43319 6.2422L6.41582 6.21881L6.39652 6.1981L6.28479 6.36397L6.1553 6.56609C6.07058 6.70051 5.98625 6.83628 5.90519 6.97377C5.82472 7.1103 5.74444 7.24665 5.66841 7.38587L5.55571 7.59412L5.47909 7.73756L5.49878 7.76574L5.51846 7.79355L5.53815 7.82174L5.55551 7.84628L5.55744 7.85012L5.57674 7.87773L5.59604 7.90611L5.61534 7.9343L5.63464 7.96307L5.65393 7.99356L5.66358 8.00698L5.67323 8.02232L5.69253 8.05013L5.71183 8.07831L5.73113 8.10765L5.74849 8.13603L5.76586 8.16595L5.76972 8.16978L5.78516 8.19203L5.80253 8.22194L5.8199 8.25243L5.83727 8.28081L5.85463 8.30843L5.872 8.33508L5.87316 8.33892L5.89053 8.36711L5.9079 8.39645L5.92526 8.42598L5.94263 8.45474L5.96 8.48408L5.96965 8.50134L5.97737 8.51285L5.99281 8.54276L6.01211 8.5721L6.02947 8.60144L6.04684 8.63135L6.06421 8.66012L6.07 8.66779L6.08158 8.68946L6.09895 8.71784L6.11631 8.74871L6.13175 8.77767L6.14719 8.80739L6.16456 8.83577L6.18251 8.86664L6.19795 8.8956L6.21338 8.92551L6.23075 8.95485L6.27726 9.04498L6.2927 9.07432L6.30814 9.10366L6.32358 9.13415L6.33901 9.16407L6.3448 9.17365L6.35445 9.19379L6.36989 9.22466L6.3834 9.25362L6.39884 9.28392L6.41235 9.31441L6.42778 9.34432L6.44245 9.37481L6.45789 9.40357L6.4714 9.43349L6.48684 9.46455L6.48799 9.46839L6.5154 9.52534L6.52891 9.55526L6.53836 9.58325ZM8.46759 24.5032L8.48495 24.4837L8.49074 24.4779L8.50232 24.4683L8.51969 24.4491L8.53706 24.43L8.55443 24.4108L8.5718 24.3935L8.58916 24.3734L8.60653 24.3561L8.6239 24.337L8.64127 24.3197L8.65864 24.2998L8.6625 24.294L8.67601 24.2806L8.69337 24.2614L8.71074 24.2422L8.72811 24.2231L8.74548 24.2058L8.76285 24.1866L8.78021 24.1674L8.79758 24.1483L8.81495 24.131L8.83232 24.1118L8.83618 24.108L8.84969 24.0927L8.86706 24.0735L8.88442 24.0543L8.90179 24.037L8.91916 24.0175L8.93653 23.9979L8.9539 23.9807L8.97126 23.9615L8.98863 23.9419L9.00407 23.9247L9.00561 23.9228L9.02105 23.9074L9.03842 23.8867L9.05386 23.8694L9.07123 23.8503L9.0886 23.8307L9.10403 23.8115L9.1214 23.7924L9.13684 23.7728L9.15421 23.7532L9.17158 23.736L9.18895 23.7153L9.20438 23.698L9.22175 23.6788L9.25514 23.6407L9.27058 23.6211L9.28794 23.6039L9.30338 23.5837L9.32075 23.5645L9.33619 23.5492L9.33812 23.5481L9.35356 23.5273L9.37093 23.5082L9.38636 23.488L9.40373 23.4708L9.41917 23.4516L9.43461 23.4315L9.45198 23.4123L9.46742 23.3931L9.48285 23.3739L9.49443 23.3586L9.49829 23.3548L9.51373 23.3352L9.52917 23.316L9.54461 23.2965L9.50292 23.2497L9.34333 23.0731L9.18895 22.8941L9.03688 22.7143L8.88713 22.5327L8.74142 22.3496L8.59881 22.1664L8.46643 21.9902L8.45099 22.0121L8.43555 22.032L8.42011 22.0539L8.40467 22.0749L8.38924 22.0957L8.3738 22.1169L8.35836 22.1375L8.34099 22.157L8.33983 22.1587L8.32632 22.1795L8.31089 22.2L8.29352 22.2201L8.27808 22.2408L8.26264 22.2615L8.23022 22.3033L8.21285 22.324L8.20127 22.3394L8.19548 22.3451L8.17812 22.3664L8.16075 22.3871L8.14531 22.4088L8.12987 22.428L8.1125 22.4493L8.09706 22.4694L8.0797 22.4895L8.06426 22.5087L8.05654 22.5183L8.04689 22.5317L8.02952 22.5509L8.01215 22.5716L7.99478 22.5927L7.97935 22.6128L7.96198 22.6347L7.94654 22.6539L7.92917 22.6744L7.9118 22.6951L7.90987 22.6957L7.89443 22.7149L7.86105 22.7578L7.84368 22.7751L7.76224 22.8708L7.75645 22.8784L7.73909 22.8976L7.72172 22.9177L7.70435 22.9373L7.66865 22.9776L7.65128 22.9994L7.63391 23.0186L7.61654 23.0397L7.61075 23.0455L7.59917 23.0589L7.58181 23.0781L7.56444 23.0986L7.54707 23.1187L7.5297 23.1383L7.51233 23.1578L7.49497 23.1785L7.4776 23.1977L7.46023 23.2178L7.44093 23.2376L7.42356 23.2577L7.40619 23.2773L7.38883 23.2986L7.44518 23.3659L7.60767 23.559L7.77459 23.7513L7.94461 23.9415L8.11752 24.1308L8.2941 24.3172L8.46759 24.5032ZM10.541 21.9697L10.5583 21.9469L10.5738 21.9217L10.5892 21.8989L10.6066 21.8755L10.622 21.8517L10.6375 21.8278L10.6529 21.8038L10.6541 21.8019L10.6676 21.7806L10.683 21.7578L10.6965 21.7334L10.7119 21.7106L10.7274 21.6884L10.7428 21.6627L10.7583 21.6393L10.7737 21.6155L10.7833 21.6001L10.7891 21.5925L10.8046 21.5679L10.82 21.544L10.8355 21.5202L10.8509 21.4945L10.8663 21.4717L10.8798 21.4488L10.8953 21.4245L10.9107 21.4L10.9126 21.3984L10.9242 21.3756L10.9397 21.3537L10.9551 21.3294L10.9705 21.3037L10.984 21.2809L10.9995 21.2571L11.013 21.2331L11.0284 21.2091L11.0381 21.1938L11.0439 21.1861L11.0574 21.1616L11.0728 21.1388L11.0863 21.1127L11.0998 21.0887L11.1153 21.0644L11.1307 21.0404L11.1442 21.0176L11.1597 20.9926L11.1616 20.9888L11.1732 20.9681L11.1886 20.9426L11.2021 20.9192L11.2156 20.8941L11.2311 20.8707L11.2446 20.8463L11.2581 20.8218L11.2716 20.7974L11.2793 20.7821L11.2832 20.7744L11.2967 20.7483L11.3102 20.7244L11.3237 20.7004L11.3372 20.6755L11.3507 20.6521L11.3642 20.6272L11.3758 20.6015L11.3912 20.5771L11.3932 20.5733L11.4047 20.5537L11.4163 20.5282L11.4298 20.5037L11.4414 20.4791L11.4549 20.453L11.4684 20.4302C11.0495 19.8275 10.689 19.198 10.3902 18.5506L10.3787 18.5811L10.3671 18.6116L10.3536 18.6419L10.342 18.6729L10.3285 18.7049L10.3188 18.7272L10.3169 18.7368L10.3034 18.7671L10.2899 18.797L10.2652 18.8601L10.2517 18.8894L10.2401 18.9193L10.2362 18.9289L10.2266 18.9514L10.2131 18.9817L10.1863 19.0432L10.1747 19.0735L10.1612 19.104L10.1496 19.128L10.1457 19.1356L10.1322 19.165L10.1187 19.1955L10.1052 19.2252L10.0898 19.2568L10.0782 19.2873L10.0647 19.3176L10.0589 19.3272L10.0512 19.3479L10.0357 19.3767L10.0085 19.4365L9.99502 19.468L9.97959 19.4984L9.96608 19.5234L9.96453 19.5291L9.95103 19.5585L9.93559 19.5895L9.89236 19.6791L9.87499 19.709L9.8692 19.7205L9.86148 19.7378L9.84604 19.7683L9.83061 19.7987L9.8171 19.8292L9.80166 19.859L9.78622 19.8879L9.77271 19.9161L9.75611 19.9472L9.74068 19.978L9.72524 20.0074L9.7098 20.0373L9.69436 20.0661L9.67699 20.0956L9.6712 20.1109L9.66348 20.1263L9.64612 20.1552L9.62875 20.1873L9.61331 20.2149L9.59787 20.2459L9.5805 20.2747L9.56506 20.3025L9.5477 20.3328L9.53226 20.3633L9.51489 20.3926L9.49945 20.422L9.48208 20.4503L9.46472 20.4806L9.48884 20.5188L9.60366 20.696L9.72196 20.8738L9.84218 21.0477L9.96531 21.2233L10.0927 21.3961L10.2214 21.5668L10.3547 21.7374L10.4904 21.9072L10.541 21.9697ZM12.2952 18.4978L12.3395 18.3674L12.3619 18.3005L12.3843 18.2326L12.4281 18.0994L12.4478 18.0324L12.4692 17.9663L12.4895 17.8972L12.5088 17.8315L12.5476 17.6967L12.5669 17.6297L12.5862 17.5613L12.6035 17.4928L12.6228 17.4265L12.6402 17.3574L12.6518 17.3154L12.6576 17.289L12.6749 17.2236L12.6904 17.1546L12.7058 17.0911L12.7062 17.0853L12.7216 17.0186L12.7371 16.949L12.7525 16.8805L12.7564 16.8633L12.766 16.8126L12.7815 16.7427L12.795 16.6752L12.8027 16.6366L12.8085 16.6073L12.822 16.5382L12.8336 16.4686L12.8592 16.3311L12.8708 16.2615L12.8824 16.1913L12.8843 16.1779L12.892 16.1219L12.9036 16.0535L12.9133 15.9839L12.9191 15.948L12.9229 15.9139L12.9326 15.8448L12.9422 15.7746L12.9499 15.7175L12.9509 15.706L12.9586 15.637L12.9663 15.5668L12.9741 15.4962L12.976 15.4866L12.9818 15.4256L12.9876 15.3562L12.9953 15.2866L12.9991 15.2555L13.0011 15.217L13.0069 15.1447L13.0127 15.0751L13.0165 15.0203L13.0177 15.0049L13.0215 14.9343L13.0273 14.8626L13.0312 14.7919V14.788L13.035 14.7219L13.0408 14.5838L13.0428 14.5531L13.0439 14.5096L13.0458 14.4384L13.0476 14.3673L13.0486 14.3194V14.2965L13.0491 14.2237L13.0497 14.1543V14.0835L13.0486 13.8687L13.0482 13.8417L13.0476 13.7993L13.0418 13.5997L13.0403 13.5843L13.0345 13.4436L13.0306 13.3723L13.03 13.3588V13.3569L13.0184 13.159L13.0165 13.1188L13.0127 13.09L13.0069 13.0177L13.0011 12.9487L12.9953 12.8802L12.9876 12.8068L12.9741 12.6681L12.9721 12.642L12.9663 12.5964L12.9567 12.5279L12.949 12.4589L12.9432 12.4056L12.9413 12.3883L12.9316 12.3181L12.922 12.2485L12.9123 12.1784L12.9113 12.1688L12.9017 12.1099L12.8901 12.0414L12.8805 11.9714L12.8747 11.9339L12.8689 11.9024L12.8573 11.8338L12.8457 11.7643L12.8341 11.7001L12.8303 11.6963L12.8187 11.6272L12.8052 11.5586L12.7917 11.4892L12.7878 11.4667L12.7782 11.4211L12.7647 11.3521L12.7492 11.2824L12.7396 11.2335L12.7338 11.2163L12.7184 11.1478L12.7029 11.0788L12.6875 11.0113L12.6865 11.0036L12.6711 10.9434L12.6537 10.8744L12.6363 10.808L12.6267 10.7733L12.619 10.7405L12.5993 10.6721L12.5819 10.6042L12.5665 10.5432L12.5646 10.5355L12.5449 10.4709L12.5275 10.4019L12.5067 10.3355L12.5009 10.3148L12.4874 10.2671L12.4671 10.2001L12.4457 10.1344L12.4341 10.0882L12.4264 10.0675L12.4052 10.0007L12.3826 9.93264L12.3602 9.86687L12.3592 9.86112L12.3384 9.7986L12.316 9.73168L12.2934 9.66705L12.2519 9.74855L12.1786 9.89909L12.0402 10.2042L11.9746 10.3574L11.8503 10.6667L11.7934 10.8232L11.7376 10.9808L11.6846 11.1369L11.6354 11.2957L11.5873 11.4548L11.5435 11.6142L11.5024 11.7739L11.463 11.9354L11.4264 12.0969L11.3936 12.2599L11.3625 12.4225L11.3339 12.5866L11.311 12.7496L11.2874 12.9155L11.2681 13.0808L11.2521 13.2465L11.2386 13.4123L11.2289 13.5803L11.2212 13.7472L11.2174 13.9151L11.2156 14.0852L11.2174 14.258L11.2212 14.4331L11.2289 14.606L11.2405 14.7794L11.256 14.9501L11.2733 15.1234L11.2942 15.2935L11.3177 15.4644L11.3449 15.6327L11.3739 15.8019L11.4063 15.9704L11.4424 16.1388L11.4812 16.3052L11.5217 16.4721L11.5682 16.6368L11.6141 16.8021L11.6651 16.9666L11.7176 17.1287L11.7739 17.2913L11.833 17.4537C11.8718 17.5609 11.915 17.6673 11.9588 17.7734L12.0265 17.9321L12.0966 18.0919L12.1693 18.2486L12.2454 18.4056L12.2952 18.4978ZM11.4582 7.73449L11.4447 7.70956L11.4312 7.68501L11.4177 7.66066L11.4161 7.65682L11.4046 7.634L11.393 7.61118L11.3795 7.58721L11.366 7.56171L11.3524 7.53717L11.3389 7.51319L11.3274 7.48942L11.3139 7.46334L11.3023 7.44263L11.3003 7.44071L11.2868 7.41731L11.2733 7.39181L11.2598 7.36784L11.2463 7.34387L11.2328 7.31837L11.2193 7.29497L11.2058 7.27043L11.1923 7.2455L11.1826 7.23207L11.1768 7.22249L11.1633 7.19871L11.1498 7.17589L11.1363 7.15077L11.1228 7.12699L11.1093 7.10244L11.0958 7.0779L11.0823 7.05354L11.0668 7.029L11.063 7.02133L11.0533 7.00599L11.0398 6.98163L11.0244 6.95766L11.0089 6.93542L10.9954 6.90991L10.98 6.88748L10.9665 6.86197L10.953 6.83762L10.9375 6.81423L10.9235 6.78968L10.9099 6.76629L10.8945 6.74289L10.8791 6.71739L10.8656 6.69514L10.8501 6.67021L10.8347 6.64624L10.8192 6.62227L10.7743 6.55171L10.7588 6.52831L10.7434 6.50549L10.728 6.47941L10.7125 6.45755L10.6971 6.4332L10.6836 6.4098L10.6739 6.39638L10.6662 6.38679L10.6508 6.36225L10.6353 6.33828L10.6199 6.31392L10.6045 6.29053L10.589 6.26828L10.5736 6.24431L10.5581 6.21938L10.5427 6.19752L10.4676 6.28899L10.3364 6.45467L10.2079 6.6194L10.0826 6.78738L9.95952 6.95594L9.8391 7.12603L9.72273 7.29612L9.60733 7.46583L9.46549 7.68866L9.47899 7.7109L9.48285 7.71665L9.49829 7.74561L9.51566 7.77591L9.5311 7.80697L9.54654 7.83631L9.56391 7.86412L9.57934 7.89288L9.58899 7.90822L9.59864 7.92356L9.61408 7.95405L9.62952 7.98282L9.64496 8.01216L9.6604 8.04207L9.67583 8.07084L9.6932 8.10075L9.69706 8.1065L9.70864 8.13086L9.72408 8.16135L9.73952 8.19011L9.75496 8.2206L9.7704 8.24936L9.78583 8.2787L9.79934 8.30536L9.80108 8.30919L9.81652 8.33911L9.83196 8.3696L9.84739 8.3999L9.86283 8.42981L9.87827 8.4603L9.89371 8.48964L9.90336 8.5069L9.90915 8.52032L9.92266 8.54909L9.9381 8.57958L9.95353 8.60949L9.96704 8.63941L9.98248 8.67028L9.99599 8.69962L9.99985 8.70921L10.0095 8.73049L10.023 8.76156L10.0365 8.7909L10.052 8.82177L10.0655 8.85111L10.079 8.8816L10.1073 8.94143L10.1189 8.97288L10.1324 9.00394L10.1459 9.03328L10.1594 9.06416L10.1749 9.09522L10.1845 9.11689L10.1865 9.12456L10.2 9.15659L10.2135 9.18765L10.227 9.21699L10.2405 9.24748L10.254 9.27893L10.2675 9.31057L10.2733 9.32399L10.2907 9.37117L10.3042 9.40108L10.3158 9.43253L10.3273 9.46475L10.3408 9.49466L10.3524 9.52496L10.3544 9.52879L10.364 9.55487L10.3756 9.58594L10.3891 9.61796L10.452 9.48047L10.5331 9.3146L10.6172 9.14892L10.7025 8.98419L10.7913 8.82158L10.8831 8.65916L10.9777 8.49769L11.074 8.33681L11.1736 8.1763L11.277 8.01925L11.3814 7.86105L11.4582 7.73449ZM9.54364 4.85999L9.5282 4.84081L9.51084 4.82068L9.4954 4.8015L9.48575 4.79191L9.47803 4.78233L9.46066 4.76315L9.44522 4.74397L9.42786 4.72441L9.41242 4.70716L9.39698 4.68702L9.37961 4.66785L9.34738 4.63026L9.33001 4.61108L9.31844 4.59766L9.31458 4.58999L9.29721 4.57273L9.28177 4.55317L9.2644 4.534L9.24896 4.51482L9.2316 4.49564L9.21423 4.47608L9.19686 4.45883L9.17949 4.43927L9.16405 4.42009L9.15054 4.40475L9.14881 4.40091L9.13144 4.38174L9.116 4.36256L9.09863 4.34339L9.08126 4.32421L9.06582 4.30503L9.04846 4.28778L9.03109 4.26822L9.01372 4.25096L8.99635 4.23178L8.97898 4.2126L8.9786 4.21069L8.96123 4.19343L8.94386 4.17425L8.92842 4.15508L8.91105 4.13437L8.89562 4.11711L8.87825 4.09985L8.86088 4.07914L8.84351 4.06188L8.82614 4.04462L8.80877 4.02736L8.80762 4.02353L8.79218 4.00627L8.77481 3.98901L8.75937 3.97175L8.742 3.95008L8.72464 3.93283L8.68971 3.89754L8.67234 3.87837L8.65497 3.85919L8.6376 3.84001L8.63374 3.83426L8.62023 3.82084L8.60286 3.80128L8.58357 3.78402L8.5662 3.76676L8.54883 3.7495L8.53146 3.73033L8.51409 3.71115L8.49673 3.69197L8.47936 3.67472L8.46199 3.65554L8.26283 3.86053L8.09166 4.04635L7.92319 4.22967L7.75742 4.41664L7.59551 4.60361L7.4363 4.7923L7.38439 4.85481L7.40369 4.87437L7.42105 4.89355L7.42684 4.90122L7.43842 4.91464L7.45579 4.9342L7.47316 4.95587L7.49053 4.97543L7.50789 4.99461L7.52526 5.01474L7.54263 5.03392L7.56 5.05444L7.57737 5.07515L7.58316 5.07898L7.59474 5.09624L7.61403 5.1135L7.6314 5.13421L7.64877 5.15434L7.68158 5.19174L7.68351 5.19365L7.70088 5.2136L7.71824 5.23546L7.73561 5.25559L7.75259 5.27573L7.77189 5.29529L7.78926 5.31542L7.80663 5.33498L7.82207 5.35608L7.83944 5.37564L7.8568 5.39692L7.87417 5.41763L7.89154 5.43681L7.90698 5.45905L7.92435 5.47976L7.94171 5.50047L7.95908 5.51773L7.97645 5.53997L7.99189 5.55953L8.00926 5.58082L8.0247 5.60153L8.03821 5.61879L8.04206 5.62071L8.05943 5.64237L8.07487 5.66308L8.09224 5.68322L8.10961 5.70374L8.12505 5.72349L8.14241 5.74343L8.15785 5.76472L8.17329 5.78696L8.1868 5.8023L8.19066 5.80806L8.2061 5.82877L8.25473 5.89071L8.27017 5.9118L8.28561 5.93193L8.30104 5.95264L8.31648 5.97335L8.32613 5.98678L8.33192 5.99445L8.34929 6.01497L8.36473 6.03568L8.3821 6.05735L8.39753 6.0769L8.41297 6.09972L8.43034 6.12043L8.44385 6.14114L8.45929 6.1607L8.58608 5.99157L8.72676 5.81285L8.86783 5.63451L9.01391 5.45886L9.16116 5.28167L9.31207 5.10717L9.46529 4.93439L9.54364 4.85999ZM6.39286 21.9679L6.41215 21.9469L6.42952 21.9217L6.44882 21.9006L6.46619 21.8788L6.46677 21.8749L6.48414 21.8544L6.50343 21.8305L6.52273 21.8082L6.5401 21.7863L6.5594 21.7635L6.5787 21.7401L6.59606 21.7179L6.60185 21.7102L6.61343 21.6949L6.6308 21.6726L6.64817 21.6487L6.66554 21.6258L6.68483 21.6024L6.7022 21.5796L6.71957 21.558L6.73115 21.5445L6.73694 21.5369L6.75431 21.5123L6.77168 21.4883L6.78904 21.4673L6.80641 21.4427L6.82378 21.4193L6.84115 21.3971L6.85466 21.3779L6.85852 21.3721L6.87588 21.3499L6.89325 21.3261L6.91062 21.3031L6.92799 21.2803L6.94343 21.2571L6.9608 21.2331L6.97816 21.2103L6.99399 21.1863L7.00943 21.1629L7.0268 21.1413L7.04416 21.1158L7.06153 21.0939L7.07697 21.069L7.09241 21.045L7.09627 21.0392L7.10785 21.022L7.12329 20.9986L7.13872 20.974L7.15609 20.9512L7.17346 20.9278L7.1889 20.9039L7.20627 20.8795L7.21399 20.868L7.22171 20.8565L7.23714 20.8308L7.25258 20.8086L7.26995 20.7836L7.28346 20.7597L7.2989 20.7368L7.31434 20.7129L7.34714 20.6667L7.36065 20.6417L7.37609 20.6189L7.39153 20.5944L7.40697 20.57L7.43804 20.5221L7.45347 20.4983L7.46891 20.4749L7.4554 20.4509L7.34598 20.2553L7.23772 20.0557L7.13429 19.8563L7.03413 19.6557L6.93687 19.4534L6.84385 19.2497L6.75411 19.0463L6.66824 18.8403L6.58506 18.6338L6.55168 18.5473L6.53817 18.5772L6.52273 18.6077L6.50922 18.6376L6.49571 18.667L6.48799 18.6842L6.48028 18.6996L6.46484 18.7295L6.45133 18.7588L6.43782 18.7893L6.42238 18.8198L6.40694 18.8501L6.39343 18.88L6.378 18.9099L6.36449 18.941L6.34905 18.9703L6.33361 18.9997L6.32589 19.0169L6.31817 19.0304L6.30273 19.0612L6.2873 19.089L6.27186 19.1184L6.25642 19.1493L6.24098 19.1797L6.22496 19.2097L6.20759 19.2378L6.19216 19.2689L6.17672 19.2967L6.15935 19.3276L6.15163 19.3448L6.14198 19.3564L6.12654 19.3874L6.10917 19.4168L6.09181 19.4446L6.07444 19.4749L6.059 19.5048L6.04202 19.5341L6.02465 19.564L6.00728 19.5918L5.98991 19.6223L5.97254 19.6517L5.9629 19.667L5.95518 19.6804L5.93781 19.7092L5.92044 19.738L5.90307 19.7673L5.8857 19.7963L5.86834 19.8262L5.86776 19.8281L5.85039 19.8542L5.83302 19.8824L5.81565 19.9123L5.79828 19.9416L5.76972 19.9867L5.76007 20.0001L5.7427 20.0277L5.72534 20.0565L5.70604 20.086L5.68674 20.1142L5.66744 20.143L5.66551 20.1449L5.64814 20.1715L5.62885 20.2005L5.60916 20.2292L5.59179 20.258L5.57172 20.2858L5.56015 20.3031L5.55243 20.3127L5.53274 20.341L5.51306 20.3692L5.49337 20.3986L5.47369 20.4273L5.51518 20.5052L5.62962 20.7194C5.70778 20.8601 5.78883 21.0009 5.87084 21.1411L5.99725 21.352L6.12635 21.5591L6.25931 21.7662L6.39286 21.9679ZM8.46662 18.5669L8.47241 18.5534L8.49422 18.5013L8.52104 18.4355L8.54844 18.3692L8.61946 18.1822L8.62699 18.1663L8.65227 18.0988L8.69048 17.995L8.70206 17.964L8.7256 17.8949L8.74914 17.8271L8.75686 17.8069L8.79623 17.6913L8.81823 17.624L8.82016 17.6182L8.84042 17.5569L8.86107 17.4878L8.88037 17.4295L8.8823 17.418L8.9043 17.3505L8.92495 17.2809L8.93653 17.2385L8.94232 17.2119L8.962 17.1434L8.9813 17.0732L8.99095 17.0456L9.0006 17.0042L9.0199 16.9342L9.03726 16.8658L9.04112 16.8523L9.05656 16.7954L9.08763 16.6612L9.08937 16.6554L9.10481 16.5858L9.12024 16.5152L9.12989 16.4646L9.13375 16.445L9.14919 16.3749L9.1627 16.3037L9.17042 16.2705L9.17814 16.2347L9.18972 16.1635L9.20323 16.0939L9.20516 16.0747L9.2148 16.0226L9.22638 15.9518L9.23796 15.8816V15.8797L9.24954 15.8101L9.26112 15.7401L9.26884 15.6814L9.27077 15.668L9.28042 15.5973L9.29007 15.5244L9.29586 15.4847L9.29779 15.4538L9.30744 15.3836L9.31516 15.3113L9.31902 15.2868L9.32287 15.2391L9.33638 15.096L9.33696 15.0864L9.34275 15.0243L9.35047 14.952L9.35433 14.8879V14.8803L9.36012 14.808L9.36398 14.7351L9.36591 14.6868L9.36745 14.6613L9.37131 14.5911L9.37324 14.5188L9.3744 14.4856L9.37633 14.4455L9.37807 14.3742L9.37903 14.3013V14.2841L9.37961 14.2269L9.38154 14.0818L9.37961 13.9345L9.37903 13.8731V13.8616L9.3771 13.7159L9.37324 13.6643V13.6442L9.37131 13.5713L9.36745 13.4984L9.36591 13.4578L9.36398 13.4261L9.36012 13.3533L9.35433 13.2816L9.35279 13.2513L9.34893 13.2104L9.34314 13.1364L9.33735 13.0641L9.33638 13.0449L9.33059 12.9939L9.3248 12.9205L9.31708 12.8488L9.31651 12.8392L9.30879 12.7763L9.29142 12.6365L9.28177 12.5623L9.27212 12.4915L9.2644 12.4345L9.26266 12.4211L9.25109 12.3494L9.23951 12.2775L9.23179 12.2309L9.22793 12.2069L9.21635 12.1362L9.20284 12.0662L9.19126 11.9966L9.17968 11.9248L9.16424 11.8552L9.15846 11.8274L9.15074 11.7839L9.1353 11.7133L9.12179 11.6443L9.11793 11.627L9.10442 11.5737L9.08898 11.5047L9.07161 11.4341L9.07123 11.4284L9.05579 11.3653L9.03842 11.2945L9.02298 11.2293L9.02144 11.2255L9.00407 11.1565L8.98439 11.0874L8.97088 11.0324L8.96702 11.019L8.94676 10.9505L8.92939 10.8809L8.91588 10.837L8.90816 10.8119L8.88674 10.7434L8.8659 10.6738L8.85432 10.6402L8.84467 10.6059L8.8217 10.5375L8.80028 10.47L8.79256 10.4456L8.77906 10.4009L8.75493 10.3336L8.73197 10.2657L8.72811 10.2523L8.70881 10.1969L8.68411 10.1296L8.65844 10.0621L8.65786 10.0602L8.63374 9.99612L8.6075 9.92804L8.58511 9.86668L8.58318 9.85901L8.55636 9.79227L8.52837 9.72535L8.50908 9.6753L8.50136 9.65996L8.47357 9.59418C8.36859 9.84424 8.27229 10.0991 8.18468 10.3557C8.01196 10.8581 7.8734 11.3689 7.7717 11.8907C7.63121 12.6062 7.55788 13.3377 7.55788 14.0814C7.55788 14.7761 7.62117 15.46 7.74372 16.1307C7.80508 16.4673 7.8817 16.7986 7.97356 17.1271L8.02933 17.3227L8.09012 17.5195L8.15361 17.7141L8.2198 17.9088L8.28966 18.1001L8.36357 18.293L8.43902 18.4821L8.4396 18.486L8.46662 18.5669ZM4.63905 18.4978L4.67128 18.4347L4.68093 18.4194L4.70447 18.3705L4.73573 18.3047L4.7531 18.2672L4.76661 18.2395L4.79787 18.1741L4.82586 18.1145L4.82779 18.1107L4.85789 18.0428L4.88684 17.9774L4.89263 17.9621L4.91443 17.9111L4.94184 17.8447L4.95728 17.8098L4.96885 17.7789L4.99606 17.712L5.04913 17.5793L5.07441 17.5114L5.08213 17.498L5.10143 17.4447L5.1271 17.3785L5.13868 17.3427L5.15026 17.3116L5.1738 17.2431L5.19734 17.1762L5.22031 17.1089L5.24154 17.042L5.24732 17.0286L5.26469 16.9743L5.28669 16.9053L5.29634 16.8715L5.30599 16.8357L5.32625 16.7682L5.34362 16.7133L5.34748 16.6999L5.36485 16.6309L5.38415 16.5612L5.38608 16.5536L5.40152 16.4932L5.41888 16.4253L5.4266 16.3927L5.43625 16.3557L5.45362 16.2866L5.4652 16.2312L5.46906 16.2159L5.4845 16.1469L5.49994 16.0763L5.50187 16.0686L5.51344 16.0061L5.52888 15.9359L5.54239 15.8669L5.5559 15.7978L5.56555 15.7436L5.56941 15.7263L5.58099 15.6567L5.59257 15.5861L5.5943 15.5804L5.60202 15.5158L5.6136 15.4446L5.61939 15.4162L5.62518 15.3733L5.63483 15.3033L5.64062 15.2515L5.64255 15.2314L5.65027 15.1602L5.65992 15.0885L5.66107 15.0866L5.66686 15.0191L5.67265 14.9474L5.67458 14.9198L5.68037 14.8762L5.68423 14.8055L5.68809 14.7539L5.68925 14.7317L5.69311 14.6609L5.69697 14.588L5.6989 14.5159L5.70276 14.4442L5.70334 14.4198L5.70488 14.3725L5.70662 14.3008L5.70816 14.2519V14.2279L5.70874 14.1545V14.0833L5.70816 13.9376L5.70758 13.9082L5.70662 13.8637L5.6989 13.649L5.69697 13.5767L5.69542 13.5613L5.69157 13.5053L5.68771 13.4325L5.68578 13.3886L5.68192 13.3613L5.67806 13.29L5.67034 13.2177L5.66455 13.1466L5.65683 13.0754L5.65297 13.0443L5.63232 12.8731L5.63174 12.8597L5.6109 12.7189L5.60916 12.7036L5.59951 12.6482L5.58986 12.578L5.58215 12.5333L5.57829 12.5072L5.56671 12.4372L5.5532 12.3676L5.55281 12.3638L5.5393 12.2974L5.52579 12.2269L5.52001 12.1952L5.51036 12.1561L5.49685 12.0877L5.48334 12.0267L5.4818 12.0171L5.46636 11.9477L5.45092 11.8781L5.44513 11.8589L5.43355 11.809L5.41618 11.7394L5.4046 11.6938L5.39881 11.6698L5.37952 11.6013L5.36022 11.5323L5.35906 11.5304L5.34169 11.465L5.32104 11.3956L5.31139 11.3639L5.30174 11.3269L5.2809 11.2596L5.26161 11.2004L5.25968 11.1908L5.23671 11.1227L5.21548 11.0548L5.20969 11.0376L5.20776 11.0337L5.16955 10.9217L5.15219 10.8761L5.1464 10.8521L5.12227 10.7858L5.09661 10.7194L5.09468 10.7137L5.07113 10.6523L5.04585 10.5848L5.03234 10.5528L4.97059 10.399L4.96885 10.3933L4.96499 10.3856L4.93643 10.3198L4.90961 10.254L4.89996 10.2333L4.88028 10.1865L4.85133 10.1213L4.83049 10.0757L4.82084 10.0556L4.79073 9.99036L4.75947 9.92516L4.75754 9.91749L4.72975 9.85997L4.69849 9.79477L4.68112 9.76159L4.66568 9.72899L4.63345 9.66533C4.57382 9.83542 4.51805 10.0067 4.46498 10.1785C4.08037 11.4353 3.87852 12.7381 3.87852 14.0835C3.87852 15.2135 4.02229 16.3192 4.29806 17.3933C4.39319 17.7663 4.50532 18.1364 4.63345 18.499L4.63905 18.4978Z" fill="#808080"/>
<path fill-rule="evenodd" clip-rule="evenodd" d="M-105.267 -31.6398H85.1585V-26.2042H-104.583C-104.96 -26.2042 -105.267 -25.8987 -105.267 -25.5248V65.5241C-105.267 65.898 -104.96 66.2035 -104.583 66.2035H375.436C375.812 66.2035 376.12 65.898 376.12 65.5241V-25.5248C376.12 -25.8987 375.812 -26.2042 375.436 -26.2042H185.693V-31.6398H376.12C379.128 -31.6398 381.59 -29.1937 381.59 -26.2042V66.2035C381.59 69.1931 379.128 71.6392 376.12 71.6392H-105.267C-108.276 71.6392 -110.737 69.1931 -110.737 66.2035V-26.2042C-110.737 -29.1937 -108.276 -31.6398 -105.267 -31.6398Z" fill="#202020"/>
<path d="M-319.102 -131.975H782.017V382.789H-319.102V-131.975Z" stroke="#202020" stroke-width="0.755865"/>
</g>
<defs>
<clipPath id="clip0_10_44">
<rect width="41" height="40" fill="white"/>
</clipPath>
</defs>
</svg>
