<svg width="16" height="42" viewBox="0 0 16 42" fill="none" xmlns="http://www.w3.org/2000/svg">
<g clip-path="url(#clip0_10_48)">
<path fill-rule="evenodd" clip-rule="evenodd" d="M9.81802 16.6838V31.8313C10.5802 32.4407 10.9614 33.1729 10.9614 34.0382C10.9614 34.8331 10.6669 35.5126 10.0863 36.0688C9.50693 36.6337 8.80514 36.9158 7.97485 36.9158C7.15188 36.9158 6.44218 36.6337 5.86178 36.0688C5.28119 35.5126 4.98732 34.8331 4.98732 34.0382C4.98732 33.1729 5.38614 32.4407 6.18178 31.8313V16.6838H9.81802ZM12.0519 34.0476C12.0519 32.8022 11.5669 31.779 10.5976 30.9834V4.96961C10.5976 4.24623 10.3467 3.61845 9.84435 3.10698C9.34198 2.58602 8.73643 2.33018 8.02633 2.33018C7.31663 2.33018 6.70158 2.58602 6.18178 3.08995C5.66218 3.60219 5.40237 4.21991 5.40237 4.94329V30.9834C4.39901 31.7608 3.89604 32.7845 3.89604 34.0476C3.89604 35.1418 4.29445 36.0688 5.09069 36.828C5.88792 37.5959 6.84891 37.9748 7.97485 37.9748C9.0996 37.9748 10.0606 37.5959 10.8574 36.828C11.6541 36.0688 12.0519 35.1418 12.0519 34.0476ZM16 34.3029C16 36.4214 15.2216 38.2407 13.6539 39.7408C12.0865 41.2503 10.1998 42 7.99168 42C5.78356 42 3.89604 41.2503 2.33782 39.7408C0.779406 38.2407 0 36.4214 0 34.3029C0 31.8582 0.986732 29.8717 2.96079 28.3357V5.08456C2.96079 3.67244 3.46356 2.47165 4.4598 1.48295C5.45445 0.494445 6.65782 0 8.06099 0C9.45445 0 10.6406 0.503347 11.6194 1.49998C12.5978 2.49855 13.0911 3.69896 13.0911 5.11108V28.3357C15.0305 29.8717 16 31.8582 16 34.3029Z" fill="#808080"/>
<path fill-rule="evenodd" clip-rule="evenodd" d="M-199.626 -31.1133H-4.22766V-25.6277H-198.924C-199.311 -25.6277 -199.626 -25.3195 -199.626 -24.9421V66.9423C-199.626 67.3197 -199.311 67.628 -198.924 67.628H293.63C294.016 67.628 294.332 67.3197 294.332 66.9423V-24.9421C294.332 -25.3195 294.016 -25.6277 293.63 -25.6277H98.9327V-31.1133H294.332C297.419 -31.1133 299.945 -28.6447 299.945 -25.6277V67.628C299.945 70.645 297.419 73.1135 294.332 73.1135H-199.626C-202.713 73.1135 -205.239 70.645 -205.239 67.628V-25.6277C-205.239 -28.6447 -202.713 -31.1133 -199.626 -31.1133Z" fill="#202020"/>
<path d="M-419.045 -132.37H710.829V387.119H-419.045V-132.37Z" stroke="#202020" stroke-width="0.755865"/>
</g>
<defs>
<clipPath id="clip0_10_48">
<rect width="16" height="42" fill="white"/>
</clipPath>
</defs>
</svg>
